<?xml version="1.0" encoding="UTF-8" standalone="no"?>
<!-- Created with Inkscape (http://www.inkscape.org/) -->

<svg
   xmlns:dc="http://purl.org/dc/elements/1.1/"
   xmlns:cc="http://creativecommons.org/ns#"
   xmlns:rdf="http://www.w3.org/1999/02/22-rdf-syntax-ns#"
   xmlns:svg="http://www.w3.org/2000/svg"
   xmlns="http://www.w3.org/2000/svg"
   xmlns:sodipodi="http://sodipodi.sourceforge.net/DTD/sodipodi-0.dtd"
   xmlns:inkscape="http://www.inkscape.org/namespaces/inkscape"
   width="298.784"
   height="175.416"
   id="svg3305"
   version="1.1"
   inkscape:version="0.48.4 r9939"
   sodipodi:docname="New document 7">
  <defs
     id="defs3307" />
  <sodipodi:namedview
     id="base"
     pagecolor="#ffffff"
     bordercolor="#666666"
     borderopacity="1.0"
     inkscape:pageopacity="0.0"
     inkscape:pageshadow="2"
     inkscape:zoom="0.35"
     inkscape:cx="135.82057"
     inkscape:cy="176.2794"
     inkscape:document-units="px"
     inkscape:current-layer="layer1"
     showgrid="false"
     fit-margin-top="0"
     fit-margin-left="0"
     fit-margin-right="0"
     fit-margin-bottom="0"
     inkscape:window-width="453"
     inkscape:window-height="379"
     inkscape:window-x="46"
     inkscape:window-y="21"
     inkscape:window-maximized="0" />
  <metadata
     id="metadata3310">
    <rdf:RDF>
      <cc:Work
         rdf:about="">
        <dc:format>image/svg+xml</dc:format>
        <dc:type
           rdf:resource="http://purl.org/dc/dcmitype/StillImage" />
        <dc:title></dc:title>
      </cc:Work>
    </rdf:RDF>
  </metadata>
  <g
     inkscape:label="Layer 1"
     inkscape:groupmode="layer"
     id="layer1"
     transform="translate(-239.17943,-533.22558)">
    <g
       transform="matrix(0.13333333,0,0,-0.13333333,-182.29656,1149.3589)"
       id="g3250">
      <path
         inkscape:connector-curvature="0"
         d="m 3615.12,3550.66 c -0.16,6.19 6.07,17.7 10.25,24.53 2.76,4.98 12.89,16.02 13.07,28.22 0.02,3.7 -1.08,7.59 -3.65,11 -4.06,5.4 -7.41,9.5 -9.97,12.5 2.2,1.86 3.7,3.95 3.7,6.39 0,8.7 15.11,12.82 0,32.97 -15.11,20.13 -37.54,32.5 -48.07,35.7 -10.53,3.19 -30.9,-6.64 -36.15,-11.92 -5.28,-5.26 -17.41,-9.16 -17.41,-20.59 0,-11.44 6.88,-17.39 0,-24.26 -6.86,-6.86 -12.81,-10.99 -21.97,-10.99 -9.15,0 -13.49,-1.15 -16.47,-4.12 -1.3,-1.29 -5.49,-21.97 10.07,-28.38 15.56,-6.4 19,7.1 26.09,9.17 7.09,2.05 7.77,0.9 19.22,5.48 11.44,4.58 13.28,11.91 25.17,11.91 11.91,0 14.2,-5.97 21.07,-9.16 6.86,-3.21 11.21,-7.55 15.56,-3.21 0.5,0.5 1.19,0.99 1.99,1.5 1.29,-1.17 2.71,-2.54 4.16,-4.04 4.29,-4.3 8.12,-10.12 7.89,-12.58 0,-0.47 -0.09,-0.8 -0.24,-1.15 -3.99,-8.13 -18.7,-25.95 -22.69,-36.66 -1.92,-5.45 -2.02,-10.14 -3.13,-12.35 -1.03,-1.89 -1.73,-3.14 -9.02,-3.36 -15.28,0 -31.21,0.22 -31.25,0.22 -1.74,0.02 -3.22,-1.29 -3.4,-3.04 -0.17,-1.73 1.01,-3.32 2.72,-3.66 0.02,0 6.21,-1.21 13.47,-3.83 7.28,-2.55 15.41,-6.74 18.81,-11.49 6.31,-8.59 14.73,-13.35 23.16,-13.35 h 0.06 c 3.83,0 7.6,1.03 10.98,3.03 6.49,4 11,7.77 11.26,13.53 0.01,2.63 -1.28,5.04 -3.17,6.89 -5.33,4.98 -12.47,9.91 -12.11,15.1"
         style="fill:#231f20;fill-opacity:1;fill-rule:nonzero;stroke:none"
         id="path180" />
      <path
         inkscape:connector-curvature="0"
         d="m 4252.34,3670.58 c 0.1,1.9 5.9,3.65 5.9,5.58 0,1.92 -5.8,3.67 -5.9,5.57 -0.09,1.92 5.51,4.24 5.32,6.13 -0.2,1.9 -6.14,3.07 -6.43,4.95 -0.29,1.89 5.04,4.76 4.67,6.64 -0.39,1.86 -6.43,2.42 -6.9,4.28 -0.48,1.83 4.54,5.24 3.97,7.07 -0.58,1.8 -6.64,1.74 -7.31,3.54 -0.65,1.79 3.99,5.68 3.23,7.43 -0.75,1.76 -6.77,1.08 -7.61,2.8 -0.85,1.7 3.37,6.06 2.45,7.71 -0.94,1.68 -6.85,0.39 -7.86,2 -1.01,1.62 2.74,6.38 1.65,7.94 -1.09,1.57 -6.86,-0.3 -8.02,1.19 -1.17,1.51 2.08,6.63 0.85,8.07 -1.25,1.45 -6.8,-1 -8.1,0.39 -1.31,1.37 1.4,6.8 0.02,8.11 -1.38,1.31 -6.64,-1.68 -8.1,-0.43 -1.44,1.23 0.72,6.89 -0.78,8.06 -1.5,1.16 -6.46,-2.34 -8.01,-1.25 -1.55,1.1 0.01,6.94 -1.6,7.95 -1.61,1 -6.18,-2.99 -7.84,-2.06 -1.67,0.94 -0.69,6.93 -2.4,7.75 -1.72,0.86 -5.84,-3.58 -7.6,-2.84 -1.74,0.75 -1.38,6.81 -3.17,7.47 -1.77,0.66 -5.45,-4.17 -7.26,-3.59 -1.82,0.58 -2.07,6.62 -3.93,7.1 -1.83,0.48 -4.99,-4.71 -6.86,-4.32 -1.86,0.38 -2.73,6.39 -4.62,6.67 -1.88,0.29 -4.49,-5.18 -6.39,-5 -1.89,0.2 -3.36,6.08 -5.27,6.17 -1.9,0.09 -3.94,-5.61 -5.86,-5.61 -1.92,0 -3.95,5.7 -5.85,5.61 -1.92,-0.09 -3.39,-5.97 -5.28,-6.17 -1.9,-0.18 -4.5,5.29 -6.39,5 -1.88,-0.28 -2.76,-6.29 -4.61,-6.67 -1.88,-0.39 -5.02,4.8 -6.86,4.32 -1.85,-0.48 -2.11,-6.52 -3.92,-7.1 -1.82,-0.58 -5.48,4.27 -7.27,3.59 -1.77,-0.65 -1.42,-6.72 -3.16,-7.47 -1.76,-0.74 -5.9,3.7 -7.6,2.84 -1.72,-0.82 -0.72,-6.8 -2.39,-7.74 -1.67,-0.92 -6.23,3.05 -7.84,2.05 -1.62,-0.99 -0.04,-6.85 -1.61,-7.95 -1.56,-1.08 -6.5,2.43 -8,1.26 -1.51,-1.16 0.64,-6.83 -0.79,-8.07 -1.45,-1.25 -6.72,1.75 -8.1,0.43 -1.39,-1.31 1.34,-6.72 0.02,-8.1 -1.31,-1.38 -6.86,1.07 -8.09,-0.38 -1.25,-1.45 2,-6.56 0.82,-8.07 -1.15,-1.5 -6.91,0.37 -8,-1.19 -1.1,-1.56 2.66,-6.33 1.66,-7.94 -1.02,-1.62 -6.94,-0.33 -7.87,-2 -0.92,-1.67 3.3,-6.01 2.46,-7.73 -0.86,-1.7 -6.88,-1.03 -7.64,-2.79 -0.74,-1.74 3.89,-5.65 3.23,-7.43 -0.66,-1.8 -6.73,-1.73 -7.29,-3.55 -0.57,-1.81 4.43,-5.24 3.96,-7.07 -0.48,-1.86 -6.51,-2.42 -6.89,-4.28 -0.39,-1.88 4.95,-4.75 4.67,-6.64 -0.3,-1.88 -6.25,-3.05 -6.44,-4.95 -0.19,-1.89 5.4,-4.22 5.31,-6.13 -0.09,-1.9 -5.89,-3.65 -5.89,-5.57 0,-1.93 5.8,-3.68 5.89,-5.58 0.09,-1.91 -5.5,-4.24 -5.31,-6.12 0.19,-1.92 6.14,-3.08 6.44,-4.95 0.28,-1.9 -5.06,-4.78 -4.67,-6.64 0.38,-1.88 6.41,-2.44 6.88,-4.28 0.48,-1.84 -4.53,-5.27 -3.95,-7.07 0.56,-1.82 6.62,-1.76 7.28,-3.56 0.67,-1.77 -3.96,-5.67 -3.22,-7.43 0.75,-1.74 6.78,-1.07 7.62,-2.78 0.84,-1.72 -3.38,-6.07 -2.45,-7.73 0.92,-1.68 6.85,-0.39 7.86,-2 1.01,-1.62 -2.74,-6.36 -1.66,-7.93 1.09,-1.58 6.85,0.3 8.02,-1.2 1.18,-1.51 -2.07,-6.63 -0.84,-8.07 1.24,-1.43 6.79,1.01 8.1,-0.37 1.32,-1.39 -1.4,-6.8 -0.03,-8.11 1.39,-1.31 6.65,1.68 8.11,0.43 1.43,-1.25 -0.73,-6.91 0.78,-8.07 1.5,-1.17 6.44,2.34 8.01,1.24 1.56,-1.08 -0.02,-6.93 1.6,-7.94 1.62,-1 6.18,2.97 7.85,2.05 1.66,-0.93 0.68,-6.91 2.39,-7.75 1.71,-0.84 5.84,3.59 7.6,2.83 1.74,-0.74 1.38,-6.79 3.16,-7.45 1.79,-0.66 5.45,4.16 7.28,3.59 1.81,-0.57 2.07,-6.63 3.9,-7.11 1.84,-0.47 5,4.7 6.88,4.32 1.85,-0.37 2.73,-6.37 4.62,-6.67 1.88,-0.28 4.48,5.2 6.39,5 1.88,-0.17 3.35,-6.07 5.27,-6.17 1.9,-0.09 3.93,5.63 5.85,5.63 1.92,0 3.96,-5.72 5.86,-5.63 1.91,0.1 3.38,6 5.27,6.17 1.92,0.2 4.51,-5.28 6.39,-5 1.89,0.3 2.76,6.3 4.62,6.67 1.86,0.38 5.03,-4.79 6.86,-4.32 1.86,0.48 2.11,6.54 3.91,7.11 1.82,0.57 5.49,-4.26 7.26,-3.6 1.8,0.67 1.43,6.7 3.19,7.46 1.75,0.75 5.88,-3.67 7.6,-2.83 1.69,0.84 0.72,6.82 2.38,7.74 1.68,0.93 6.23,-3.06 7.85,-2.06 1.61,1.02 0.04,6.88 1.59,7.95 1.57,1.1 6.52,-2.42 8.02,-1.25 1.5,1.18 -0.67,6.84 0.78,8.07 1.45,1.26 6.72,-1.74 8.11,-0.43 1.37,1.32 -1.35,6.74 -0.04,8.11 1.32,1.38 6.85,-1.06 8.1,0.37 1.24,1.44 -2.01,6.57 -0.84,8.07 1.17,1.52 6.94,-0.37 8.03,1.2 1.09,1.57 -2.66,6.31 -1.66,7.94 1,1.62 6.93,0.33 7.86,2.01 0.93,1.64 -3.29,6 -2.44,7.72 0.83,1.71 6.86,1.03 7.61,2.77 0.76,1.76 -3.88,5.68 -3.23,7.45 0.67,1.79 6.73,1.72 7.31,3.56 0.57,1.8 -4.45,5.23 -3.97,7.07 0.47,1.84 6.51,2.4 6.9,4.28 0.37,1.86 -4.96,4.74 -4.67,6.64 0.29,1.87 6.23,3.03 6.43,4.95 0.19,1.88 -5.41,4.21 -5.32,6.12 z m -108.27,98.11 c 17.16,-0.04 31.07,-3.21 31.07,-7.09 -0.02,-3.87 -13.95,-10.76 -31.12,-10.72 -17.16,0.03 -31.06,6.99 -31.05,10.86 0.01,3.88 13.92,6.99 31.1,6.95 z m -91.55,-95.74 c -3.69,1.21 -2.34,15.41 3,31.71 5.34,16.31 12.66,28.58 16.34,27.36 3.68,-1.2 5.93,-16.59 0.59,-32.88 -5.34,-16.34 -16.26,-27.39 -19.93,-26.19 z m 3.96,-25.41 c -3.95,12.14 4.15,25.67 18.08,30.19 13.94,4.53 28.43,-1.64 32.37,-13.79 3.95,-12.15 -4.14,-25.66 -18.08,-30.19 -13.94,-4.52 -28.43,1.64 -32.37,13.79 z m 61.8,-59.54 c -2.28,-3.12 -15.37,2.54 -29.24,12.66 -13.85,10.14 -23.25,20.87 -20.95,24 2.27,3.13 17.59,0.51 31.46,-9.6 13.87,-10.12 21.02,-23.93 18.73,-27.06 z m -31.29,127.99 c -8.61,11.86 -7.22,27.54 3.11,35.06 10.33,7.5 25.68,3.97 34.29,-7.88 8.62,-11.85 7.23,-27.55 -3.1,-35.06 -10.33,-7.49 -25.68,-3.97 -34.3,7.88 z m 57.52,-132.41 c -12.77,0 -23.12,11.88 -23.12,26.53 0,14.65 10.35,26.53 23.12,26.53 12.78,0 23.13,-11.88 23.13,-26.53 0,-14.65 -10.35,-26.53 -23.13,-26.53 z m 20.1,159.59 c 8.62,11.85 23.98,15.38 34.32,7.88 10.32,-7.52 11.71,-23.2 3.09,-35.06 -8.6,-11.85 -23.95,-15.37 -34.29,-7.87 -10.33,7.5 -11.73,23.2 -3.12,35.05 z m 33.7,-142.76 c -13.91,-10.05 -27.04,-15.65 -29.29,-12.52 -2.28,3.14 4.94,16.91 18.85,26.96 13.91,10.07 29.25,12.61 31.51,9.46 2.28,-3.14 -7.15,-13.85 -21.07,-23.9 z m 34.24,47.13 c -3.94,-12.13 -18.45,-18.31 -32.38,-13.79 -13.93,4.54 -22.03,18.05 -18.09,30.21 3.96,12.13 18.45,18.31 32.37,13.77 13.95,-4.52 22.03,-18.03 18.1,-30.19 z m 2.63,24.98 c -3.68,-1.19 -14.55,9.94 -19.82,26.27 -5.26,16.32 -2.94,31.71 0.75,32.89 3.69,1.19 10.94,-11.08 16.21,-27.43 5.27,-16.32 6.54,-30.54 2.86,-31.73"
         style="fill:#231f20;fill-opacity:1;fill-rule:nonzero;stroke:none"
         id="path182" />
      <path
         inkscape:connector-curvature="0"
         d="m 4224.02,3672.03 c 0.08,1.39 4.38,2.7 4.38,4.13 0,1.42 -4.3,2.72 -4.38,4.13 -0.06,1.42 4.09,3.16 3.95,4.55 -0.15,1.41 -4.56,2.29 -4.77,3.67 -0.21,1.41 3.75,3.54 3.46,4.91 -0.27,1.41 -4.76,1.82 -5.12,3.18 -0.35,1.36 3.37,3.9 2.95,5.25 -0.43,1.36 -4.92,1.31 -5.41,2.64 -0.51,1.33 2.95,4.22 2.38,5.51 -0.55,1.3 -5.01,0.82 -5.64,2.07 -0.62,1.29 2.5,4.49 1.82,5.74 -0.7,1.23 -5.08,0.29 -5.84,1.47 -0.75,1.2 2.04,4.74 1.23,5.9 -0.81,1.16 -5.08,-0.22 -5.95,0.89 -0.87,1.11 1.55,4.9 0.62,5.98 -0.92,1.07 -5.03,-0.75 -6.01,0.29 -0.97,1.02 1.04,5.04 0.03,6.02 -1.03,0.97 -4.94,-1.27 -6.02,-0.34 -1.06,0.93 0.54,5.13 -0.57,6 -1.13,0.86 -4.8,-1.74 -5.95,-0.93 -1.15,0.79 0.02,5.15 -1.18,5.89 -1.2,0.75 -4.59,-2.2 -5.83,-1.5 -1.23,0.67 -0.51,5.11 -1.78,5.74 -1.27,0.61 -4.34,-2.68 -5.62,-2.11 -1.31,0.55 -1.04,5.04 -2.37,5.53 -1.31,0.49 -4.04,-3.09 -5.39,-2.66 -1.35,0.42 -1.53,4.91 -2.91,5.27 -1.37,0.34 -3.7,-3.49 -5.08,-3.2 -1.38,0.28 -2.04,4.74 -3.43,4.94 -1.41,0.22 -3.33,-3.85 -4.75,-3.71 -1.41,0.16 -2.49,4.52 -3.91,4.58 -1.4,0.07 -2.93,-4.15 -4.35,-4.15 -1.42,0 -2.93,4.22 -4.34,4.15 -1.42,-0.06 -2.52,-4.42 -3.92,-4.58 -1.41,-0.14 -3.34,3.93 -4.73,3.71 -1.41,-0.2 -2.05,-4.66 -3.43,-4.94 -1.39,-0.29 -3.73,3.56 -5.1,3.2 -1.37,-0.35 -1.55,-4.85 -2.9,-5.27 -1.34,-0.43 -4.08,3.15 -5.39,2.66 -1.32,-0.47 -1.05,-4.98 -2.35,-5.53 -1.3,-0.55 -4.37,2.73 -5.63,2.11 -1.27,-0.63 -0.55,-5.07 -1.78,-5.74 -1.24,-0.7 -4.63,2.26 -5.82,1.51 -1.21,-0.75 -0.03,-5.09 -1.19,-5.9 -1.16,-0.8 -4.83,1.79 -5.94,0.93 -1.11,-0.86 0.49,-5.07 -0.59,-5.99 -1.07,-0.92 -4.98,1.3 -6.01,0.33 -1.02,-0.98 0.99,-4.98 0.02,-6.01 -0.98,-1.03 -5.08,0.77 -6,-0.3 -0.93,-1.08 1.48,-4.86 0.62,-5.98 -0.87,-1.11 -5.15,0.27 -5.95,-0.88 -0.82,-1.15 1.97,-4.7 1.22,-5.9 -0.74,-1.19 -5.14,-0.23 -5.83,-1.48 -0.68,-1.22 2.44,-4.45 1.82,-5.72 -0.63,-1.27 -5.1,-0.77 -5.65,-2.07 -0.57,-1.31 2.88,-4.2 2.38,-5.53 -0.48,-1.33 -4.98,-1.28 -5.41,-2.64 -0.43,-1.33 3.3,-3.89 2.95,-5.25 -0.37,-1.36 -4.84,-1.77 -5.13,-3.18 -0.28,-1.37 3.69,-3.5 3.47,-4.91 -0.22,-1.38 -4.63,-2.26 -4.76,-3.67 -0.15,-1.39 4,-3.14 3.92,-4.55 -0.06,-1.41 -4.36,-2.71 -4.36,-4.13 0,-1.43 4.3,-2.74 4.36,-4.13 0.08,-1.43 -4.07,-3.17 -3.92,-4.55 0.13,-1.43 4.54,-2.29 4.76,-3.69 0.22,-1.39 -3.75,-3.52 -3.47,-4.92 0.29,-1.39 4.76,-1.8 5.13,-3.16 0.35,-1.37 -3.38,-3.92 -2.95,-5.26 0.43,-1.34 4.92,-1.29 5.41,-2.62 0.49,-1.34 -2.95,-4.23 -2.38,-5.53 0.55,-1.29 5.02,-0.8 5.65,-2.07 0.62,-1.27 -2.51,-4.48 -1.83,-5.72 0.69,-1.23 5.09,-0.3 5.84,-1.5 0.75,-1.2 -2.04,-4.71 -1.23,-5.87 0.81,-1.17 5.09,0.22 5.95,-0.89 0.87,-1.13 -1.55,-4.91 -0.63,-6 0.92,-1.07 5.04,0.74 6.02,-0.27 0.96,-1.03 -1.05,-5.05 -0.03,-6.02 1.02,-0.98 4.93,1.25 6.01,0.32 1.07,-0.92 -0.53,-5.12 0.58,-5.98 1.12,-0.87 4.78,1.72 5.94,0.92 1.17,-0.81 0,-5.14 1.2,-5.9 1.2,-0.75 4.58,2.2 5.82,1.52 1.24,-0.68 0.51,-5.13 1.77,-5.74 1.27,-0.63 4.33,2.65 5.64,2.1 1.29,-0.56 1.03,-5.03 2.36,-5.54 1.31,-0.49 4.04,3.09 5.38,2.68 1.36,-0.43 1.54,-4.94 2.9,-5.29 1.37,-0.36 3.72,3.49 5.11,3.22 1.38,-0.29 2.02,-4.73 3.43,-4.97 1.39,-0.19 3.32,3.87 4.73,3.72 1.4,-0.14 2.5,-4.5 3.92,-4.57 1.41,-0.07 2.92,4.16 4.34,4.16 1.42,0 2.95,-4.23 4.35,-4.16 1.43,0.07 2.51,4.43 3.91,4.57 1.42,0.15 3.36,-3.91 4.75,-3.72 1.4,0.24 2.05,4.68 3.43,4.97 1.38,0.27 3.71,-3.58 5.08,-3.22 1.37,0.35 1.56,4.86 2.9,5.29 1.36,0.41 4.07,-3.17 5.4,-2.68 1.33,0.49 1.06,4.98 2.35,5.54 1.3,0.55 4.37,-2.73 5.64,-2.11 1.27,0.62 0.54,5.05 1.77,5.75 1.24,0.68 4.63,-2.27 5.83,-1.52 1.19,0.74 0.02,5.09 1.17,5.89 1.17,0.81 4.84,-1.79 5.96,-0.93 1.11,0.88 -0.49,5.08 0.58,5.99 1.08,0.92 4.98,-1.31 6.01,-0.33 1.02,0.99 -1,5.01 -0.03,6.02 0.99,1.03 5.09,-0.78 6.02,0.29 0.91,1.05 -1.49,4.86 -0.63,5.98 0.86,1.12 5.14,-0.28 5.96,0.88 0.8,1.17 -1.98,4.7 -1.23,5.9 0.74,1.19 5.14,0.25 5.84,1.5 0.67,1.22 -2.44,4.45 -1.82,5.72 0.62,1.27 5.08,0.76 5.64,2.06 0.56,1.3 -2.89,4.2 -2.38,5.53 0.49,1.32 4.98,1.27 5.41,2.63 0.42,1.34 -3.3,3.89 -2.95,5.25 0.36,1.37 4.85,1.78 5.12,3.17 0.29,1.4 -3.67,3.53 -3.46,4.92 0.21,1.4 4.62,2.26 4.77,3.69 0.14,1.38 -4.01,3.12 -3.95,4.55 z m -80.33,72.78 c 12.74,-0.02 23.05,-2.39 23.05,-5.26 -0.01,-2.87 -10.35,-7.98 -23.09,-7.96 -12.73,0.03 -23.05,5.2 -23.04,8.07 0,2.88 10.33,5.19 23.08,5.15 z m -67.95,-71.04 c -2.71,0.89 -1.72,11.44 2.24,23.54 3.96,12.1 9.4,21.18 12.12,20.3 2.73,-0.9 4.41,-12.32 0.45,-24.41 -3.97,-12.12 -12.07,-20.32 -14.81,-19.43 z m 2.95,-18.84 c -2.93,9.01 3.07,19.03 13.42,22.4 10.34,3.36 21.09,-1.22 24.03,-10.24 2.92,-9.01 -3.08,-19.04 -13.43,-22.39 -10.33,-3.38 -21.09,1.21 -24.02,10.23 z m 45.86,-44.18 c -1.7,-2.32 -11.41,1.88 -21.7,9.39 -10.27,7.51 -17.24,15.49 -15.55,17.81 1.7,2.32 13.07,0.37 23.34,-7.13 10.3,-7.5 15.61,-17.75 13.91,-20.07 z m -23.22,94.97 c -6.39,8.79 -5.35,20.44 2.31,26 7.67,5.57 19.06,2.94 25.45,-5.83 6.4,-8.82 5.35,-20.46 -2.31,-26.03 -7.66,-5.56 -19.07,-2.95 -25.45,5.86 z m 42.69,-98.26 c -9.48,0 -17.16,8.81 -17.16,19.69 0,10.87 7.68,19.68 17.16,19.68 9.48,0 17.15,-8.81 17.15,-19.68 0,-10.88 -7.67,-19.69 -17.15,-19.69 z m 14.91,118.43 c 6.4,8.77 17.79,11.4 25.46,5.83 7.66,-5.56 8.68,-17.21 2.3,-26 -6.39,-8.81 -17.78,-11.42 -25.46,-5.85 -7.64,5.56 -8.69,17.2 -2.3,26.02 z m 25,-105.93 c -10.32,-7.46 -20.06,-11.64 -21.73,-9.3 -1.69,2.32 3.68,12.54 13.99,20 10.31,7.47 21.7,9.36 23.38,7.03 1.69,-2.34 -5.31,-10.28 -15.64,-17.73 z m 25.41,34.97 c -2.93,-9.02 -13.69,-13.61 -24.03,-10.23 -10.33,3.35 -16.35,13.38 -13.42,22.41 2.93,9 13.68,13.58 24.03,10.22 10.34,-3.37 16.35,-13.39 13.42,-22.4 z m 1.95,18.53 c -2.74,-0.89 -10.8,7.36 -14.71,19.49 -3.9,12.12 -2.18,23.53 0.56,24.41 2.74,0.89 8.11,-8.23 12.04,-20.36 3.91,-12.12 4.84,-22.67 2.11,-23.54"
         style="fill:#231f20;fill-opacity:1;fill-rule:nonzero;stroke:none"
         id="path184" />
      <path
         inkscape:connector-curvature="0"
         d="m 4198.51,3673.32 c 0.04,0.96 3.01,1.86 3.01,2.84 0,0.97 -2.97,1.86 -3.01,2.84 -0.05,0.98 2.8,2.17 2.7,3.13 -0.1,0.96 -3.12,1.56 -3.26,2.5 -0.16,0.97 2.56,2.44 2.36,3.38 -0.19,0.97 -3.26,1.24 -3.5,2.18 -0.25,0.94 2.31,2.69 2.02,3.61 -0.29,0.93 -3.38,0.9 -3.72,1.8 -0.34,0.92 2.02,2.91 1.65,3.79 -0.39,0.9 -3.46,0.57 -3.89,1.43 -0.43,0.88 1.72,3.08 1.25,3.93 -0.48,0.85 -3.49,0.21 -4,1.02 -0.53,0.83 1.38,3.25 0.84,4.05 -0.56,0.79 -3.5,-0.16 -4.08,0.61 -0.61,0.76 1.05,3.36 0.42,4.1 -0.64,0.74 -3.46,-0.51 -4.14,0.2 -0.66,0.7 0.73,3.47 0.02,4.13 -0.7,0.67 -3.38,-0.86 -4.12,-0.21 -0.74,0.62 0.37,3.5 -0.4,4.1 -0.77,0.59 -3.29,-1.19 -4.08,-0.64 -0.79,0.55 0.01,3.54 -0.81,4.05 -0.82,0.52 -3.16,-1.51 -4,-1.04 -0.84,0.47 -0.36,3.52 -1.22,3.95 -0.87,0.42 -2.98,-1.85 -3.87,-1.46 -0.89,0.39 -0.72,3.47 -1.62,3.81 -0.91,0.33 -2.77,-2.13 -3.7,-1.83 -0.93,0.29 -1.06,3.37 -2,3.63 -0.93,0.23 -2.55,-2.4 -3.49,-2.21 -0.96,0.2 -1.4,3.26 -2.37,3.4 -0.95,0.14 -2.28,-2.64 -3.24,-2.56 -0.97,0.12 -1.72,3.11 -2.69,3.15 -0.96,0.05 -2.02,-2.86 -2.99,-2.86 -0.98,0 -2.01,2.91 -2.97,2.86 -0.98,-0.04 -1.74,-3.03 -2.7,-3.15 -0.97,-0.08 -2.3,2.7 -3.25,2.56 -0.96,-0.14 -1.4,-3.2 -2.35,-3.4 -0.96,-0.19 -2.56,2.45 -3.5,2.21 -0.95,-0.25 -1.07,-3.34 -1.99,-3.63 -0.93,-0.3 -2.8,2.16 -3.71,1.83 -0.91,-0.33 -0.72,-3.42 -1.61,-3.8 -0.89,-0.38 -3,1.88 -3.87,1.45 -0.87,-0.43 -0.37,-3.48 -1.22,-3.94 -0.85,-0.48 -3.18,1.55 -4,1.04 -0.82,-0.52 -0.02,-3.5 -0.81,-4.06 -0.8,-0.54 -3.31,1.23 -4.08,0.64 -0.77,-0.59 0.34,-3.48 -0.41,-4.1 -0.73,-0.65 -3.41,0.88 -4.12,0.22 -0.7,-0.67 0.69,-3.42 0.01,-4.13 -0.67,-0.71 -3.49,0.53 -4.13,-0.2 -0.62,-0.75 1.04,-3.34 0.43,-4.11 -0.59,-0.77 -3.53,0.19 -4.08,-0.61 -0.56,-0.79 1.35,-3.22 0.84,-4.04 -0.51,-0.82 -3.54,-0.17 -4.01,-1.02 -0.46,-0.84 1.68,-3.06 1.25,-3.94 -0.42,-0.86 -3.49,-0.52 -3.88,-1.41 -0.38,-0.9 1.99,-2.89 1.64,-3.81 -0.33,-0.9 -3.42,-0.87 -3.71,-1.8 -0.3,-0.91 2.26,-2.67 2.02,-3.61 -0.24,-0.94 -3.32,-1.21 -3.53,-2.18 -0.18,-0.94 2.54,-2.41 2.39,-3.38 -0.15,-0.94 -3.18,-1.54 -3.27,-2.52 -0.1,-0.94 2.76,-2.15 2.7,-3.11 -0.05,-0.98 -3,-1.87 -3,-2.84 0,-0.98 2.95,-1.88 3,-2.84 0.06,-0.98 -2.8,-2.17 -2.7,-3.13 0.09,-0.98 3.12,-1.56 3.27,-2.52 0.15,-0.97 -2.57,-2.43 -2.39,-3.38 0.21,-0.95 3.29,-1.24 3.52,-2.18 0.25,-0.93 -2.31,-2.68 -2.01,-3.6 0.29,-0.93 3.38,-0.9 3.71,-1.81 0.34,-0.91 -2.02,-2.9 -1.64,-3.79 0.39,-0.89 3.46,-0.55 3.88,-1.42 0.43,-0.88 -1.71,-3.08 -1.25,-3.94 0.47,-0.85 3.5,-0.19 4.01,-1.01 0.51,-0.83 -1.41,-3.24 -0.85,-4.04 0.56,-0.8 3.5,0.15 4.09,-0.61 0.59,-0.78 -1.05,-3.38 -0.43,-4.12 0.64,-0.73 3.46,0.51 4.12,-0.19 0.68,-0.71 -0.71,-3.46 -0.01,-4.13 0.71,-0.67 3.39,0.85 4.13,0.22 0.74,-0.65 -0.37,-3.52 0.39,-4.12 0.77,-0.59 3.3,1.2 4.09,0.65 0.8,-0.56 -0.02,-3.54 0.82,-4.05 0.82,-0.53 3.14,1.5 3.99,1.03 0.85,-0.47 0.35,-3.51 1.22,-3.94 0.87,-0.43 2.98,1.82 3.88,1.44 0.89,-0.39 0.69,-3.45 1.61,-3.8 0.91,-0.34 2.77,2.12 3.7,1.83 0.93,-0.28 1.05,-3.38 2,-3.61 0.93,-0.26 2.54,2.39 3.5,2.2 0.95,-0.2 1.39,-3.25 2.35,-3.41 0.95,-0.14 2.29,2.65 3.25,2.56 0.96,-0.1 1.72,-3.1 2.7,-3.15 0.96,-0.05 1.99,2.86 2.97,2.86 0.97,0 2.03,-2.91 2.99,-2.86 0.97,0.05 1.73,3.05 2.69,3.15 0.96,0.09 2.3,-2.7 3.24,-2.56 0.98,0.16 1.41,3.21 2.37,3.41 0.94,0.19 2.56,-2.46 3.49,-2.2 0.94,0.23 1.07,3.33 2,3.61 0.91,0.29 2.79,-2.17 3.7,-1.83 0.9,0.33 0.72,3.41 1.61,3.8 0.9,0.38 3.01,-1.87 3.88,-1.44 0.86,0.43 0.37,3.47 1.22,3.94 0.84,0.47 3.17,-1.56 3.99,-1.04 0.82,0.5 0.02,3.5 0.81,4.05 0.8,0.56 3.32,-1.23 4.08,-0.64 0.78,0.6 -0.33,3.47 0.41,4.12 0.73,0.62 3.42,-0.9 4.12,-0.24 0.71,0.69 -0.68,3.44 -0.02,4.14 0.68,0.71 3.5,-0.54 4.14,0.2 0.63,0.72 -1.03,3.34 -0.44,4.1 0.6,0.77 3.53,-0.19 4.09,0.61 0.55,0.8 -1.36,3.23 -0.83,4.06 0.51,0.81 3.52,0.16 4,1.01 0.46,0.84 -1.68,3.06 -1.25,3.93 0.43,0.88 3.5,0.53 3.88,1.43 0.38,0.88 -1.98,2.88 -1.64,3.79 0.34,0.91 3.43,0.87 3.72,1.81 0.29,0.92 -2.27,2.67 -2.02,3.6 0.24,0.93 3.31,1.23 3.5,2.18 0.2,0.95 -2.52,2.41 -2.36,3.38 0.14,0.96 3.16,1.54 3.26,2.52 0.1,0.96 -2.75,2.15 -2.7,3.13 z m -55.17,49.98 c 8.75,-0.02 15.83,-1.64 15.83,-3.61 -0.01,-1.98 -7.1,-5.49 -15.85,-5.48 -8.75,0.03 -15.83,3.58 -15.82,5.55 0,1.97 7.09,3.56 15.84,3.54 z m -46.64,-48.78 c -1.88,0.61 -1.19,7.85 1.52,16.16 2.73,8.3 6.46,14.55 8.32,13.93 1.88,-0.6 3.03,-8.44 0.32,-16.75 -2.73,-8.32 -8.3,-13.96 -10.16,-13.34 z m 2.01,-12.94 c -2.01,6.19 2.11,13.07 9.22,15.38 7.09,2.31 14.48,-0.84 16.5,-7.03 2.01,-6.18 -2.13,-13.08 -9.22,-15.36 -7.1,-2.33 -14.49,0.82 -16.5,7.01 z m 31.5,-30.33 c -1.17,-1.61 -7.85,1.29 -14.9,6.44 -7.07,5.16 -11.85,10.63 -10.68,12.23 1.15,1.59 8.96,0.25 16.03,-4.9 7.05,-5.14 10.71,-12.18 9.55,-13.77 z m -15.95,65.2 c -4.4,6.05 -3.69,14.03 1.58,17.86 5.27,3.83 13.09,2.02 17.48,-4 4.39,-6.06 3.67,-14.06 -1.58,-17.87 -5.26,-3.83 -13.09,-2.03 -17.48,4.01 z m 29.3,-67.47 c -6.5,0 -11.77,6.06 -11.77,13.54 0,7.46 5.27,13.49 11.77,13.49 6.52,0 11.79,-6.03 11.79,-13.49 0,-7.48 -5.27,-13.54 -11.79,-13.54 z m 10.25,81.33 c 4.39,6.02 12.21,7.83 17.48,4 5.25,-3.83 5.97,-11.81 1.58,-17.86 -4.39,-6.04 -12.21,-7.84 -17.48,-4.01 -5.25,3.81 -5.96,11.81 -1.58,17.87 z m 17.17,-72.75 c -7.09,-5.12 -13.77,-7.99 -14.93,-6.37 -1.16,1.59 2.52,8.61 9.61,13.73 7.09,5.12 14.91,6.42 16.06,4.82 1.15,-1.6 -3.65,-7.06 -10.74,-12.18 z m 17.44,24.02 c -2.01,-6.19 -9.4,-9.34 -16.49,-7.01 -7.11,2.28 -11.23,9.18 -9.22,15.37 2.02,6.18 9.4,9.33 16.5,7.02 7.1,-2.31 11.22,-9.19 9.21,-15.38 z m 1.35,12.73 c -1.89,-0.61 -7.43,5.05 -10.1,13.37 -2.69,8.33 -1.51,16.16 0.37,16.77 1.89,0.6 5.59,-5.66 8.26,-13.99 2.7,-8.32 3.34,-15.56 1.47,-16.15"
         style="fill:#231f20;fill-opacity:1;fill-rule:nonzero;stroke:none"
         id="path186" />
      <path
         inkscape:connector-curvature="0"
         d="m 4410.14,3654.1 v -4.16 h -4.69 v 1.59 h -3.42 v -1.59 h -10.58 c 0.29,1.29 0.5,2.6 0.56,3.96 0.49,11.98 -8.83,22.06 -20.79,22.55 l -210.38,14.33 c -11.97,0.49 -22.07,-8.83 -22.55,-20.8 -0.48,-11.98 8.82,-22.05 20.79,-22.54 l 146.94,-10 v -28.32 h 10 v 4.18 h 6.62 v -1.6 h 3.41 v 1.6 h 28.19 c 2.69,-1.31 5.66,-2.09 8.85,-2.09 3.18,0 6.15,0.78 8.84,2.09 h 30.1 v -1.6 h 3.42 v 1.6 h 4.69 v -4.18 h 10 v 44.98 h -10"
         style="fill:#231f20;fill-opacity:1;fill-rule:nonzero;stroke:none"
         id="path188" />
      <path
         inkscape:connector-curvature="0"
         d="m 4128.67,3810.25 -8.98,19.28 c -16.71,-0.09 -29.85,-10.07 -41.39,-22.19 -10.08,-1.67 -24.94,-3.87 -33.44,-3.87 l -0.29,-14.59 c 0,0 5.25,0.32 9.57,-3.52 -3.87,-4.5 2.18,2.06 -1.68,-1.36 -20.14,-18.01 -32.57,-45.12 -32.8,-45.55 -5.38,-10.13 -2.36,-15.35 -2.36,-15.35 1.76,-1.25 3.81,-1.85 5.81,-1.85 3.2,0 6.33,1.5 8.31,4.31 0.01,0 2.72,3.88 7.93,10.04 15.44,18.83 52.79,55.01 89.32,54.4 5.61,0 10.14,4.53 10.14,10.11 0,5.62 -4.53,10.14 -10.14,10.14"
         style="fill:#231f20;fill-opacity:1;fill-rule:nonzero;stroke:none"
         id="path190" />
      <path
         inkscape:connector-curvature="0"
         d="m 4968.73,3840.21 c -56.11,0 -101.61,-45.49 -101.61,-101.6 0,-56.13 45.5,-101.62 101.61,-101.62 56.11,0 101.62,45.49 101.62,101.62 0,56.11 -45.51,101.6 -101.62,101.6 z m 94.81,-105.3 -12.91,-11.2 c -1.27,-1.07 -3.17,-0.99 -4.26,0.19 -1.14,1.2 -1.14,3.13 0.04,4.3 l 11.95,12.26 c 1.8,1.93 4.69,2.29 6.21,0.67 1.52,-1.64 1,-4.47 -1.03,-6.22 z m -0.86,22.82 c 1.77,-1.34 1.75,-4.23 0.05,-6.31 l -10.78,-13.26 c -1.03,-1.27 -2.93,-1.52 -4.2,-0.55 -1.34,0.98 -1.68,2.86 -0.7,4.24 l 9.61,14.14 c 1.47,2.23 4.24,3.07 6.02,1.74 z m -4.76,16.02 c 1.99,-1 2.45,-3.85 1.17,-6.2 l -8.33,-14.94 c -0.8,-1.42 -2.62,-2 -4.06,-1.25 -1.47,0.73 -2.13,2.52 -1.41,4.03 l 7.01,15.62 c 1.06,2.42 3.64,3.75 5.62,2.74 z m -7.45,14.96 c 2.12,-0.65 3.08,-3.38 2.23,-5.91 l -5.6,-16.16 c -0.56,-1.54 -2.24,-2.43 -3.79,-1.94 -1.58,0.46 -2.53,2.12 -2.1,3.73 l 4.2,16.61 c 0.63,2.57 2.93,4.31 5.06,3.67 z m -20.79,-39.4 -44.56,11.96 c -10.73,2.86 -11.62,9.76 -2.01,15.3 l 18.02,10.4 c 9.61,5.55 22,2.24 27.53,-7.36 l 10.42,-18.03 c 5.55,-9.61 1.31,-15.12 -9.4,-12.27 z m 4.54,-42.12 -10.41,-18.03 c -5.57,-9.61 -12.44,-8.7 -15.31,2.01 l -11.95,44.58 c -2.88,10.71 2.66,14.93 12.25,9.39 l 18.02,-10.42 c 9.62,-5.54 12.95,-17.93 7.4,-27.53 z m -126.45,20.68 44.59,-11.96 c 10.71,-2.86 11.6,-9.75 2,-15.29 l -18.02,-10.41 c -9.61,-5.54 -22,-2.22 -27.53,7.38 l -10.43,18.03 c -5.54,9.61 -1.31,15.12 9.39,12.25 z m -4.52,42.11 10.42,18.05 c 5.54,9.61 12.42,8.69 15.31,-2.02 l 11.94,-44.57 c 2.86,-10.7 -2.66,-14.94 -12.27,-9.39 l -18.01,10.41 c -9.62,5.55 -12.93,17.93 -7.39,27.52 z m 39.78,0.06 v 20.8 c 0,11.09 9.06,20.16 20.15,20.16 l 20.84,0.01 c 11.08,0 13.73,-6.42 5.9,-14.28 l -32.63,-32.61 c -7.84,-7.85 -14.26,-5.18 -14.26,5.92 z m 4.51,-89.59 32.64,32.63 c 7.84,7.84 14.26,5.18 14.26,-5.91 v -20.83 c 0,-11.08 -9.08,-20.15 -20.16,-20.15 h -20.82 c -11.1,0 -13.75,6.42 -5.92,14.26 z m 88.64,117.19 c 0.17,2.65 2.13,4.76 4.35,4.5 2.2,-0.27 3.61,-2.79 3.2,-5.43 l -2.71,-16.88 c -0.26,-1.63 -1.78,-2.78 -3.38,-2.57 -1.62,0.18 -2.87,1.64 -2.72,3.3 z m -7.78,16.01 c 2.21,0.12 4.05,-2.13 4.1,-4.8 l 0.27,-17.1 c 0,-1.64 -1.29,-3.04 -2.89,-3.11 -1.64,-0.1 -3.12,1.12 -3.25,2.78 l -1.73,17.03 c -0.29,2.64 1.27,5.06 3.5,5.2 z m -13.94,9.22 c 2.15,0.49 4.36,-1.39 4.89,-4.01 l 3.23,-16.79 c 0.29,-1.62 -0.74,-3.21 -2.33,-3.58 -1.58,-0.39 -3.26,0.58 -3.67,2.19 l -4.67,16.46 c -0.74,2.55 0.39,5.22 2.55,5.73 z m -15.34,6.66 c 2.05,0.86 4.53,-0.58 5.5,-3.08 l 6.1,-15.97 c 0.61,-1.57 -0.15,-3.32 -1.64,-3.96 -1.5,-0.64 -3.29,0.02 -4.02,1.5 l -7.45,15.41 c -1.16,2.41 -0.52,5.22 1.51,6.1 z m -16.24,3.88 c 1.87,1.22 4.56,0.24 5.94,-2.07 l 8.78,-14.66 c 0.87,-1.43 0.42,-3.29 -0.94,-4.18 -1.36,-0.9 -3.23,-0.57 -4.21,0.78 l -10.01,13.88 c -1.58,2.17 -1.4,5.04 0.44,6.25 z m -16.68,1.02 c 1.61,1.52 4.44,1.02 6.2,-1 l 11.21,-12.94 c 1.1,-1.24 0.98,-3.15 -0.2,-4.26 -1.18,-1.12 -3.1,-1.12 -4.29,0.04 l -12.26,11.93 c -1.92,1.86 -2.27,4.73 -0.66,6.23 z m -16.6,-1.89 c 1.32,1.77 4.21,1.76 6.3,0.09 l 13.26,-10.79 c 1.29,-1.04 1.52,-2.94 0.55,-4.25 -0.98,-1.29 -2.85,-1.63 -4.23,-0.69 l -14.15,9.6 c -2.22,1.52 -3.05,4.27 -1.73,6.04 z m -16.03,-4.75 c 1,1.99 3.85,2.47 6.18,1.17 l 14.94,-8.31 c 1.46,-0.81 2.03,-2.64 1.29,-4.08 -0.75,-1.46 -2.54,-2.1 -4.05,-1.43 l -15.6,7.01 c -2.46,1.11 -3.74,3.67 -2.76,5.64 z m -14.96,-7.46 c 0.65,2.13 3.36,3.1 5.9,2.22 l 16.15,-5.58 c 1.57,-0.54 2.44,-2.25 1.98,-3.8 -0.48,-1.56 -2.15,-2.51 -3.75,-2.1 l -16.59,4.19 c -2.59,0.66 -4.31,2.95 -3.69,5.07 z m -8,-6.72 16.87,-2.72 c 1.64,-0.24 2.79,-1.77 2.59,-3.39 -0.19,-1.62 -1.65,-2.84 -3.29,-2.72 l -17.09,1.25 c -2.66,0.2 -4.76,2.17 -4.51,4.36 0.28,2.2 2.77,3.64 5.43,3.22 z m -12.15,-11.23 17.09,0.27 c 1.66,0.02 3.06,-1.29 3.14,-2.91 0.1,-1.63 -1.13,-3.08 -2.78,-3.25 l -17.02,-1.73 c -2.67,-0.27 -5.07,1.3 -5.22,3.52 -0.1,2.19 2.11,4.05 4.79,4.1 z m -10.01,-13.18 16.78,3.25 c 1.65,0.31 3.25,-0.75 3.61,-2.32 0.36,-1.58 -0.58,-3.25 -2.18,-3.7 l -16.46,-4.65 c -2.58,-0.73 -5.22,0.4 -5.74,2.55 -0.5,2.15 1.36,4.38 3.99,4.87 z m -7.57,-14.7 15.98,6.1 c 1.56,0.6 3.32,-0.17 3.94,-1.65 0.65,-1.5 -0.02,-3.3 -1.5,-4.01 l -15.41,-7.44 c -2.41,-1.19 -5.21,-0.53 -6.1,1.5 -0.86,2.03 0.59,4.54 3.09,5.5 z m -4.88,-15.81 14.64,8.79 c 1.43,0.84 3.31,0.41 4.18,-0.93 0.9,-1.37 0.57,-3.27 -0.78,-4.22 l -13.88,-10.01 c -2.17,-1.58 -5.04,-1.42 -6.25,0.43 -1.2,1.86 -0.22,4.57 2.09,5.94 z m -2.09,-16.41 12.91,11.19 c 1.25,1.1 3.17,0.99 4.27,-0.17 1.14,-1.21 1.14,-3.13 -0.04,-4.3 l -11.92,-12.27 c -1.87,-1.93 -4.73,-2.27 -6.24,-0.66 -1.5,1.62 -1,4.45 1.02,6.21 z m 0.88,-22.81 c -1.78,1.33 -1.78,4.22 -0.09,6.29 l 10.79,13.27 c 1.04,1.29 2.96,1.53 4.22,0.56 1.33,-0.98 1.66,-2.88 0.72,-4.23 l -9.63,-14.15 c -1.5,-2.23 -4.24,-3.06 -6.01,-1.74 z m 4.74,-16.02 c -1.95,1 -2.47,3.84 -1.18,6.18 l 8.33,14.94 c 0.79,1.46 2.64,2.01 4.06,1.27 1.49,-0.73 2.13,-2.54 1.45,-4.03 l -7.03,-15.61 c -1.1,-2.45 -3.66,-3.74 -5.63,-2.75 z m 7.45,-14.96 c -2.1,0.65 -3.09,3.37 -2.21,5.9 l 5.59,16.14 c 0.54,1.58 2.26,2.44 3.79,1.97 1.57,-0.46 2.53,-2.13 2.11,-3.73 l -4.19,-16.59 c -0.66,-2.61 -2.97,-4.31 -5.09,-3.69 z m 14.31,-8.92 c -0.18,-2.67 -2.15,-4.77 -4.36,-4.52 -2.18,0.28 -3.64,2.79 -3.22,5.43 l 2.71,16.88 c 0.26,1.64 1.79,2.79 3.38,2.58 1.65,-0.18 2.88,-1.65 2.74,-3.3 z m 7.77,-16.02 c -2.21,-0.12 -4.06,2.11 -4.12,4.79 l -0.26,17.09 c -0.03,1.66 1.28,3.06 2.89,3.14 1.65,0.1 3.11,-1.13 3.26,-2.78 l 1.74,-17.04 c 0.26,-2.65 -1.3,-5.06 -3.51,-5.2 z m 13.94,-9.22 c -2.16,-0.5 -4.37,1.37 -4.89,3.99 l -3.22,16.79 c -0.32,1.63 0.74,3.23 2.3,3.6 1.6,0.39 3.26,-0.58 3.68,-2.17 l 4.69,-16.47 c 0.73,-2.57 -0.42,-5.22 -2.56,-5.74 z m 15.32,-6.66 c -2.03,-0.86 -4.53,0.6 -5.49,3.09 l -6.1,15.96 c -0.6,1.56 0.15,3.32 1.64,3.94 1.51,0.66 3.31,0 4.01,-1.5 l 7.46,-15.39 c 1.18,-2.42 0.52,-5.22 -1.52,-6.1 z m 16.25,-3.88 c -1.86,-1.22 -4.56,-0.22 -5.94,2.07 l -8.79,14.67 c -0.86,1.42 -0.43,3.27 0.93,4.15 1.39,0.92 3.27,0.59 4.23,-0.77 l 10.01,-13.89 c 1.55,-2.15 1.42,-5.02 -0.44,-6.23 z m 16.68,-1.03 c -1.63,-1.51 -4.45,-1.01 -6.21,1.03 l -11.2,12.92 c -1.09,1.24 -0.99,3.15 0.19,4.25 1.2,1.13 3.12,1.13 4.29,-0.05 l 12.28,-11.93 c 1.91,-1.85 2.27,-4.71 0.65,-6.22 z m 16.6,1.89 c -1.33,-1.78 -4.22,-1.74 -6.31,-0.08 l -13.26,10.8 c -1.29,1.03 -1.51,2.92 -0.55,4.22 0.99,1.32 2.88,1.66 4.24,0.7 l 14.16,-9.63 c 2.21,-1.48 3.06,-4.24 1.72,-6.01 z m 16.03,4.75 c -1.01,-1.98 -3.86,-2.45 -6.18,-1.16 l -14.97,8.32 c -1.43,0.8 -1.99,2.6 -1.27,4.06 0.75,1.47 2.56,2.13 4.05,1.43 l 15.62,-7.01 c 2.42,-1.09 3.75,-3.66 2.75,-5.64 z m 14.97,7.45 c -0.67,-2.11 -3.38,-3.08 -5.92,-2.21 l -16.15,5.59 c -1.57,0.55 -2.42,2.23 -1.96,3.79 0.47,1.58 2.13,2.54 3.73,2.11 l 16.61,-4.2 c 2.57,-0.64 4.31,-2.95 3.69,-5.08 z m 8.01,6.74 -16.9,2.7 c -1.64,0.27 -2.78,1.78 -2.58,3.39 0.18,1.64 1.64,2.86 3.3,2.74 l 17.09,-1.27 c 2.64,-0.18 4.76,-2.14 4.5,-4.34 -0.27,-2.22 -2.8,-3.64 -5.41,-3.22 z m 12.12,11.23 -17.1,-0.27 c -1.63,-0.02 -3.03,1.27 -3.11,2.9 -0.12,1.65 1.11,3.11 2.77,3.25 l 17.05,1.74 c 2.64,0.28 5.04,-1.3 5.18,-3.52 0.12,-2.22 -2.11,-4.04 -4.79,-4.1 z m 10.02,13.17 -16.8,-3.23 c -1.63,-0.31 -3.22,0.71 -3.57,2.31 -0.41,1.6 0.55,3.26 2.17,3.69 l 16.47,4.65 c 2.55,0.76 5.21,-0.39 5.73,-2.54 0.5,-2.18 -1.39,-4.37 -4,-4.88 z m 7.56,14.7 -15.99,-6.09 c -1.53,-0.59 -3.28,0.15 -3.9,1.64 -0.67,1.52 -0.03,3.32 1.49,4.02 l 15.41,7.44 c 2.4,1.19 5.2,0.53 6.09,-1.51 0.87,-2.05 -0.61,-4.53 -3.1,-5.5 z m 4.9,15.8 -14.68,-8.78 c -1.41,-0.83 -3.26,-0.42 -4.14,0.94 -0.91,1.38 -0.6,3.26 0.78,4.22 l 13.88,10.01 c 2.13,1.58 5.04,1.42 6.25,-0.43 1.22,-1.87 0.2,-4.57 -2.09,-5.96"
         style="fill:#231f20;fill-opacity:1;fill-rule:nonzero;stroke:none"
         id="path192" />
      <path
         inkscape:connector-curvature="0"
         d="m 3594.3,3840.27 c -56.12,0 -101.62,-45.49 -101.62,-101.6 0,-56.13 45.5,-101.62 101.62,-101.62 56.11,0 101.61,45.49 101.61,101.62 0,56.11 -45.5,101.6 -101.61,101.6 z m 94.8,-105.31 -12.93,-11.19 c -1.25,-1.07 -3.14,-0.99 -4.24,0.19 -1.15,1.2 -1.15,3.13 0.04,4.3 l 11.94,12.26 c 1.81,1.93 4.7,2.29 6.23,0.67 1.51,-1.64 0.97,-4.47 -1.04,-6.23 z m -0.86,22.83 c 1.78,-1.34 1.74,-4.23 0.06,-6.31 l -10.78,-13.26 c -1.04,-1.27 -2.93,-1.52 -4.22,-0.55 -1.33,0.98 -1.68,2.86 -0.7,4.24 l 9.63,14.14 c 1.46,2.23 4.23,3.07 6.01,1.74 z m -4.76,16.01 c 1.99,-0.99 2.46,-3.84 1.17,-6.19 l -8.32,-14.94 c -0.81,-1.42 -2.62,-2 -4.06,-1.25 -1.47,0.72 -2.13,2.52 -1.43,4.03 l 7.03,15.62 c 1.06,2.42 3.63,3.75 5.61,2.73 z m -7.44,14.97 c 2.1,-0.65 3.08,-3.38 2.21,-5.91 l -5.59,-16.16 c -0.56,-1.54 -2.25,-2.43 -3.79,-1.94 -1.58,0.46 -2.54,2.12 -2.1,3.73 l 4.21,16.6 c 0.61,2.58 2.93,4.32 5.06,3.68 z m -20.79,-39.4 -44.57,11.95 c -10.72,2.86 -11.62,9.77 -2.02,15.31 l 18.03,10.4 c 9.61,5.55 21.99,2.24 27.53,-7.37 l 10.43,-18.02 c 5.54,-9.61 1.31,-15.12 -9.4,-12.27 z m 4.52,-42.12 -10.41,-18.04 c -5.55,-9.6 -12.43,-8.69 -15.31,2.02 l -11.93,44.57 c -2.88,10.72 2.65,14.94 12.24,9.4 l 18.02,-10.41 c 9.61,-5.55 12.93,-17.94 7.39,-27.54 z m -126.43,20.68 44.57,-11.96 c 10.72,-2.86 11.62,-9.76 2.01,-15.29 l -18.03,-10.41 c -9.6,-5.54 -21.99,-2.22 -27.51,7.38 l -10.43,18.03 c -5.55,9.61 -1.32,15.12 9.39,12.25 z m -4.52,42.11 10.4,18.05 c 5.55,9.61 12.44,8.7 15.31,-2.01 l 11.95,-44.58 c 2.87,-10.7 -2.65,-14.94 -12.26,-9.39 l -18.02,10.41 c -9.62,5.55 -12.92,17.93 -7.38,27.52 z m 39.77,0.05 v 20.82 c 0,11.08 9.07,20.15 20.16,20.15 l 20.83,0.01 c 11.08,0 13.74,-6.43 5.9,-14.28 l -32.63,-32.61 c -7.83,-7.85 -14.26,-5.18 -14.26,5.91 z m 4.52,-89.58 32.63,32.63 c 7.83,7.84 14.26,5.18 14.26,-5.91 v -20.82 c 0,-11.09 -9.07,-20.16 -20.16,-20.16 h -20.82 c -11.09,0 -13.75,6.42 -5.91,14.26 z m 88.64,117.19 c 0.15,2.65 2.12,4.76 4.34,4.51 2.19,-0.28 3.62,-2.8 3.21,-5.44 l -2.72,-16.88 c -0.25,-1.62 -1.78,-2.78 -3.38,-2.57 -1.64,0.18 -2.87,1.64 -2.72,3.3 z m -7.79,16.01 c 2.21,0.11 4.05,-2.13 4.11,-4.8 l 0.27,-17.1 c 0,-1.64 -1.29,-3.04 -2.9,-3.11 -1.63,-0.1 -3.12,1.12 -3.25,2.79 l -1.72,17.02 c -0.3,2.64 1.27,5.06 3.49,5.2 z m -13.94,9.22 c 2.15,0.49 4.36,-1.39 4.88,-4.01 l 3.24,-16.79 c 0.29,-1.62 -0.74,-3.21 -2.32,-3.58 -1.58,-0.39 -3.26,0.58 -3.67,2.2 l -4.68,16.45 c -0.73,2.56 0.38,5.22 2.55,5.73 z m -15.33,6.66 c 2.05,0.86 4.53,-0.57 5.49,-3.08 l 6.11,-15.97 c 0.6,-1.56 -0.16,-3.32 -1.66,-3.96 -1.5,-0.65 -3.28,0.02 -4.02,1.51 l -7.43,15.4 c -1.17,2.41 -0.52,5.22 1.51,6.1 z m -16.24,3.89 c 1.85,1.21 4.55,0.23 5.93,-2.08 l 8.78,-14.67 c 0.86,-1.42 0.43,-3.28 -0.93,-4.17 -1.37,-0.9 -3.25,-0.56 -4.22,0.78 l -10,13.88 c -1.58,2.17 -1.42,5.04 0.44,6.26 z m -16.68,1.02 c 1.61,1.51 4.44,1 6.2,-1.01 l 11.19,-12.94 c 1.09,-1.24 1,-3.15 -0.18,-4.26 -1.21,-1.12 -3.1,-1.12 -4.3,0.03 l -12.26,11.94 c -1.93,1.86 -2.26,4.72 -0.65,6.24 z m -16.61,-1.9 c 1.32,1.77 4.22,1.76 6.3,0.09 l 13.27,-10.79 c 1.29,-1.04 1.52,-2.94 0.54,-4.25 -0.97,-1.29 -2.86,-1.63 -4.23,-0.69 l -14.15,9.6 c -2.22,1.52 -3.05,4.26 -1.73,6.04 z m -16.02,-4.75 c 1,1.99 3.84,2.47 6.17,1.17 l 14.94,-8.3 c 1.47,-0.82 2.02,-2.65 1.28,-4.09 -0.73,-1.46 -2.53,-2.1 -4.03,-1.43 l -15.61,7.02 c -2.46,1.1 -3.75,3.66 -2.75,5.63 z m -14.96,-7.46 c 0.64,2.13 3.35,3.1 5.9,2.22 l 16.15,-5.58 c 1.56,-0.54 2.42,-2.25 1.95,-3.8 -0.47,-1.57 -2.13,-2.51 -3.73,-2.1 l -16.58,4.2 c -2.6,0.65 -4.32,2.95 -3.69,5.06 z m -8.02,-6.72 16.89,-2.72 c 1.64,-0.24 2.79,-1.77 2.59,-3.4 -0.21,-1.61 -1.66,-2.83 -3.32,-2.71 l -17.07,1.25 c -2.66,0.2 -4.76,2.17 -4.51,4.36 0.28,2.2 2.78,3.64 5.42,3.22 z m -12.14,-11.23 17.09,0.27 c 1.66,0.02 3.07,-1.29 3.15,-2.9 0.1,-1.64 -1.13,-3.1 -2.78,-3.26 l -17.04,-1.73 c -2.66,-0.27 -5.05,1.3 -5.2,3.52 -0.12,2.19 2.11,4.05 4.78,4.1 z m -10,-13.18 16.78,3.24 c 1.62,0.32 3.24,-0.75 3.59,-2.31 0.38,-1.58 -0.58,-3.25 -2.16,-3.69 l -16.48,-4.66 c -2.57,-0.73 -5.2,0.4 -5.73,2.55 -0.49,2.15 1.36,4.38 4,4.87 z m -7.57,-14.71 15.97,6.11 c 1.54,0.59 3.32,-0.17 3.94,-1.65 0.64,-1.51 -0.01,-3.3 -1.5,-4.01 l -15.41,-7.45 c -2.42,-1.18 -5.2,-0.52 -6.09,1.51 -0.86,2.03 0.59,4.54 3.09,5.49 z m -4.9,-15.8 14.66,8.79 c 1.43,0.84 3.3,0.41 4.17,-0.93 0.91,-1.37 0.58,-3.27 -0.78,-4.22 l -13.88,-10.01 c -2.17,-1.58 -5.04,-1.42 -6.26,0.43 -1.2,1.85 -0.2,4.57 2.09,5.94 z m -2.08,-16.41 12.91,11.19 c 1.26,1.1 3.18,0.99 4.27,-0.17 1.12,-1.21 1.12,-3.13 -0.04,-4.3 l -11.92,-12.27 c -1.87,-1.93 -4.72,-2.27 -6.24,-0.66 -1.51,1.62 -1.01,4.45 1.02,6.21 z m 0.88,-22.81 c -1.78,1.33 -1.78,4.22 -0.1,6.29 l 10.8,13.28 c 1.04,1.28 2.95,1.52 4.22,0.54 1.33,-0.97 1.66,-2.87 0.71,-4.23 l -9.61,-14.14 c -1.51,-2.23 -4.26,-3.06 -6.02,-1.74 z m 4.75,-16.02 c -1.97,1 -2.48,3.85 -1.18,6.18 l 8.33,14.94 c 0.79,1.46 2.63,2.01 4.06,1.28 1.46,-0.74 2.13,-2.55 1.42,-4.04 l -7.01,-15.62 c -1.09,-2.45 -3.65,-3.73 -5.62,-2.74 z m 7.45,-14.96 c -2.11,0.65 -3.1,3.37 -2.23,5.9 l 5.6,16.14 c 0.54,1.57 2.26,2.44 3.79,1.97 1.58,-0.47 2.54,-2.13 2.11,-3.74 l -4.19,-16.58 c -0.66,-2.61 -2.96,-4.31 -5.08,-3.69 z m 14.31,-8.92 c -0.2,-2.67 -2.17,-4.77 -4.36,-4.52 -2.21,0.28 -3.65,2.78 -3.22,5.43 l 2.7,16.88 c 0.27,1.64 1.8,2.79 3.39,2.58 1.63,-0.18 2.87,-1.66 2.74,-3.3 z m 7.76,-16.02 c -2.22,-0.12 -4.07,2.11 -4.11,4.78 l -0.26,17.09 c -0.04,1.67 1.27,3.07 2.89,3.15 1.63,0.1 3.1,-1.13 3.25,-2.77 l 1.74,-17.05 c 0.27,-2.65 -1.31,-5.06 -3.51,-5.2 z m 13.93,-9.22 c -2.14,-0.5 -4.37,1.37 -4.88,3.99 l -3.22,16.79 c -0.32,1.63 0.72,3.23 2.3,3.6 1.61,0.39 3.27,-0.58 3.69,-2.17 l 4.67,-16.47 c 0.73,-2.58 -0.4,-5.22 -2.56,-5.74 z m 15.34,-6.66 c -2.05,-0.86 -4.53,0.59 -5.51,3.09 l -6.09,15.97 c -0.59,1.55 0.15,3.31 1.64,3.93 1.5,0.66 3.3,0 4.02,-1.49 l 7.45,-15.41 c 1.16,-2.41 0.52,-5.21 -1.51,-6.09 z m 16.25,-3.89 c -1.87,-1.21 -4.57,-0.21 -5.96,2.08 l -8.77,14.67 c -0.86,1.42 -0.43,3.27 0.93,4.15 1.37,0.92 3.27,0.59 4.21,-0.77 l 10.02,-13.89 c 1.56,-2.15 1.42,-5.03 -0.43,-6.24 z m 16.68,-1.01 c -1.63,-1.53 -4.46,-1.02 -6.22,1.01 l -11.21,12.93 c -1.07,1.23 -0.97,3.15 0.21,4.25 1.19,1.13 3.11,1.13 4.29,-0.04 l 12.27,-11.94 c 1.91,-1.85 2.26,-4.71 0.66,-6.21 z m 16.6,1.88 c -1.35,-1.78 -4.22,-1.75 -6.31,-0.08 l -13.26,10.8 c -1.29,1.03 -1.53,2.91 -0.55,4.21 0.98,1.33 2.87,1.66 4.22,0.71 l 14.16,-9.62 c 2.23,-1.49 3.07,-4.25 1.74,-6.02 z m 16.02,4.75 c -1,-1.98 -3.85,-2.45 -6.2,-1.16 l -14.94,8.32 c -1.44,0.8 -1.99,2.6 -1.27,4.06 0.74,1.47 2.54,2.13 4.04,1.43 l 15.63,-7.02 c 2.42,-1.08 3.75,-3.65 2.74,-5.63 z m 14.95,7.45 c -0.64,-2.11 -3.37,-3.09 -5.89,-2.21 l -16.16,5.59 c -1.56,0.55 -2.44,2.23 -1.95,3.79 0.46,1.58 2.13,2.54 3.73,2.11 l 16.6,-4.2 c 2.58,-0.65 4.32,-2.94 3.67,-5.08 z m 8.02,6.74 -16.89,2.7 c -1.63,0.27 -2.79,1.78 -2.57,3.39 0.18,1.64 1.64,2.86 3.3,2.74 l 17.07,-1.27 c 2.66,-0.18 4.77,-2.14 4.51,-4.34 -0.27,-2.23 -2.79,-3.64 -5.42,-3.22 z m 12.14,11.23 -17.11,-0.27 c -1.64,-0.02 -3.05,1.27 -3.12,2.91 -0.11,1.64 1.13,3.1 2.79,3.24 l 17.03,1.74 c 2.64,0.28 5.06,-1.3 5.2,-3.52 0.11,-2.22 -2.12,-4.04 -4.79,-4.1 z m 10,13.17 -16.8,-3.23 c -1.62,-0.31 -3.2,0.71 -3.57,2.31 -0.39,1.6 0.57,3.26 2.19,3.69 l 16.46,4.64 c 2.56,0.77 5.21,-0.39 5.72,-2.53 0.5,-2.17 -1.38,-4.37 -4,-4.88 z m 7.58,14.7 -15.99,-6.09 c -1.53,-0.59 -3.29,0.15 -3.91,1.64 -0.67,1.52 -0.02,3.32 1.5,4.02 l 15.41,7.44 c 2.38,1.19 5.2,0.53 6.07,-1.51 0.88,-2.05 -0.6,-4.54 -3.08,-5.5 z m 4.9,15.8 -14.69,-8.77 c -1.4,-0.84 -3.26,-0.43 -4.14,0.93 -0.91,1.38 -0.59,3.26 0.78,4.22 l 13.89,10.01 c 2.13,1.58 5.02,1.42 6.24,-0.43 1.22,-1.87 0.2,-4.57 -2.08,-5.96"
         style="fill:#231f20;fill-opacity:1;fill-rule:nonzero;stroke:none"
         id="path194" />
      <path
         inkscape:connector-curvature="0"
         d="m 3663.44,3738.67 c 0,-1.76 -5.61,-3.28 -5.74,-5 -0.14,-1.74 5.16,-4.12 4.9,-5.82 -0.28,-1.73 -6.05,-2.37 -6.45,-4.05 -0.41,-1.69 4.46,-4.86 3.92,-6.5 -0.54,-1.68 -6.34,-1.39 -7,-2.98 -0.67,-1.61 3.63,-5.52 2.85,-7.06 -0.8,-1.56 -6.49,-0.35 -7.38,-1.83 -0.92,-1.49 2.71,-6.01 1.69,-7.43 -1.03,-1.4 -6.44,0.68 -7.57,-0.64 -1.14,-1.33 1.75,-6.37 0.52,-7.6 -1.23,-1.22 -6.27,1.66 -7.58,0.54 -1.32,-1.14 0.75,-6.57 -0.66,-7.58 -1.4,-1.02 -5.94,2.61 -7.42,1.71 -1.47,-0.91 -0.29,-6.59 -1.83,-7.38 -1.54,-0.78 -5.44,3.51 -7.06,2.84 -1.58,-0.67 -1.31,-6.47 -2.95,-7 -1.66,-0.54 -4.82,4.31 -6.53,3.91 -1.67,-0.39 -2.31,-6.18 -4.03,-6.43 -1.71,-0.28 -4.08,5.02 -5.83,4.88 -1.72,-0.14 -3.24,-5.73 -4.99,-5.73 -1.76,0 -3.28,5.59 -5,5.73 -1.74,0.14 -4.12,-5.16 -5.83,-4.88 -1.72,0.25 -2.36,6.03 -4.04,6.43 -1.7,0.4 -4.87,-4.44 -6.52,-3.91 -1.66,0.53 -1.37,6.34 -2.97,7.01 -1.61,0.66 -5.51,-3.63 -7.05,-2.85 -1.54,0.79 -0.36,6.48 -1.84,7.39 -1.48,0.91 -6.01,-2.74 -7.42,-1.71 -1.38,1.02 0.67,6.45 -0.64,7.58 -1.33,1.13 -6.37,-1.76 -7.6,-0.53 -1.22,1.23 1.66,6.27 0.54,7.58 -1.13,1.33 -6.55,-0.74 -7.59,0.68 -1.02,1.39 2.62,5.9 1.72,7.39 -0.92,1.49 -6.6,0.29 -7.38,1.83 -0.79,1.56 3.51,5.45 2.84,7.06 -0.66,1.59 -6.46,1.32 -7,2.98 -0.53,1.64 4.32,4.81 3.91,6.5 -0.4,1.68 -6.17,2.33 -6.43,4.05 -0.28,1.7 5.02,4.08 4.89,5.82 -0.13,1.74 -5.73,3.24 -5.73,5 0,1.74 5.6,3.28 5.73,5 0.13,1.74 -5.17,4.12 -4.89,5.82 0.26,1.72 6.03,2.36 6.43,4.04 0.41,1.7 -4.44,4.86 -3.91,6.51 0.54,1.66 6.34,1.38 7,2.98 0.67,1.61 -3.63,5.51 -2.84,7.05 0.8,1.56 6.47,0.36 7.38,1.84 0.91,1.48 -2.72,6 -1.7,7.4 1.02,1.42 6.44,-0.65 7.58,0.67 1.12,1.32 -1.76,6.35 -0.53,7.59 1.23,1.22 6.26,-1.66 7.59,-0.54 1.32,1.14 -0.75,6.56 0.65,7.58 1.41,1.02 5.94,-2.61 7.41,-1.7 1.48,0.91 0.29,6.58 1.84,7.38 1.53,0.78 5.44,-3.52 7.05,-2.84 1.6,0.65 1.31,6.45 2.97,7 1.65,0.53 4.81,-4.33 6.51,-3.93 1.68,0.4 2.32,6.18 4.05,6.45 1.71,0.27 4.08,-5.03 5.82,-4.9 1.72,0.14 3.24,5.74 5,5.74 1.75,0 3.27,-5.6 4.99,-5.74 1.75,-0.13 4.12,5.17 5.83,4.9 1.72,-0.27 2.36,-6.04 4.04,-6.45 1.7,-0.4 4.87,4.46 6.52,3.93 1.66,-0.55 1.37,-6.35 2.97,-7 1.6,-0.68 5.51,3.62 7.05,2.84 1.55,-0.8 0.35,-6.47 1.84,-7.38 1.48,-0.91 6.01,2.72 7.41,1.7 1.4,-1.02 -0.66,-6.45 0.66,-7.58 1.32,-1.14 6.36,1.76 7.58,0.52 1.22,-1.23 -1.66,-6.26 -0.53,-7.59 1.13,-1.31 6.56,0.76 7.59,-0.65 1.01,-1.4 -2.62,-5.93 -1.71,-7.41 0.91,-1.49 6.58,-0.28 7.38,-1.84 0.78,-1.55 -3.52,-5.45 -2.85,-7.06 0.66,-1.58 6.46,-1.3 7,-2.96 0.54,-1.65 -4.33,-4.83 -3.92,-6.51 0.4,-1.68 6.17,-2.32 6.45,-4.04 0.27,-1.7 -5.04,-4.08 -4.9,-5.82 0.13,-1.73 5.74,-3.26 5.74,-5"
         style="fill:#231f20;fill-opacity:1;fill-rule:nonzero;stroke:none"
         id="path196" />
      <path
         inkscape:connector-curvature="0"
         d="m 4496.78,4111.4 c 3.06,3.23 1.91,3.64 2.66,8.69 v 0 c 0.72,4.77 3.42,11.34 14.08,22.99 v 0 c 21.38,23.34 75.33,68.23 214.48,163.44 v 0 c 103.29,70.61 135.01,119.93 134.81,152.5 v 0 c 0.07,27.38 -21.94,44.81 -44.83,55.55 v 0 c -22.77,10.66 -45.58,14.22 -45.64,14.22 v 0 l 0.8,5.01 c -0.07,-0.27 93.93,-13.78 94.75,-74.78 v 0 c -0.18,-35.98 -33.44,-85.68 -137.05,-156.68 v 0 c -208.58,-142.48 -225.27,-172.79 -226.39,-183.01 v 0 c -0.5,-3.16 0.43,-7.13 -4.08,-11.51 v 0 l -3.59,3.58 v 0"
         style="fill:#231f20;fill-opacity:1;fill-rule:nonzero;stroke:none"
         id="path198" />
      <path
         inkscape:connector-curvature="0"
         d="m 4971.66,3753.53 -96.82,281.61 c 1.23,19.13 1.86,43.86 -1.5,58.78 -6.08,26.94 -8.69,62.11 -8.69,68.19 0,6.09 3.48,25.19 -15.21,25.19 -18.67,0 -14.32,-20.41 -14.32,-31.7 0,-6.25 -1.36,-11.89 -3.42,-15.74 l -27.9,81.13 c 1.34,1.04 2.66,2.15 3.91,3.4 0,0 -11.87,46.32 -28.39,62.85 -9.25,9.26 -15.69,13.11 -21.59,15.45 -7.36,13.33 -15.8,29.55 -20.29,38.27 l -22.21,65.99 c -1.54,12.11 -4.19,27 -8.45,35.9 1.79,2.05 2.54,4.94 1.54,7.65 l -0.47,1.27 c -1.39,3.77 -5.46,5.71 -9.26,4.64 l -6.47,19.23 c 2.96,7.68 9.46,16.19 23.23,22.68 3.09,1.46 5.93,2.73 8.63,3.93 6.21,0.79 12.41,-0.57 15.31,-3.48 4.66,-4.65 9.3,0 12.26,2.96 2.96,2.97 8.88,0 13.53,4.65 4.65,4.66 6.35,10.59 23.9,8.67 17.56,-1.9 13.32,13.33 15.86,22.21 2.54,8.89 -17.34,17.35 -30.04,24.11 -12.67,6.77 -27.91,17.34 -27.91,17.34 -14.37,18.61 -28.94,21.62 -28.94,21.62 l -37.09,18.44 -0.02,-0.06 c -2.86,1.42 -6.04,2.29 -9.45,2.29 -11.78,0 -21.35,-9.56 -21.35,-21.36 0,-9.38 6.09,-17.26 14.48,-20.13 l -0.03,-0.07 15.63,-7.81 c 0.01,-0.01 0.02,-0.01 0.04,-0.01 l 14.81,-7.42 c 5.03,-3.75 10.79,-10.29 12.64,-16.9 2.37,-8.5 -4.47,-6.54 -7.59,-9.68 -3.13,-3.12 -5.82,5.81 -5.82,9.39 0,3.56 0,12.21 -9.23,12.21 -9.23,0 -11.62,-11.62 -11.62,-16.98 0,-5.37 -2.98,-9.24 -2.98,-9.24 -27.3,-1.46 -36.39,-11.79 -38.79,-15.5 -2.81,-1.86 -4.67,-5.02 -4.67,-8.64 0,-5.73 4.64,-10.37 10.36,-10.37 1.46,0 2.85,0.3 4.1,0.85 l 3.96,-11.77 c -4.24,-1.3 -7.36,-5.19 -7.36,-9.86 0,-5.73 4.65,-10.37 10.37,-10.37 1.26,0 2.46,0.25 3.57,0.67 l 0.04,-0.12 2.03,-27.52 0.04,-0.49 c -3.22,-1.8 -4.86,-5.64 -3.53,-9.22 l 0.47,-1.26 c 0.77,-2.09 2.38,-3.6 4.31,-4.38 l 0.98,-11.81 -636.93,-259.97 -17.91,58.64 c 5.21,1.77 9.59,3.23 11.34,3.78 5.63,1.74 3.94,4.36 1.12,13.5 -3.54,11.42 -7.72,7.3 -7.72,7.3 l -14.65,-4.41 -79.79,261.99 -2.04,-0.62 c -1.97,3.42 -5.04,6.21 -9.94,6.97 -11.74,1.83 -14.46,3.67 -12.05,6.44 14.53,3.28 39.33,10.37 60.8,23.9 11.11,7.02 19.98,12.45 26.89,16.57 7.62,-0.45 12.84,-1.35 13.91,-2.41 3.68,-3.68 13.64,-7.1 20.74,-5.73 7.1,1.36 39.04,-1.78 44.9,-1.78 5.88,0 18.99,18.98 -8.32,34 -27.3,15.01 -66.89,10.09 -129.4,4.91 -62.51,-5.19 -164.07,3 -164.07,3 -44.77,7.91 -49.15,-9.01 -49.15,-17.75 0,-8.73 9.01,-16.91 14.75,-16.91 5.72,0 6.82,-3.56 13.65,-10.38 6.82,-6.83 22.93,-10.39 31.66,-10.39 2.37,0 5.34,0.18 8.87,0.24 l 24.1,-24.1 29.29,1.64 c 0.76,-7.38 4.38,-13.99 14.46,-15.72 16.66,-2.86 28.17,-8.2 35.14,-13.5 l 76.83,-252.21 -3.04,-0.94 0.19,-0.64 c -15.37,-6.58 -22.01,-13.4 -20.3,-18.46 1.69,-5 10.97,-6.64 26.86,-2.98 l 19.51,-63.89 -418.69,-399.75 15.32,-11.23 0.34,0.31 -7.26,-8.96 77.88,-9.73 c 62.73,-5.41 451.03,-45.43 451.03,-45.43 l -18.39,44.34 c -84.36,9.73 -443.47,25.95 -443.47,25.95 l -25.19,25.22 379.18,344.05 135.02,-442.12 27.99,8.55 16.25,-13.53 533.24,640.92 c 5.12,-2.87 8.73,-12.32 7.21,-18.66 -1.8,-7.54 6.11,-23.34 6.11,-23.34 0,0 32.69,8.25 55.67,-39.52 0,0 1.34,-0.08 3.55,-0.02 l 48.33,-140.6 c -5.03,-2.02 -11.31,-5.71 -9.66,-11.18 l 6.05,-20.02 c 0,0 4.72,-1.48 9.8,-4.89 l 0.53,-2.02 105.34,-308.6 c 0,0 17.15,-31.56 45.35,-31.56 28.22,0 28.22,26.45 28.22,37.03 0,9.79 -16.65,23.11 -34.04,25.02 z m -1079.02,776.9 c 0.54,1.66 3.41,4.14 5.97,6.75 20,7.6 45.33,10.23 64.18,10.41 -5.21,-3.19 -11.15,-6.86 -17.93,-11.15 -15.39,-9.74 -33.01,-16.1 -46.75,-19.99 -0.64,-0.18 -1.22,-0.33 -1.84,-0.5 0.39,1.18 0.43,2.44 -0.1,3.83 -2.17,5.73 -4.9,6.54 -3.53,10.65 z m -66.35,-22.03 -26.62,-1.49 -16.96,16.95 c 8.7,-0.6 19.77,-2.46 33.75,-7.63 3.66,-1.35 7.15,-2.2 10.55,-2.66 -0.31,-1.66 -0.56,-3.4 -0.72,-5.17 z m 794.06,-205.64 -255.74,-307.39 -2.21,1.72 c -2.48,1.94 -6.11,1.49 -8.06,-1 l -2,-2.53 c -1.93,-2.49 -1.5,-6.11 1,-8.06 l 1.85,-1.45 -42.53,-51.12 -1.45,1.12 c -2.49,1.94 -6.12,1.49 -8.07,-0.99 l -1.99,-2.54 c -1.94,-2.48 -1.5,-6.11 0.99,-8.06 l 1.1,-0.85 -155.95,-187.45 -33.58,109.95 1.69,0.61 c 2.97,1.08 4.52,4.38 3.45,7.35 l -1.1,3.03 c -1.08,2.98 -4.39,4.53 -7.36,3.45 l -0.98,-0.35 -19.93,65.25 1.46,0.52 c 2.97,1.07 4.51,4.39 3.44,7.35 l -1.1,3.03 c -1.07,2.98 -4.39,4.52 -7.36,3.45 l -0.74,-0.26 -48.03,157.29 552.17,225.38 c 13.04,5.14 60.68,22.09 31.03,-17.45"
         style="fill:#231f20;fill-opacity:1;fill-rule:nonzero;stroke:none"
         id="path200" />
      <path
         inkscape:connector-curvature="0"
         d="m 4842.18,4105.02 c 0,75.39 2,154.65 8.02,222.85 5.44,61.94 8.8,109.02 8.8,143.53 -0.02,26.96 -2.03,46.25 -6.93,59.19 -4.77,12.94 -13.46,19.82 -25.12,19.69 -11.07,-0.05 -24.47,-5.47 -41.34,-15.03 l 2.5,-4.41 c 16.54,9.44 29.51,14.41 38.84,14.37 9.64,-0.14 15.71,-4.61 20.37,-16.42 4.52,-11.8 6.63,-30.69 6.61,-57.39 0,-34.19 -3.34,-81.2 -8.79,-143.1 -6.04,-68.42 -8.03,-147.81 -8.03,-223.28 0,-150.88 8.01,-286.06 8.01,-286.09 l 5.09,0.3 h -0.01 c -0.02,0.28 -8.02,135.08 -8.02,285.79 z m 4.48,-348.45 h 1.69 v 52.63 h -1.69 v -52.63"
         style="fill:#231f20;fill-opacity:1;fill-rule:nonzero;stroke:none"
         id="path202" />
      <path
         inkscape:connector-curvature="0"
         d="m 4793.59,4531.95 -2.21,-4.58 c 47.74,-23.02 63.37,-46.49 63.37,-68.7 0.17,-29.88 -29.05,-60.14 -53.93,-84.88 -41.44,-41.49 -94.77,-42.06 -97.19,-42.05 -0.25,0.01 -0.45,-0.01 -0.6,-0.04 -132.03,-30.47 -308.28,-88.17 -382.34,-118.38 -73.6,-30.07 -267.45,-87.25 -409.28,-201.96 -70.32,-56.86 -146.27,-86.29 -204.64,-101.5 -58.37,-15.22 -98.93,-16.13 -99.02,-16.18 l 0.13,-5.06 c 0.27,0.03 164.62,3.93 306.71,118.8 140.8,113.9 333.93,170.99 408.02,201.21 73.58,30.03 249.71,87.69 381.24,118.07 4.88,0.03 58.28,1.34 100.56,43.51 24.73,24.88 55.21,55.27 55.39,88.46 0,24.98 -17.83,50.06 -66.21,73.28 z m -1240.35,-679.63 1.06,-1.31 47.71,38.44 -1.05,1.32 -47.72,-38.45"
         style="fill:#231f20;fill-opacity:1;fill-rule:nonzero;stroke:none"
         id="path204" />
      <path
         inkscape:connector-curvature="0"
         d="m 4026.97,3728.12 -2.07,6.69 2.61,6.96 -7.49,6.3 c -0.05,2.86 -0.1,5.72 -0.22,8.57 l 6.45,9.24 -2.66,6.48 2,7.16 -7.77,5.44 c -0.31,2.97 -0.75,5.9 -1.12,8.84 l 5.53,9.61 -3.21,6.23 1.36,7.31 -8.09,4.69 c -0.59,3.02 -1.24,6.04 -1.89,9.04 l 4.55,9.78 -3.74,5.92 0.72,7.41 -8.38,3.92 c -0.87,3.07 -1.69,6.17 -2.63,9.22 l 3.55,9.8 -4.24,5.59 0.07,7.43 -8.54,3.14 c -1.17,3.01 -2.33,6.03 -3.57,9.04 l 2.69,10.03 -4.73,5.18 -0.56,7.43 -8.62,2.32 c -1.44,2.97 -2.99,5.88 -4.51,8.8 l 1.8,10.17 -5.16,4.76 -1.22,7.34 -8.66,1.55 c -1.74,2.86 -3.57,5.65 -5.36,8.47 l 0.89,10.21 -5.56,4.29 -1.85,7.2 -8.77,0.79 c -2,2.73 -4.02,5.44 -6.07,8.12 l -0.01,10.1 -5.91,3.79 -2.46,7.02 -8.77,0.02 c -2.26,2.61 -4.49,5.22 -6.81,7.76 l -0.88,9.86 -6.21,3.27 -3.07,6.77 -8.62,-0.74 c -2.53,2.42 -5.03,4.87 -7.61,7.25 l -1.7,9.63 -6.47,2.71 -3.65,6.49 -8.36,-1.47 c -2.77,2.23 -5.56,4.42 -8.4,6.58 l -2.52,9.4 -6.67,2.13 -4.2,6.14 -7.98,-2.14 c -3.02,2.04 -6.13,3.95 -9.19,5.9 l -3.3,9.02 -6.84,1.55 -4.73,5.74 -7.71,-2.8 c -3.23,1.78 -6.5,3.5 -9.79,5.21 l -4,8.54 -6.94,0.96 -5.2,5.3 -7.41,-3.44 c -3.43,1.52 -6.86,3.04 -10.35,4.49 l -4.62,7.99 -7,0.34 -5.65,4.83 -7.01,-4.05 c -3.61,1.24 -7.21,2.53 -10.86,3.68 l -5.21,7.41 -7,-0.26 -6.05,4.32 -6.55,-4.59 c -3.7,0.91 -7.41,1.75 -11.15,2.58 l -5.91,7.01 -6.94,-0.88 -6.4,3.79 -6.1,-5.1 c -3.74,0.57 -7.54,1.01 -11.33,1.5 l -6.54,6.53 -6.83,-1.49 -6.71,3.21 -5.72,-5.71 c -3.77,0.26 -7.55,0.49 -11.36,0.65 l -7.04,5.9 -6.69,-2.08 -6.96,2.62 -5.21,-6.21 c -3.81,-0.07 -7.64,-0.12 -11.43,-0.28 l -7.46,5.2 -6.48,-2.63 -7.17,1.99 -4.55,-6.5 c -3.83,-0.4 -7.61,-0.94 -11.41,-1.45 l -7.94,4.58 -6.22,-3.21 -7.32,1.36 -3.95,-6.85 c -3.79,-0.74 -7.56,-1.58 -11.31,-2.42 l -8.24,3.84 -5.94,-3.73 -7.4,0.71 -3.36,-7.22 c -3.73,-1.06 -7.44,-2.14 -11.13,-3.31 l -8.46,3.07 -5.56,-4.24 -7.44,0.08 -2.74,-7.5 c -3.6,-1.41 -7.23,-2.78 -10.79,-4.26 l -8.68,2.32 -5.2,-4.72 -7.4,-0.56 -2.07,-7.73 c -3.43,-1.68 -6.81,-3.43 -10.18,-5.2 l -9.06,1.59 -4.75,-5.15 -7.34,-1.21 -1.38,-7.88 c -3.23,-1.95 -6.36,-4.04 -9.54,-6.09 l -9.31,0.82 -4.29,-5.53 -7.21,-1.87 -0.71,-8.16 c -2.98,-2.18 -5.9,-4.43 -8.83,-6.69 h -9.47 l -3.77,-5.93 -7.01,-2.43 v -8.35 c -2.76,-2.41 -5.49,-4.81 -8.17,-7.29 l -9.5,-0.82 -3.25,-6.25 -6.76,-3.02 0.73,-8.43 c -2.5,-2.61 -5.06,-5.18 -7.5,-7.87 l -9.4,-1.65 -2.67,-6.49 -6.49,-3.62 1.47,-8.35 c -2.23,-2.78 -4.45,-5.57 -6.61,-8.4 l -9.39,-2.52 -2.11,-6.71 -6.15,-4.17 2.19,-8.19 c -1.96,-2.92 -3.83,-5.92 -5.72,-8.9 l -9.27,-3.38 -1.52,-6.86 -5.75,-4.7 2.9,-8.01 c -1.68,-3.07 -3.24,-6.18 -4.86,-9.29 l -9.01,-4.2 -0.92,-6.96 -5.32,-5.2 3.66,-7.86 c -1.38,-3.15 -2.75,-6.31 -4.06,-9.51 l -8.65,-4.99 -0.3,-7.02 -4.86,-5.63 4.41,-7.64 c -1.09,-3.24 -2.28,-6.44 -3.29,-9.71 l -8.19,-5.72 0.32,-7.02 -4.34,-6.05 5.12,-7.3 c -0.78,-3.21 -1.53,-6.43 -2.23,-9.65 l -7.93,-6.64 0.92,-6.97 -3.79,-6.39 5.77,-6.88 c -0.48,-3.17 -0.81,-6.38 -1.22,-9.58 l -7.51,-7.49 1.53,-6.85 -3.24,-6.72 6.56,-6.54 c -0.19,-3.11 -0.37,-6.21 -0.48,-9.33 l -6.94,-8.23 2.13,-6.7 -2.64,-6.97 7.25,-6.08 c 0.08,-3.04 0.1,-6.09 0.23,-9.12 l -6.23,-8.89 2.7,-6.48 -2.01,-7.17 7.76,-5.43 c 0.32,-2.97 0.73,-5.92 1.12,-8.86 l -5.54,-9.59 3.24,-6.24 -1.39,-7.32 8.25,-4.75 c 0.58,-2.89 1.26,-5.75 1.9,-8.63 l -4.72,-10.12 3.77,-5.93 -0.74,-7.41 8.79,-4.1 c 0.82,-2.77 1.61,-5.56 2.48,-8.33 l -3.83,-10.51 4.28,-5.57 -0.1,-7.44 9.27,-3.36 c 1.02,-2.63 2.02,-5.28 3.09,-7.87 l -2.94,-10.98 4.75,-5.18 0.56,-7.42 9.63,-2.57 c 1.21,-2.43 2.46,-4.85 3.71,-7.26 l -2.03,-11.48 5.18,-4.72 1.2,-7.37 9.9,-1.73 c 1.37,-2.25 2.86,-4.44 4.28,-6.68 l -1.05,-11.83 5.58,-4.25 1.84,-7.24 10.19,-0.86 c 1.52,-2.07 3.09,-4.09 4.65,-6.12 v -12.03 l 5.92,-3.77 2.46,-7.03 10.24,0.02 0.26,-0.08 c 1.63,-1.83 3.23,-3.71 4.89,-5.52 l 1.06,-12.07 6.23,-3.23 3.06,-6.79 10.2,0.9 0.45,-0.06 c 1.72,-1.65 3.4,-3.31 5.16,-4.92 l 2.11,-12.08 6.5,-2.67 3.63,-6.5 10.08,1.79 0.55,-0.04 c 1.79,-1.42 3.59,-2.85 5.42,-4.26 l 3.21,-12.01 6.7,-2.11 4.2,-6.15 9.88,2.64 0.55,0.02 c 1.89,-1.25 3.83,-2.46 5.74,-3.69 l 4.29,-11.76 6.84,-1.53 4.71,-5.76 9.63,3.51 0.49,0.05 c 2,-1.1 4.06,-2.09 6.09,-3.15 l 5.29,-11.36 6.96,-0.92 5.19,-5.33 9.28,4.32 0.66,0.13 c 2.07,-0.89 4.12,-1.82 6.19,-2.68 l 6.25,-10.82 7.01,-0.3 5.64,-4.87 8.87,5.13 0.76,0.23 c 2.08,-0.7 4.14,-1.45 6.24,-2.11 l 7.2,-10.3 7.02,0.31 6.03,-4.36 8.4,5.88 0.8,0.32 c 2.05,-0.49 4.12,-0.96 6.2,-1.42 l 8.2,-9.8 6.96,0.92 6.4,-3.81 7.85,6.59 0.76,0.39 c 2.06,-0.32 4.15,-0.51 6.21,-0.8 l 9.12,-9.12 6.86,1.52 6.71,-3.23 7.25,7.25 0.89,0.55 c 2.04,-0.14 4.07,-0.3 6.12,-0.39 l 9.85,-8.26 6.7,2.11 6.95,-2.63 6.6,7.85 0.94,0.69 c 1.97,0.06 3.96,0.08 5.93,0.16 l 10.63,-7.44 6.49,2.68 7.16,-2.02 5.88,8.4 0.79,0.68 c 2,0.23 3.98,0.51 5.97,0.76 l 11.25,-6.48 6.23,3.24 7.31,-1.38 5.13,8.86 0.61,0.65 c 2.06,0.41 4.09,0.88 6.13,1.33 l 11.64,-5.41 5.94,3.75 7.4,-0.73 4.34,9.28 0.58,0.74 c 2.04,0.6 4.11,1.12 6.14,1.74 l 11.89,-4.32 5.57,4.27 7.44,-0.08 3.51,9.61 0.51,0.78 c 1.96,0.78 3.92,1.52 5.86,2.32 l 12.33,-3.29 5.18,4.73 7.41,0.57 2.67,9.88 0.41,0.76 c 1.88,0.94 3.75,1.92 5.62,2.88 l 12.61,-2.2 4.76,5.16 7.33,1.22 1.8,10.07 0.27,0.67 c 1.85,1.12 3.63,2.34 5.44,3.48 l 12.73,-1.09 4.29,5.56 7.19,1.83 0.92,10.21 0.24,0.75 c 1.75,1.28 3.47,2.58 5.19,3.89 l 12.67,0.02 3.79,5.89 7.02,2.47 0.01,10.25 0.18,0.79 c 1.66,1.44 3.36,2.84 4.98,4.32 l 12.46,1.1 3.26,6.21 6.77,3.07 -0.87,10.19 0.1,0.75 c 1.54,1.6 3.09,3.18 4.59,4.8 l 12.32,2.21 2.72,6.44 6.47,3.65 -1.76,10.09 0.03,0.57 c 1.43,1.79 2.84,3.58 4.24,5.38 l 12.01,3.25 2.13,6.67 6.14,4.19 -2.64,9.89 v 0.3 c 1.33,1.99 2.59,4.04 3.89,6.07 l 11.54,4.22 1.54,6.82 5.74,4.73 -3.48,9.62 -0.01,0.12 c 1.21,2.21 2.36,4.43 3.53,6.66 l 10.91,5.12 0.95,6.93 5.31,5.2 -4.31,9.29 v 0.02 c 1.05,2.39 2.16,4.77 3.18,7.17 l 10.16,5.9 0.35,7 4.82,5.64 -5.06,8.79 c 0.86,2.53 1.76,5.04 2.56,7.59 l 9.55,6.71 -0.26,7 4.32,6.05 -5.72,8.18 c 0.65,2.63 1.23,5.28 1.82,7.92 l 8.92,7.5 -0.89,6.95 3.78,6.41 -6.3,7.52 c 0.42,2.73 0.72,5.49 1.09,8.24 l 8.14,8.19 -1.48,6.84 3.2,6.72 -6.97,6.98 c 0.2,2.81 0.43,5.63 0.57,8.45 z m -423.79,-26.13 1.02,1.83 -2.95,1.64 -1.04,-1.85 -3.39,1.87 -1.64,-2.96 3.41,-1.87 -2.65,-4.79 -4.88,5.18 1.56,1.44 -2.31,2.48 -1.56,-1.46 -2.66,2.82 -2.48,-2.3 2.67,-2.83 -3.99,-3.74 -3.03,6.42 1.91,0.91 -1.42,3.07 -1.94,-0.91 -1.66,3.52 -3.04,-1.44 1.65,-3.52 -4.97,-2.32 -0.9,7.05 2.12,0.27 -0.42,3.36 -2.13,-0.26 -0.48,3.85 -3.34,-0.43 0.48,-3.84 -5.45,-0.66 1.34,6.97 2.08,-0.39 0.62,3.31 -2.07,0.4 0.72,3.83 -3.31,0.63 -0.73,-3.82 -5.38,1.04 3.42,6.22 1.85,-1.03 1.65,2.97 -1.87,1.03 1.87,3.41 -2.95,1.64 -1.87,-3.42 -4.81,2.65 5.18,4.87 1.45,-1.54 2.48,2.3 -1.47,1.55 2.84,2.67 -2.31,2.46 -2.83,-2.66 -3.75,4.02 6.44,3.02 0.9,-1.92 3.07,1.43 -0.9,1.94 3.51,1.66 -1.43,3.06 -3.52,-1.66 -2.31,4.95 7.05,0.89 0.26,-2.09 3.36,0.41 -0.26,2.09 3.85,0.49 -0.41,3.35 -3.85,-0.48 -0.69,5.44 6.99,-1.32 -0.4,-2.07 3.32,-0.65 0.39,2.09 3.83,-0.73 0.62,3.31 -3.81,0.72 1.04,5.37 6.24,-3.43 -1.01,-1.82 2.95,-1.63 1.01,1.83 3.4,-1.87 1.65,2.97 -3.41,1.87 2.64,4.8 4.87,-5.19 -1.53,-1.43 2.31,-2.46 1.54,1.42 2.66,-2.83 2.47,2.31 -2.67,2.83 4.01,3.75 3.02,-6.43 -1.89,-0.89 1.42,-3.05 1.92,0.88 1.66,-3.52 3.06,1.44 -1.65,3.52 4.96,2.32 0.88,-7.06 -2.08,-0.25 0.43,-3.36 2.07,0.25 0.49,-3.85 3.36,0.43 -0.49,3.84 5.45,0.69 -1.34,-6.99 -2.06,0.39 -0.64,-3.32 2.07,-0.39 -0.72,-3.81 3.32,-0.65 0.72,3.81 5.37,-1.03 -3.42,-6.23 -1.84,1.02 -1.63,-2.96 1.83,-1.01 -1.86,-3.41 2.96,-1.64 1.87,3.41 4.8,-2.66 -5.19,-4.86 -1.42,1.54 -2.47,-2.31 1.43,-1.54 -2.83,-2.67 2.32,-2.45 2.82,2.66 3.75,-4 -6.45,-3.04 -0.88,1.89 -3.06,-1.43 0.89,-1.9 -3.51,-1.66 1.44,-3.06 3.51,1.66 2.32,-4.98 -7.06,-0.89 -0.25,2.1 -3.36,-0.41 0.25,-2.11 -3.84,-0.49 0.43,-3.36 3.82,0.49 0.69,-5.43 -6.98,1.34 0.4,2.06 -3.31,0.64 -0.41,-2.07 -3.82,0.72 -0.63,-3.32 3.81,-0.72 -1.04,-5.39 z m 5.57,-6.94 -2.07,-10.64 -8.32,8.86 3.18,5.75 z m -14.54,-2.31 -5.25,-9.49 -5.17,10.98 4.8,4.5 z m -14.52,2.28 -7.93,-7.42 -1.53,12.06 5.96,2.8 z m -15.07,97.61 -2.94,23.66 17.07,-18.17 -2.31,-11.97 z m 11.14,-9.98 -1.25,-6.45 -8.05,1.53 -1.32,10.76 z m -19.61,-70.58 -10.76,-1.33 5.84,10.64 6.47,-1.25 z m 2.85,-3.06 6.55,0.81 1.03,-8.14 -9.84,-4.61 z m -9.54,16.15 -10.66,2.06 8.84,8.31 5.77,-3.18 z m -2.33,14.52 -9.51,5.26 10.99,5.17 4.5,-4.81 z m -5.14,22.45 12.07,1.53 2.78,-5.95 -7.45,-3.5 z m 14.08,5.18 -4.59,9.85 11.93,-2.27 0.81,-6.55 z m 6.9,11.09 -13.26,2.53 -10.1,21.59 21.85,-12.02 z m -10.41,-11.53 -13.4,-1.7 -16.31,17.44 24.53,-4.66 z m -6.37,-14.17 -12.21,-5.75 -20.85,11.53 24.73,3.14 z m -1.66,-15.45 -9.82,-9.24 -23.44,4.53 22.57,10.62 z m -8.77,-12.88 11.99,-2.32 -6.5,-11.82 -23.67,-2.94 z m 7.61,-17.3 12.12,1.5 -2.53,-13.26 -21.61,-10.11 z m 12.59,-14.1 11.06,5.19 1.69,-13.4 -17.44,-16.3 z m 23.59,91.46 2.05,10.65 8.32,-8.85 -3.18,-5.76 z m 14.51,2.32 5.26,9.5 5.16,-10.99 -4.79,-4.48 z m 14.53,-2.28 7.93,7.42 1.53,-12.05 -5.96,-2.79 z m 22.86,-62.67 7.42,3.51 7.42,-7.95 -12.06,-1.52 z m 5.37,-19.44 -11.94,2.27 -0.82,6.52 8.16,1.02 z m -1.66,31.85 5.97,5.62 9.51,-5.24 -10.99,-5.18 z m 5.47,9.77 -5.75,3.18 3.95,7.18 10.64,-2.06 z m -8.5,23.46 10.76,1.33 -5.86,-10.65 -6.44,1.25 z m -2.85,3.05 -6.53,-0.81 -1.03,8.15 9.83,4.6 z m 11.25,-13.03 6.5,11.82 23.66,2.94 -18.19,-17.09 z m 4.37,14.98 -12.11,-1.51 2.53,13.27 21.59,10.09 z m -12.58,14.08 -11.05,-5.18 -1.7,13.39 17.43,16.3 z m -9.16,-95.53 -10.64,5.85 1.25,6.46 8.05,-1.53 z m -11.3,2.37 11.81,-6.51 2.93,-23.65 -17.07,18.16 z m 13.45,7.75 13.26,-2.54 10.12,-21.6 -21.87,12.02 z m 10.42,11.5 13.41,1.7 16.28,-17.41 -24.52,4.68 z m 6.35,14.2 12.21,5.74 20.89,-11.54 -24.75,-3.12 z m 1.65,15.45 9.82,9.24 23.42,-4.52 -22.56,-10.62 z m 12.87,12.09 19.78,18.58 75.65,9.38 -69.88,-32.89 z m 18.28,21.8 -25.84,-3.2 13.08,23.77 69.05,32.32 z m -15.21,23.16 -23.56,-11.03 5.08,26.66 55.69,52.05 z m -21.6,17.35 -19.03,-17.79 -3.4,26.93 36.91,66.75 z m -22.07,-20.64 -8.91,-8.33 -5.75,12.22 11.53,20.87 z m -16.43,7.65 -11.56,24.56 14.45,74.87 9.69,-76.66 z m -2.03,-3.65 -5.9,-10.69 -9.25,9.85 4.52,23.41 z m -18,2.2 -18.56,19.76 -9.38,75.66 32.87,-69.86 z m -18.58,-7.58 -23.78,13.08 -32.3,69.06 52.87,-56.31 z m -15.35,-12.93 -26.66,5.08 -52.06,55.71 67.7,-37.23 z m -10.59,-17.06 -26.89,-3.4 -66.78,36.91 75.88,-14.46 z m -4.82,-19.47 -24.56,-11.55 -74.84,14.45 76.62,9.69 z m -24.11,-15.09 25.57,-4.93 -19.77,-18.57 -75.7,-9.39 z m 7.29,-26.73 25.86,3.2 -13.07,-23.79 -69.11,-32.32 z m 15.21,-23.19 23.59,11.04 -5.08,-26.66 -55.71,-52.07 z m 21.62,-17.32 19.03,17.78 3.4,-26.92 -36.91,-66.77 z m 22.06,20.62 8.93,8.34 5.75,-12.2 -11.54,-20.9 z m 16.46,-7.65 11.55,-24.55 -14.46,-74.91 -9.69,76.66 z m 2.01,3.65 5.9,10.68 9.26,-9.84 -4.53,-23.42 z m 18.01,-2.21 18.55,-19.76 9.4,-75.67 -32.89,69.88 z m 18.57,7.58 23.79,-13.07 32.32,-69.07 -52.9,56.32 z m 15.36,12.96 26.66,-5.09 52.07,-55.72 -67.71,37.22 z m 10.6,17.04 26.92,3.4 66.71,-36.88 -75.86,14.46 z m 4.79,19.5 24.53,11.54 74.91,-14.46 -76.64,-9.69 z m 29.71,13.98 75.05,35.33 170.14,21.1 c 3.12,-16.41 5.12,-33.23 5.82,-50.4 l -170.53,-21.56 z m 84.9,39.96 146.02,68.73 c 5.71,-15.8 10.3,-32.14 13.68,-48.93 z m -10.8,-1.35 -81.32,-10.08 60.46,56.78 155.31,72.66 c 8.14,-14.75 15.25,-30.13 21.19,-46.1 z m -12.97,54.12 117.55,110.4 c 10.4,-13.34 19.82,-27.45 28.19,-42.24 z m -9.83,-4.6 -74.2,-34.71 39.94,72.68 125.18,117.01 c 2.73,-2.55 5.47,-5.1 8.11,-7.73 9.33,-9.33 18.04,-19.25 26.25,-29.58 z m -29.03,47.48 77.72,141.39 c 14.03,-9.54 27.31,-20.1 39.78,-31.55 z m -7.95,-7.43 -59.84,-55.94 15.53,81.49 82.94,150.04 c 15.38,-7.23 30.15,-15.55 44.19,-24.91 z m -42.28,36.17 30.22,158.48 c 16.41,-4.74 32.3,-10.65 47.62,-17.67 z m -5.25,-9.49 -39.64,-71.72 -10.41,82.31 32.5,168.23 c 17,-2.1 33.62,-5.44 49.76,-9.93 z m -51.41,21.35 -20.21,159.93 c 3.73,0.11 7.44,0.28 11.21,0.28 13.38,0 26.54,-0.84 39.5,-2.32 z m -2.05,-10.67 -15.54,-80.45 -35.32,75.01 -21.08,170.13 c 16.4,3.13 33.22,5.1 50.38,5.82 z m -55.48,4.4 -68.74,146.03 c 15.81,5.71 32.15,10.3 48.94,13.66 z m 1.34,-10.78 10.08,-81.31 -56.78,60.45 -72.65,155.3 c 14.74,8.14 30.13,15.24 46.1,21.2 z m -54.12,-12.95 -110.39,117.52 c 13.34,10.39 27.44,19.82 42.23,28.18 z m 4.59,-9.85 34.71,-74.2 -72.7,39.97 -116.97,125.13 c 2.56,2.74 5.08,5.47 7.72,8.12 9.33,9.32 19.25,18.05 29.6,26.26 z m -47.5,-29.01 -141.35,77.69 c 9.54,14.04 20.1,27.32 31.55,39.78 z m 7.44,-7.94 55.94,-59.86 -81.44,15.52 -150.06,82.95 c 7.23,15.39 15.56,30.16 24.9,44.19 z m -36.21,-42.3 -158.42,30.22 c 4.74,16.4 10.65,32.3 17.66,47.61 z m 9.49,-5.24 71.76,-39.67 -82.23,-10.39 -168.3,32.5 c 2.11,17.01 5.45,33.62 9.93,49.75 z m -21.25,-51.42 -159.98,-20.22 c -0.11,3.73 -0.28,7.44 -0.28,11.19 0,13.38 0.85,26.56 2.31,39.54 z m 10.62,-2.06 80.44,-15.52 -75.05,-35.33 -170.07,-21.1 c -3.13,16.42 -5.12,33.24 -5.83,50.41 z m -4.46,-55.48 -145.97,-68.71 c -5.71,15.8 -10.29,32.12 -13.66,48.91 z m 10.78,1.32 81.35,10.1 -60.47,-56.81 -155.26,-72.62 c -8.14,14.74 -15.25,30.14 -21.19,46.11 z m 12.96,-54.14 -117.49,-110.35 c -10.37,13.34 -19.79,27.44 -28.16,42.22 z m 9.83,4.6 74.26,34.74 -39.94,-72.68 -125.16,-117 c -2.73,2.55 -5.47,5.07 -8.1,7.71 -9.33,9.34 -18.06,19.27 -26.27,29.61 z m 29.08,-47.45 -77.69,-141.38 c -14.03,9.53 -27.32,20.09 -39.79,31.55 z m 7.93,7.4 59.87,55.98 -15.53,-81.48 -82.94,-150.06 c -15.38,7.23 -30.15,15.56 -44.19,24.91 z m 42.31,-36.17 -30.22,-158.45 c -16.4,4.72 -32.3,10.64 -47.6,17.66 z m 5.24,9.48 39.66,71.75 10.41,-82.28 -32.5,-168.26 c -17.01,2.11 -33.63,5.45 -49.77,9.93 z m 51.43,-21.29 20.22,-159.96 c -3.73,-0.12 -7.44,-0.29 -11.19,-0.29 -13.39,0.01 -26.56,0.85 -39.53,2.32 z m 2.05,10.62 15.55,80.49 35.3,-75.02 21.11,-170.16 c -16.41,-3.11 -33.24,-5.09 -50.41,-5.81 z m 55.49,-4.37 68.74,-146.04 c -15.8,-5.71 -32.15,-10.3 -48.93,-13.67 z m -1.34,10.76 -10.09,81.33 56.79,-60.46 72.65,-155.31 c -14.74,-8.14 -30.13,-15.25 -46.09,-21.19 z m 54.12,12.97 110.41,-117.54 c -13.35,-10.39 -27.45,-19.82 -42.25,-28.18 z m -4.61,9.84 -34.71,74.22 72.7,-39.96 117.01,-125.18 c -2.56,-2.71 -5.09,-5.47 -7.73,-8.1 -9.34,-9.34 -19.25,-18.05 -29.59,-26.26 z m 47.51,29.02 141.38,-77.69 c -9.53,-14.04 -20.1,-27.32 -31.55,-39.79 z m -7.41,7.94 -55.98,59.88 81.45,-15.53 150.09,-82.97 c -7.23,-15.38 -15.56,-30.14 -24.9,-44.19 z m 36.15,42.32 158.48,-30.22 c -4.73,-16.41 -10.65,-32.32 -17.67,-47.61 z m -9.5,5.25 -71.7,39.63 82.27,10.41 168.27,-32.49 c -2.11,-17.01 -5.45,-33.62 -9.93,-49.75 z m 21.34,51.39 159.96,20.23 c 0.11,-3.73 0.27,-7.44 0.27,-11.21 0,-13.38 -0.84,-26.54 -2.31,-39.51 l -157.92,30.49"
         style="fill:#231f20;fill-opacity:1;fill-rule:nonzero;stroke:none"
         id="path206" />
      <path
         inkscape:connector-curvature="0"
         d="m 5401.42,3728.12 -2.08,6.69 2.61,6.96 -7.48,6.3 c -0.06,2.86 -0.1,5.72 -0.22,8.57 l 6.43,9.24 -2.64,6.48 1.99,7.16 -7.76,5.44 c -0.32,2.97 -0.75,5.9 -1.12,8.84 l 5.51,9.61 -3.2,6.23 1.35,7.31 -8.09,4.69 c -0.59,3.02 -1.22,6.04 -1.88,9.04 l 4.55,9.78 -3.75,5.92 0.73,7.41 -8.38,3.92 c -0.88,3.07 -1.69,6.17 -2.64,9.22 l 3.56,9.8 -4.24,5.59 0.08,7.43 -8.56,3.14 c -1.16,3.01 -2.32,6.03 -3.56,9.04 l 2.68,10.03 -4.71,5.18 -0.58,7.43 -8.61,2.32 c -1.45,2.97 -2.98,5.88 -4.5,8.8 l 1.78,10.17 -5.15,4.76 -1.22,7.34 -8.66,1.55 c -1.73,2.86 -3.56,5.65 -5.36,8.47 l 0.88,10.21 -5.55,4.29 -1.84,7.2 -8.78,0.79 c -1.99,2.73 -4.01,5.44 -6.08,8.12 v 10.1 l -5.91,3.79 -2.47,7.02 -8.75,0.02 c -2.28,2.61 -4.51,5.22 -6.83,7.76 l -0.86,9.86 -6.22,3.27 -3.08,6.77 -8.61,-0.74 c -2.52,2.42 -5.02,4.87 -7.61,7.25 l -1.7,9.63 -6.47,2.71 -3.65,6.49 -8.35,-1.47 c -2.78,2.23 -5.58,4.42 -8.39,6.58 l -2.54,9.4 -6.68,2.13 -4.2,6.14 -7.97,-2.14 c -3.01,2.04 -6.13,3.95 -9.2,5.9 l -3.3,9.02 -6.84,1.55 -4.71,5.74 -7.73,-2.8 c -3.22,1.78 -6.5,3.5 -9.78,5.21 l -4.01,8.54 -6.93,0.96 -5.2,5.3 -7.4,-3.44 c -3.43,1.52 -6.87,3.04 -10.35,4.49 l -4.64,7.99 -6.99,0.34 -5.65,4.83 -7.01,-4.05 c -3.62,1.24 -7.2,2.53 -10.85,3.68 l -5.22,7.41 -7,-0.26 -6.06,4.32 -6.55,-4.59 c -3.68,0.91 -7.4,1.75 -11.14,2.58 l -5.91,7.01 -6.94,-0.88 -6.4,3.79 -6.08,-5.1 c -3.75,0.57 -7.55,1.01 -11.34,1.5 l -6.55,6.53 -6.83,-1.49 -6.72,3.21 -5.71,-5.71 c -3.77,0.26 -7.55,0.49 -11.35,0.65 l -7.05,5.9 -6.69,-2.08 -6.96,2.62 -5.21,-6.21 c -3.82,-0.07 -7.64,-0.12 -11.42,-0.28 l -7.47,5.2 -6.49,-2.63 -7.17,1.99 -4.53,-6.5 c -3.83,-0.4 -7.62,-0.94 -11.41,-1.45 l -7.94,4.58 -6.23,-3.21 -7.32,1.36 -3.95,-6.85 c -3.79,-0.74 -7.54,-1.58 -11.3,-2.42 l -8.25,3.84 -5.92,-3.73 -7.4,0.71 -3.37,-7.22 c -3.72,-1.06 -7.46,-2.14 -11.13,-3.31 l -8.45,3.07 -5.59,-4.24 -7.43,0.08 -2.73,-7.5 c -3.62,-1.41 -7.24,-2.78 -10.8,-4.26 l -8.69,2.32 -5.17,-4.72 -7.43,-0.56 -2.07,-7.73 c -3.41,-1.68 -6.79,-3.43 -10.17,-5.2 l -9.05,1.59 -4.76,-5.15 -7.34,-1.21 -1.39,-7.88 c -3.22,-1.95 -6.35,-4.04 -9.53,-6.09 l -9.32,0.82 -4.28,-5.53 -7.2,-1.87 -0.73,-8.16 c -2.96,-2.18 -5.89,-4.43 -8.8,-6.69 h -9.48 l -3.79,-5.93 -7.01,-2.43 v -8.35 c -2.74,-2.41 -5.49,-4.81 -8.16,-7.29 l -9.49,-0.82 -3.25,-6.25 -6.77,-3.02 0.74,-8.43 c -2.52,-2.61 -5.07,-5.18 -7.51,-7.87 l -9.39,-1.65 -2.69,-6.49 -6.49,-3.62 1.48,-8.35 c -2.24,-2.78 -4.44,-5.57 -6.61,-8.4 l -9.4,-2.52 -2.11,-6.71 -6.13,-4.17 2.19,-8.19 c -1.97,-2.92 -3.83,-5.92 -5.73,-8.9 l -9.27,-3.38 -1.51,-6.86 -5.76,-4.7 2.91,-8.01 c -1.68,-3.07 -3.25,-6.18 -4.86,-9.29 l -9.01,-4.2 -0.93,-6.96 -5.31,-5.2 3.67,-7.86 c -1.41,-3.15 -2.76,-6.31 -4.08,-9.51 l -8.65,-4.99 -0.3,-7.02 -4.86,-5.63 4.41,-7.64 c -1.09,-3.24 -2.26,-6.44 -3.29,-9.71 l -8.17,-5.72 0.29,-7.02 -4.34,-6.05 5.12,-7.3 c -0.78,-3.21 -1.52,-6.43 -2.23,-9.65 l -7.91,-6.64 0.92,-6.97 -3.81,-6.39 5.77,-6.88 c -0.47,-3.17 -0.81,-6.38 -1.22,-9.58 l -7.5,-7.49 1.52,-6.85 -3.22,-6.72 6.55,-6.54 c -0.19,-3.11 -0.37,-6.21 -0.49,-9.33 l -6.91,-8.23 2.1,-6.7 -2.62,-6.97 7.25,-6.08 c 0.07,-3.04 0.1,-6.09 0.23,-9.12 l -6.24,-8.89 2.69,-6.48 -2.01,-7.17 7.77,-5.43 c 0.34,-2.97 0.73,-5.92 1.13,-8.86 l -5.56,-9.59 3.24,-6.24 -1.38,-7.32 8.24,-4.75 c 0.58,-2.89 1.28,-5.75 1.91,-8.63 l -4.72,-10.12 3.77,-5.93 -0.73,-7.41 8.78,-4.1 c 0.81,-2.77 1.61,-5.56 2.49,-8.33 l -3.83,-10.51 4.27,-5.57 -0.09,-7.44 9.26,-3.36 c 1.04,-2.63 2.01,-5.28 3.11,-7.87 l -2.96,-10.98 4.75,-5.18 0.55,-7.42 9.63,-2.57 c 1.22,-2.43 2.48,-4.85 3.73,-7.26 l -2.03,-11.48 5.17,-4.72 1.2,-7.37 9.9,-1.73 c 1.39,-2.25 2.86,-4.44 4.28,-6.68 l -1.05,-11.83 5.58,-4.25 1.83,-7.24 10.2,-0.86 c 1.52,-2.07 3.1,-4.09 4.65,-6.12 v -12.03 l 5.93,-3.77 2.45,-7.03 10.24,0.02 0.26,-0.08 c 1.63,-1.83 3.25,-3.71 4.91,-5.52 l 1.03,-12.07 6.23,-3.23 3.07,-6.79 10.19,0.9 0.45,-0.06 c 1.72,-1.65 3.41,-3.31 5.16,-4.92 l 2.12,-12.08 6.49,-2.67 3.64,-6.5 10.08,1.79 0.54,-0.04 c 1.8,-1.42 3.61,-2.85 5.43,-4.26 l 3.22,-12.01 6.68,-2.11 4.2,-6.15 9.88,2.64 0.55,0.02 c 1.9,-1.25 3.84,-2.46 5.75,-3.69 l 4.28,-11.76 6.85,-1.53 4.72,-5.76 9.61,3.51 0.49,0.05 c 2.01,-1.1 4.08,-2.09 6.09,-3.15 l 5.3,-11.36 6.97,-0.92 5.18,-5.33 9.27,4.32 0.67,0.13 c 2.07,-0.89 4.12,-1.82 6.21,-2.68 l 6.22,-10.82 7.02,-0.3 5.64,-4.87 8.86,5.13 0.77,0.23 c 2.09,-0.7 4.14,-1.45 6.25,-2.11 l 7.19,-10.3 7.01,0.31 6.05,-4.36 8.39,5.88 0.81,0.32 c 2.06,-0.49 4.11,-0.96 6.19,-1.42 l 8.21,-9.8 6.95,0.92 6.4,-3.81 7.85,6.59 0.77,0.39 c 2.05,-0.32 4.14,-0.51 6.2,-0.8 l 9.14,-9.12 6.84,1.52 6.71,-3.23 7.25,7.25 0.9,0.55 c 2.03,-0.14 4.06,-0.3 6.11,-0.39 l 9.84,-8.26 6.7,2.11 6.96,-2.63 6.6,7.85 0.93,0.69 c 1.99,0.06 3.97,0.08 5.93,0.16 l 10.64,-7.44 6.49,2.68 7.17,-2.02 5.87,8.4 0.78,0.68 c 2.01,0.23 3.98,0.51 5.98,0.76 l 11.26,-6.48 6.22,3.24 7.32,-1.38 5.13,8.86 0.6,0.65 c 2.06,0.41 4.09,0.88 6.14,1.33 l 11.65,-5.41 5.91,3.75 7.41,-0.73 4.33,9.28 0.59,0.74 c 2.03,0.6 4.1,1.12 6.14,1.74 l 11.89,-4.32 5.56,4.27 7.44,-0.08 3.52,9.61 0.52,0.78 c 1.95,0.78 3.91,1.52 5.85,2.32 l 12.33,-3.29 5.19,4.73 7.4,0.57 2.67,9.88 0.41,0.76 c 1.9,0.94 3.75,1.92 5.61,2.88 l 12.62,-2.2 4.75,5.16 7.34,1.22 1.79,10.07 0.3,0.67 c 1.83,1.12 3.61,2.34 5.43,3.48 l 12.71,-1.09 4.29,5.56 7.2,1.83 0.91,10.21 0.26,0.75 c 1.73,1.28 3.47,2.58 5.18,3.89 l 12.67,0.02 3.79,5.89 7.01,2.47 0.01,10.25 0.2,0.79 c 1.64,1.44 3.34,2.84 4.97,4.32 l 12.46,1.1 3.26,6.21 6.77,3.07 -0.87,10.19 0.11,0.75 c 1.53,1.6 3.07,3.18 4.57,4.8 l 12.35,2.21 2.69,6.44 6.49,3.65 -1.77,10.09 0.04,0.57 c 1.43,1.79 2.82,3.58 4.23,5.38 l 12.01,3.25 2.15,6.67 6.11,4.19 -2.62,9.89 -0.02,0.3 c 1.35,1.99 2.6,4.04 3.9,6.07 l 11.53,4.22 1.55,6.82 5.74,4.73 -3.49,9.62 -0.01,0.12 c 1.21,2.21 2.38,4.43 3.55,6.66 l 10.91,5.12 0.93,6.93 5.32,5.2 -4.32,9.29 v 0.02 c 1.05,2.39 2.18,4.77 3.19,7.17 l 10.17,5.9 0.34,7 4.83,5.64 -5.05,8.79 c 0.85,2.53 1.73,5.04 2.55,7.59 l 9.55,6.71 -0.27,7 4.32,6.05 -5.72,8.18 c 0.65,2.63 1.23,5.28 1.82,7.92 l 8.92,7.5 -0.89,6.95 3.78,6.41 -6.31,7.52 c 0.43,2.73 0.72,5.49 1.1,8.24 l 8.14,8.19 -1.47,6.84 3.21,6.72 -6.98,6.98 c 0.18,2.81 0.43,5.63 0.56,8.45 z m -423.8,-26.13 1.03,1.83 -2.97,1.64 -1.01,-1.85 -3.42,1.87 -1.63,-2.96 3.41,-1.87 -2.66,-4.79 -4.86,5.18 1.55,1.44 -2.31,2.48 -1.56,-1.46 -2.66,2.82 -2.46,-2.3 2.65,-2.83 -3.99,-3.74 -3.04,6.42 1.94,0.91 -1.43,3.07 -1.95,-0.91 -1.66,3.52 -3.05,-1.44 1.65,-3.52 -4.96,-2.32 -0.9,7.05 2.12,0.27 -0.43,3.36 -2.11,-0.26 -0.49,3.85 -3.34,-0.43 0.47,-3.84 -5.43,-0.66 1.32,6.97 2.08,-0.39 0.64,3.31 -2.09,0.4 0.75,3.83 -3.32,0.63 -0.73,-3.82 -5.39,1.04 3.42,6.22 1.86,-1.03 1.64,2.97 -1.87,1.03 1.88,3.41 -2.96,1.64 -1.88,-3.42 -4.8,2.65 5.19,4.87 1.44,-1.54 2.47,2.3 -1.46,1.55 2.85,2.67 -2.32,2.46 -2.84,-2.66 -3.75,4.02 6.46,3.02 0.9,-1.92 3.06,1.43 -0.9,1.94 3.53,1.66 -1.46,3.06 -3.5,-1.66 -2.32,4.95 7.04,0.89 0.28,-2.09 3.35,0.41 -0.25,2.09 3.85,0.49 -0.43,3.35 -3.85,-0.48 -0.67,5.44 6.98,-1.32 -0.41,-2.07 3.32,-0.65 0.4,2.09 3.84,-0.73 0.62,3.31 -3.8,0.72 1.02,5.37 6.24,-3.43 -1.01,-1.82 2.94,-1.63 1.02,1.83 3.42,-1.87 1.63,2.97 -3.41,1.87 2.64,4.8 4.87,-5.19 -1.53,-1.43 2.31,-2.46 1.55,1.42 2.64,-2.83 2.48,2.31 -2.65,2.83 3.99,3.75 3.02,-6.43 -1.88,-0.89 1.43,-3.05 1.89,0.88 1.66,-3.52 3.07,1.44 -1.65,3.52 4.95,2.32 0.9,-7.06 -2.09,-0.25 0.43,-3.36 2.07,0.25 0.49,-3.85 3.37,0.43 -0.49,3.84 5.44,0.69 -1.33,-6.99 -2.07,0.39 -0.65,-3.32 2.07,-0.39 -0.72,-3.81 3.32,-0.65 0.72,3.81 5.38,-1.03 -3.42,-6.23 -1.84,1.02 -1.64,-2.96 1.86,-1.01 -1.88,-3.41 2.97,-1.64 1.88,3.41 4.78,-2.66 -5.18,-4.86 -1.43,1.54 -2.47,-2.31 1.44,-1.54 -2.84,-2.67 2.32,-2.45 2.82,2.66 3.74,-4 -6.44,-3.04 -0.89,1.89 -3.05,-1.43 0.89,-1.9 -3.52,-1.66 1.45,-3.06 3.5,1.66 2.34,-4.98 -7.06,-0.89 -0.27,2.1 -3.36,-0.41 0.26,-2.11 -3.85,-0.49 0.43,-3.36 3.85,0.49 0.67,-5.43 -6.96,1.34 0.39,2.06 -3.32,0.64 -0.4,-2.07 -3.82,0.72 -0.65,-3.32 3.83,-0.72 -1.04,-5.39 z m 5.56,-6.94 -2.05,-10.64 -8.34,8.86 3.19,5.75 z m -14.53,-2.31 -5.25,-9.49 -5.17,10.98 4.81,4.5 z m -14.53,2.28 -7.93,-7.42 -1.52,12.06 5.96,2.8 z m -15.06,97.61 -2.93,23.66 17.05,-18.17 -2.3,-11.97 z m 11.14,-9.98 -1.24,-6.45 -8.06,1.53 -1.33,10.76 z m -19.6,-70.58 -10.78,-1.33 5.86,10.64 6.45,-1.25 z m 2.85,-3.06 6.55,0.81 1.02,-8.14 -9.85,-4.61 z m -9.54,16.15 -10.67,2.06 8.85,8.31 5.76,-3.18 z m -2.34,14.52 -9.52,5.26 11,5.17 4.5,-4.81 z m -5.13,22.45 12.06,1.53 2.77,-5.95 -7.42,-3.5 z m 14.08,5.18 -4.6,9.85 11.92,-2.27 0.82,-6.55 z m 6.88,11.09 -13.24,2.53 -10.1,21.59 21.86,-12.02 z m -10.41,-11.53 -13.4,-1.7 -16.3,17.44 24.52,-4.66 z m -6.36,-14.17 -12.21,-5.75 -20.86,11.53 24.74,3.14 z m -1.67,-15.45 -9.82,-9.24 -23.42,4.53 22.56,10.62 z m -8.76,-12.88 11.99,-2.32 -6.49,-11.82 -23.68,-2.94 z m 7.61,-17.3 12.13,1.5 -2.54,-13.26 -21.62,-10.11 z m 12.58,-14.1 11.07,5.19 1.7,-13.4 -17.45,-16.3 z m 23.59,91.46 2.06,10.65 8.32,-8.85 -3.17,-5.76 z m 14.54,2.32 5.23,9.5 5.18,-10.99 -4.81,-4.48 z m 14.53,-2.28 7.91,7.42 1.53,-12.05 -5.95,-2.79 z m 22.83,-62.67 7.44,3.51 7.41,-7.95 -12.06,-1.52 z m 5.37,-19.44 -11.93,2.27 -0.81,6.52 8.15,1.02 z m -1.64,31.85 5.98,5.62 9.49,-5.24 -10.99,-5.18 z m 5.46,9.77 -5.75,3.18 3.94,7.18 10.65,-2.06 z m -8.5,23.46 10.75,1.33 -5.84,-10.65 -6.46,1.25 z m -2.85,3.05 -6.53,-0.81 -1.04,8.15 9.85,4.6 z m 11.26,-13.03 6.5,11.82 23.66,2.94 -18.19,-17.09 z m 4.37,14.98 -12.12,-1.51 2.54,13.27 21.58,10.09 z m -12.58,14.08 -11.07,-5.18 -1.68,13.39 17.43,16.3 z m -9.17,-95.53 -10.65,5.85 1.26,6.46 8.06,-1.53 z m -11.31,2.37 11.82,-6.51 2.93,-23.65 -17.06,18.16 z m 13.48,7.75 13.26,-2.54 10.1,-21.6 -21.88,12.02 z m 10.41,11.5 13.39,1.7 16.29,-17.41 -24.51,4.68 z m 6.34,14.2 12.21,5.74 20.89,-11.54 -24.74,-3.12 z m 1.64,15.45 9.85,9.24 23.4,-4.52 -22.56,-10.62 z m 12.88,12.09 19.78,18.58 75.66,9.38 -69.9,-32.89 z m 18.28,21.8 -25.84,-3.2 13.08,23.77 69.07,32.32 z m -15.21,23.16 -23.56,-11.03 5.08,26.66 55.68,52.05 z m -21.59,17.35 -19.02,-17.79 -3.41,26.93 36.9,66.75 z m -22.07,-20.64 -8.93,-8.33 -5.74,12.22 11.53,20.87 z m -16.45,7.65 -11.56,24.56 14.46,74.87 9.69,-76.66 z m -2.02,-3.65 -5.89,-10.69 -9.25,9.85 4.52,23.41 z m -18,2.2 -18.57,19.76 -9.36,75.66 32.87,-69.86 z m -18.58,-7.58 -23.78,13.08 -32.3,69.06 52.87,-56.31 z m -15.34,-12.93 -26.68,5.08 -52.05,55.71 67.7,-37.23 z m -10.61,-17.06 -26.89,-3.4 -66.76,36.91 75.86,-14.46 z m -4.81,-19.47 -24.54,-11.55 -74.85,14.45 76.61,9.69 z m -24.11,-15.09 25.58,-4.93 -19.77,-18.57 -75.71,-9.39 z m 7.3,-26.73 25.85,3.2 -13.07,-23.79 -69.11,-32.32 z m 15.2,-23.19 23.59,11.04 -5.08,-26.66 -55.71,-52.07 z m 21.62,-17.32 19.02,17.78 3.41,-26.92 -36.9,-66.77 z m 22.06,20.62 8.93,8.34 5.75,-12.2 -11.53,-20.9 z m 16.45,-7.65 11.57,-24.55 -14.46,-74.91 -9.7,76.66 z m 2.03,3.65 5.9,10.68 9.24,-9.84 -4.52,-23.42 z m 17.99,-2.21 18.58,-19.76 9.37,-75.67 -32.88,69.88 z m 18.59,7.58 23.8,-13.07 32.3,-69.07 -52.89,56.32 z m 15.34,12.96 26.66,-5.09 52.07,-55.72 -67.7,37.22 z m 10.6,17.04 26.92,3.4 66.72,-36.88 -75.86,14.46 z m 4.79,19.5 24.55,11.54 74.9,-14.46 -76.64,-9.69 z m 29.73,13.98 75.04,35.33 170.14,21.1 c 3.14,-16.41 5.11,-33.23 5.82,-50.4 l -170.52,-21.56 z m 84.88,39.96 146.03,68.73 c 5.71,-15.8 10.3,-32.14 13.68,-48.93 z m -10.79,-1.35 -81.32,-10.08 60.45,56.78 155.31,72.66 c 8.17,-14.75 15.26,-30.13 21.2,-46.1 z m -12.97,54.12 117.55,110.4 c 10.39,-13.34 19.82,-27.45 28.19,-42.24 z m -9.83,-4.6 -74.2,-34.71 39.96,72.68 125.15,117.01 c 2.73,-2.55 5.49,-5.1 8.13,-7.73 9.32,-9.33 18.04,-19.25 26.25,-29.58 z m -29.03,47.48 77.71,141.39 c 14.04,-9.54 27.31,-20.1 39.79,-31.55 z m -7.95,-7.43 -59.84,-55.94 15.53,81.49 82.95,150.04 c 15.37,-7.23 30.13,-15.55 44.18,-24.91 z m -42.28,36.17 30.21,158.48 c 16.43,-4.74 32.33,-10.65 47.62,-17.67 z m -5.24,-9.49 -39.64,-71.72 -10.42,82.31 32.5,168.23 c 17,-2.1 33.62,-5.44 49.75,-9.93 z m -51.42,21.35 -20.22,159.93 c 3.75,0.11 7.46,0.28 11.23,0.28 13.36,0 26.53,-0.84 39.5,-2.32 z m -2.05,-10.67 -15.53,-80.45 -35.32,75.01 -21.09,170.13 c 16.41,3.13 33.23,5.1 50.39,5.82 z m -55.48,4.4 -68.73,146.03 c 15.81,5.71 32.14,10.3 48.93,13.66 z m 1.34,-10.78 10.09,-81.31 -56.79,60.45 -72.65,155.3 c 14.74,8.14 30.15,15.24 46.1,21.2 z m -54.11,-12.95 -110.4,117.52 c 13.35,10.39 27.46,19.82 42.23,28.18 z m 4.59,-9.85 34.7,-74.2 -72.7,39.97 -116.98,125.13 c 2.56,2.74 5.08,5.47 7.73,8.12 9.34,9.32 19.27,18.05 29.6,26.26 z m -47.5,-29.01 -141.36,77.69 c 9.54,14.04 20.1,27.32 31.55,39.78 z m 7.42,-7.94 55.94,-59.86 -81.44,15.52 -150.06,82.95 c 7.25,15.39 15.57,30.16 24.92,44.19 z m -36.18,-42.3 -158.43,30.22 c 4.73,16.4 10.65,32.3 17.66,47.61 z m 9.47,-5.24 71.76,-39.67 -82.23,-10.39 -168.29,32.5 c 2.11,17.01 5.45,33.62 9.92,49.75 z m -21.25,-51.42 -159.96,-20.22 c -0.14,3.73 -0.3,7.44 -0.3,11.19 0,13.38 0.84,26.56 2.33,39.54 z m 10.62,-2.06 80.43,-15.52 -75.04,-35.33 -170.07,-21.1 c -3.14,16.42 -5.12,33.24 -5.83,50.41 z m -4.45,-55.48 -145.98,-68.71 c -5.71,15.8 -10.29,32.12 -13.67,48.91 z m 10.76,1.32 81.36,10.1 -60.48,-56.81 -155.24,-72.62 c -8.15,14.74 -15.27,30.14 -21.21,46.11 z m 12.96,-54.14 -117.47,-110.35 c -10.39,13.34 -19.81,27.44 -28.16,42.22 z m 9.85,4.6 74.25,34.74 -39.95,-72.68 -125.16,-117 c -2.71,2.55 -5.46,5.07 -8.09,7.71 -9.33,9.34 -18.06,19.27 -26.28,29.61 z m 29.09,-47.45 -77.71,-141.38 c -14.03,9.53 -27.31,20.09 -39.79,31.55 z m 7.91,7.4 59.88,55.98 -15.54,-81.48 -82.94,-150.06 c -15.39,7.23 -30.15,15.56 -44.2,24.91 z m 42.3,-36.17 -30.19,-158.45 c -16.43,4.72 -32.31,10.64 -47.62,17.66 z m 5.25,9.48 39.67,71.75 10.39,-82.28 -32.49,-168.26 c -17.02,2.11 -33.62,5.45 -49.75,9.93 z m 51.43,-21.29 20.23,-159.96 c -3.75,-0.12 -7.44,-0.29 -11.19,-0.29 -13.4,0.01 -26.57,0.85 -39.55,2.32 z m 2.05,10.62 15.55,80.49 35.3,-75.02 21.12,-170.16 c -16.42,-3.11 -33.25,-5.09 -50.41,-5.81 z m 55.48,-4.37 68.74,-146.04 c -15.8,-5.71 -32.13,-10.3 -48.91,-13.67 z m -1.34,10.76 -10.08,81.33 56.79,-60.46 72.65,-155.31 c -14.75,-8.14 -30.13,-15.25 -46.1,-21.19 z m 54.12,12.97 110.41,-117.54 c -13.34,-10.39 -27.45,-19.82 -42.24,-28.18 z m -4.6,9.84 -34.71,74.22 72.69,-39.96 117.01,-125.18 c -2.54,-2.71 -5.07,-5.47 -7.71,-8.1 -9.35,-9.34 -19.26,-18.05 -29.6,-26.26 z m 47.51,29.02 141.37,-77.69 c -9.52,-14.04 -20.1,-27.32 -31.54,-39.79 z m -7.42,7.94 -55.97,59.88 81.46,-15.53 150.08,-82.97 c -7.23,-15.38 -15.56,-30.14 -24.9,-44.19 z m 36.17,42.32 158.47,-30.22 c -4.74,-16.41 -10.65,-32.32 -17.67,-47.61 z m -9.51,5.25 -71.7,39.63 82.27,10.41 168.26,-32.49 c -2.1,-17.01 -5.44,-33.62 -9.92,-49.75 z m 21.33,51.39 159.96,20.23 c 0.13,-3.73 0.29,-7.44 0.29,-11.21 0,-13.38 -0.86,-26.54 -2.33,-39.51 l -157.92,30.49"
         style="fill:#231f20;fill-opacity:1;fill-rule:nonzero;stroke:none"
         id="path208" />
      <path
         inkscape:connector-curvature="0"
         d="m 3634.77,3546.68 c 0,-1.49 -2.84,-2.71 -3.09,-4.13 -0.25,-1.44 1.99,-3.55 1.5,-4.91 -0.5,-1.37 -3.59,-1.54 -4.31,-2.8 -0.73,-1.26 0.66,-4.02 -0.28,-5.13 -0.93,-1.11 -3.89,-0.21 -5,-1.16 -1.12,-0.93 -0.75,-4 -2.01,-4.73 -1.25,-0.72 -3.73,1.13 -5.1,0.63 -1.36,-0.5 -2.07,-3.52 -3.51,-3.77 -1.41,-0.25 -3.11,2.34 -4.59,2.34 -1.49,0 -3.17,-2.59 -4.59,-2.34 -1.45,0.25 -2.15,3.27 -3.5,3.77 -1.38,0.5 -3.85,-1.35 -5.11,-0.63 -1.26,0.75 -0.88,3.81 -2,4.75 -1.12,0.93 -4.08,0.03 -5.02,1.14 -0.93,1.11 0.47,3.87 -0.27,5.15 -0.72,1.24 -3.81,1.41 -4.32,2.78 -0.48,1.37 1.76,3.47 1.52,4.92 -0.25,1.42 -3.1,2.64 -3.1,4.12 0,1.48 2.85,2.7 3.1,4.12 0.25,1.44 -2,3.55 -1.52,4.91 0.51,1.38 3.6,1.54 4.32,2.8 0.74,1.27 -0.66,4.03 0.27,5.14 0.94,1.11 3.91,0.21 5.02,1.15 1.12,0.94 0.75,4 2.01,4.73 1.25,0.72 3.73,-1.13 5.1,-0.63 1.35,0.5 2.05,3.52 3.51,3.77 1.41,0.26 3.09,-2.34 4.58,-2.34 1.48,0 3.18,2.6 4.59,2.34 1.46,-0.25 2.15,-3.27 3.51,-3.77 1.37,-0.5 3.85,1.35 5.1,0.63 1.27,-0.74 0.9,-3.8 2.01,-4.74 1.12,-0.93 4.07,-0.03 5.02,-1.14 0.92,-1.11 -0.47,-3.87 0.26,-5.14 0.72,-1.26 3.81,-1.42 4.31,-2.8 0.49,-1.36 -1.75,-3.47 -1.5,-4.92 0.25,-1.42 3.09,-2.63 3.09,-4.11"
         style="fill:#231f20;fill-opacity:1;fill-rule:nonzero;stroke:none"
         id="path210" />
      <path
         inkscape:connector-curvature="0"
         d="m 3640.21,3618.21 c 0,-1.49 -2.83,-2.71 -3.08,-4.11 -0.25,-1.45 1.99,-3.58 1.5,-4.92 -0.5,-1.37 -3.59,-1.55 -4.31,-2.81 -0.73,-1.26 0.66,-4.01 -0.28,-5.12 -0.93,-1.12 -3.9,-0.22 -5.02,-1.17 -1.1,-0.92 -0.74,-3.99 -1.99,-4.73 -1.26,-0.72 -3.73,1.13 -5.12,0.63 -1.34,-0.5 -2.05,-3.5 -3.49,-3.76 -1.41,-0.25 -3.11,2.33 -4.59,2.33 -1.49,0 -3.18,-2.58 -4.59,-2.33 -1.45,0.26 -2.15,3.26 -3.51,3.76 -1.37,0.5 -3.85,-1.35 -5.1,-0.62 -1.27,0.73 -0.9,3.8 -2,4.73 -1.12,0.94 -4.08,0.04 -5.02,1.16 -0.93,1.11 0.46,3.86 -0.27,5.14 -0.72,1.24 -3.81,1.42 -4.32,2.79 -0.48,1.36 1.76,3.47 1.52,4.92 -0.26,1.41 -3.1,2.63 -3.1,4.11 0,1.48 2.84,2.7 3.1,4.11 0.25,1.45 -2,3.57 -1.52,4.92 0.51,1.37 3.6,1.55 4.32,2.8 0.73,1.26 -0.65,4.02 0.27,5.13 0.94,1.12 3.91,0.22 5.02,1.16 1.12,0.93 0.75,4 2.01,4.74 1.25,0.71 3.72,-1.13 5.1,-0.62 1.35,0.48 2.05,3.5 3.5,3.75 1.41,0.25 3.1,-2.33 4.59,-2.33 1.48,0 3.18,2.58 4.59,2.33 1.44,-0.25 2.15,-3.27 3.51,-3.75 1.37,-0.51 3.85,1.33 5.1,0.61 1.27,-0.73 0.89,-3.8 2,-4.74 1.11,-0.93 4.08,-0.03 5.01,-1.15 0.94,-1.11 -0.45,-3.87 0.28,-5.13 0.72,-1.25 3.81,-1.43 4.31,-2.8 0.49,-1.36 -1.75,-3.47 -1.5,-4.92 0.25,-1.41 3.08,-2.63 3.08,-4.11"
         style="fill:#231f20;fill-opacity:1;fill-rule:nonzero;stroke:none"
         id="path212" />
      <path
         inkscape:connector-curvature="0"
         d="m 3599.73,3705.15 5.02,0.51 -5.02,-0.51 c 0.48,-4.84 -2.8,-5.39 -1.77,-10.47 1.11,-5.15 4.11,-4.54 5.2,-9.55 1.22,-4.97 -2.14,-5.9 -0.17,-10.82 1.81,-4.84 4.59,-4 6.42,-8.4 v 0.01 c 1.86,-4.52 -1.43,-6.16 1.37,-10.61 2.72,-4.59 5.38,-3.09 8.02,-7.52 2.63,-4.34 0.16,-6.36 2.82,-10.51 2.45,-3.73 5.1,-2.24 7.49,-5.87 l 4.35,2.55 -4.34,-2.55 c 1.76,-3.87 -0.16,-5.41 0.96,-8.93 1.36,-3.53 4.1,-2.81 4.3,-6.47 -0.59,-3.46 -3.37,-1.76 -5.04,-3.87 -2.17,-2.14 -0.67,-4.68 -4.14,-7.09 l 5.43,-8.49 c 4.17,2.64 6.17,0.18 10.81,4.88 4.29,5.55 2.02,7.6 2.95,13.8 -0.11,6.08 2.87,7.08 0.86,12.8 -2.03,5.71 -5.09,3.94 -7.45,8.48 h 0.01 c -2.44,4.23 -0.19,5.82 -3.06,10.18 -2.68,4.19 -4.96,2.3 -7.46,6.46 -2.45,4.08 0.23,5.59 -2.13,9.51 -2.48,3.79 -4.53,3.02 -6.43,7.07 v 0 c -1.46,4.23 1.23,5.35 -0.39,9.59 -1.78,4.28 -4.3,3.6 -5.43,8.24 -1.03,4.69 1.97,5.3 0.97,9.84 -0.93,4.47 -3.47,4.27 -4.13,8.76 h 0.02 c -0.28,4.48 2.53,4.82 2.18,9.39 0.02,4.71 -3.04,4.69 -3.02,9.51 -0.04,4.82 3.18,4.63 3.55,9.3 0.39,4.59 -2.59,5.06 -1.99,9.51 l -9.94,1.57 c -0.88,-4.83 -3.73,-4.61 -4.17,-9.75 -0.42,-5.22 2.49,-5.37 2.51,-10.49 -0.01,-5.08 -3.07,-5.11 -3.09,-10.32 0.4,-5.09 3.34,-5.05 3.93,-9.74 z m 193.42,-168.86 c -4.84,-0.32 -4.64,-3.38 -9.49,-3.7 -4.83,-0.3 -5.03,2.76 -9.85,2.45 -4.75,-0.3 -4.69,-3.23 -9.24,-3.62 v 0 c -4.53,-0.15 -4.85,2.74 -9.59,2.44 -4.84,-0.28 -4.67,-3.34 -9.51,-3.63 -4.83,-0.29 -5.02,2.76 -9.84,2.47 -4.75,-0.27 -4.71,-3.19 -9.26,-3.58 v 0 c -4.53,-0.14 -4.85,2.75 -9.58,2.48 -4.85,-0.28 -4.68,-3.33 -9.52,-3.62 -4.83,-0.26 -5,2.8 -9.85,2.52 -4.74,-0.26 -4.69,-3.19 -9.26,-3.56 v 0.01 c -4.53,-0.12 -4.82,2.77 -9.57,2.52 -4.84,-0.27 -4.68,-3.32 -9.53,-3.59 -4.84,-0.26 -5,2.81 -9.83,2.55 -4.75,-0.25 -4.72,-3.18 -9.27,-3.53 v 0.01 c -4.53,-0.1 -4.82,2.79 -9.57,2.55 -4.84,-0.24 -4.69,-3.3 -9.54,-3.55 -4.83,-0.22 -4.99,2.82 -9.81,2.59 -4.31,-0.29 -5.73,-3 -8.29,-3.63 l -0.77,-4.89 0.77,4.89 c -1.66,1.39 -2.12,4.36 -5.33,6.35 -3.69,2.26 -5.42,-0.24 -9.03,2.53 -3.35,2.99 -1.16,5.17 -3.6,8.11 -2.04,2.99 -4.61,1.66 -6.18,5.21 v 0 c -0.9,3.7 2.17,4.19 2.03,7.43 0.61,3.39 -2.63,4.16 -1.01,8.22 1.64,4.01 4.71,2.46 6.68,6.01 2.67,3.2 0.12,5.4 3.1,8.54 l 0.02,-0.01 c 3.1,2.98 5.09,0.94 8.48,3.6 3.44,2.76 1.86,5.15 5.78,7.8 4.12,2.48 5.59,-0.16 9.86,2.22 4.26,2.48 2.95,4.93 7.08,7.68 l -5.43,8.48 c -3.81,-2.29 -5.47,0.31 -9.65,-2.11 -4.38,-2.47 -2.89,-5.18 -7.27,-7.8 -4.28,-2.92 -6.11,-0.19 -10.42,-3.61 -4.23,-3.36 -2.39,-5.68 -5.73,-9.3 l 6.7,-6.4 -6.7,6.4 c -3.63,-3.53 -5.69,-2.07 -9.19,-6.42 -2.9,-5.05 -0.55,-6.29 -2.66,-11.43 -2,-5.19 -4.83,-4.55 -5.77,-10.94 0.12,-6.44 2.93,-6.32 4.52,-11.5 l 3.2,1.04 -3.2,-1.04 c 1.95,-5.14 -0.59,-6.78 2.88,-11.84 3.87,-4.7 6.1,-2.51 10.14,-6.12 4.24,-3.27 2.51,-5.82 7.27,-8.73 5.25,-2.74 5.07,0.05 11.89,-2.14 v 0.01 c 6.62,-0.2 5.43,-2.9 10.65,-2.74 4.86,0.23 4.72,3.29 9.57,3.53 4.84,0.24 5,-2.81 9.84,-2.58 4.73,0.26 4.73,3.13 9.21,3.52 v 0.01 c 4.62,0.13 4.87,-2.8 9.66,-2.55 4.85,0.26 4.68,3.3 9.55,3.58 4.83,0.25 5,-2.8 9.84,-2.54 4.73,0.25 4.72,3.14 9.19,3.55 l -0.28,5.03 0.28,-5.03 c 4.62,0.15 4.89,-2.77 9.68,-2.51 4.84,0.26 4.67,3.33 9.53,3.6 4.84,0.28 5.01,-2.78 9.84,-2.5 4.73,0.28 4.72,3.15 9.19,3.58 l -0.29,5.02 0.29,-5.02 c 4.62,0.17 4.9,-2.76 9.68,-2.48 4.86,0.29 4.67,3.35 9.52,3.64 4.84,0.28 5.02,-2.76 9.86,-2.47 4.72,0.29 4.7,3.17 9.18,3.61 l -0.32,5.03 0.32,-5.03 c 4.6,0.19 4.9,-2.73 9.68,-2.44 4.85,0.29 4.65,3.36 9.51,3.67 4.83,0.3 5.02,-2.74 9.87,-2.42 4.72,0.29 4.69,3.17 9.16,3.63 l -0.67,10.06 c -4.53,-0.17 -4.86,2.72 -9.6,2.43 z m 228.64,18.42 c -4.83,-0.5 -4.5,-3.53 -9.34,-4.03 -4.81,-0.49 -5.11,2.55 -9.93,2.09 -4.73,-0.46 -4.56,-3.38 -9.09,-3.94 v 0.01 c -4.52,-0.29 -4.93,2.58 -9.66,2.13 -4.82,-0.45 -4.55,-3.49 -9.38,-3.92 -4.82,-0.45 -5.09,2.6 -9.92,2.16 -4.72,-0.42 -4.59,-3.33 -9.12,-3.85 v 0.01 c -4.53,-0.26 -4.92,2.61 -9.65,2.21 -4.83,-0.42 -4.57,-3.48 -9.41,-3.87 -4.83,-0.39 -5.08,2.65 -9.9,2.25 -4.73,-0.38 -4.61,-3.31 -9.16,-3.8 l 0.81,-10.03 c 4.62,0.27 4.96,-2.64 9.73,-2.26 4.85,0.4 4.59,3.45 9.44,3.84 4.84,0.41 5.09,-2.63 9.92,-2.21 4.73,0.39 4.63,3.28 9.09,3.83 l -0.44,5.02 0.44,-5.02 c 4.62,0.29 4.98,-2.64 9.76,-2.2 4.84,0.44 4.57,3.49 9.41,3.92 4.82,0.45 5.11,-2.6 9.94,-2.16 4.72,0.44 4.6,3.33 9.06,3.91 l -0.48,5.02 0.48,-5.01 c 4.61,0.33 5,-2.58 9.77,-2.11 4.84,0.46 4.55,3.51 9.39,4 4.82,0.51 5.13,-2.54 9.97,-2.05 4.7,0.49 4.57,3.34 9.02,4 l -1.08,10.02 c -4.51,-0.37 -4.96,2.53 -9.67,2.04 z m -399.41,188.67 c 4.81,0.25 4.63,3.32 9.44,3.57 4.78,0.25 4.98,-2.81 9.77,-2.56 4.72,0.25 4.65,3.18 9.17,3.54 v 0 c 4.49,0.1 4.83,-2.79 9.53,-2.54 4.82,0.26 4.61,3.31 9.42,3.57 4.78,0.25 5.01,-2.8 9.8,-2.54 4.72,0.24 4.62,3.17 9.14,3.53 l -0.38,5.01 0.38,-5.02 c 4.49,0.1 4.87,-2.79 9.57,-2.54 4.81,0.26 4.57,3.31 9.38,3.57 4.78,0.26 5.04,-2.8 9.84,-2.54 4.71,0.25 4.58,3.17 9.1,3.53 v -0.01 c 4.5,0.1 4.89,-2.77 9.59,-2.52 4.82,0.24 4.55,3.3 9.36,3.55 4.78,0.26 5.07,-2.79 9.86,-2.53 4.73,0.25 4.57,3.16 9.08,3.52 v -0.01 c 4.5,0.11 4.93,-2.77 9.63,-2.52 4.81,0.26 4.51,3.3 9.32,3.56 4.78,0.25 5.1,-2.8 9.9,-2.54 4.71,0.25 4.53,3.16 9.03,3.52 l -1.06,10.01 c -4.57,-0.13 -4.98,2.78 -9.7,2.54 -4.78,-0.26 -4.48,-3.3 -9.26,-3.55 -4.79,-0.26 -5.09,2.78 -9.87,2.54 -4.67,-0.26 -4.54,-3.13 -8.96,-3.52 v -0.01 c -4.57,-0.14 -4.94,2.78 -9.66,2.53 -4.8,-0.25 -4.51,-3.29 -9.31,-3.56 -4.78,-0.24 -5.06,2.8 -9.82,2.54 -4.67,-0.24 -4.57,-3.11 -8.99,-3.51 l 0.43,-5.02 -0.43,5.02 c -4.57,-0.14 -4.92,2.78 -9.64,2.54 -4.79,-0.26 -4.54,-3.3 -9.34,-3.56 -4.77,-0.25 -5.02,2.8 -9.79,2.53 -4.66,-0.24 -4.61,-3.11 -9.02,-3.52 v 0 c -4.57,-0.13 -4.88,2.79 -9.61,2.54 -4.78,-0.26 -4.57,-3.31 -9.35,-3.56 -4.79,-0.25 -5,2.79 -9.78,2.54 -4.66,-0.25 -4.62,-3.12 -9.04,-3.52 l 0.32,-5.03 -0.32,5.02 c -4.57,-0.12 -4.86,2.8 -9.58,2.54 -4.79,-0.24 -4.6,-3.31 -9.4,-3.55 -4.78,-0.26 -4.96,2.8 -9.74,2.54 -4.66,-0.25 -4.65,-3.13 -9.08,-3.53 l 0.56,-10.06 c 4.49,0.11 4.8,-2.78 9.51,-2.53 z m 189.59,10.07 c 4.83,0.26 4.49,3.3 9.29,3.56 4.79,0.25 5.13,-2.8 9.94,-2.53 4.72,0.24 4.5,3.15 9.01,3.51 v -0.01 c 4.5,0.12 4.99,-2.75 9.69,-2.51 4.81,0.27 4.45,3.3 9.26,3.55 4.79,0.26 5.16,-2.77 9.96,-2.52 4.71,0.25 4.47,3.16 8.98,3.52 V 3760 c 4.5,0.11 5.01,-2.76 9.71,-2.5 4.83,0.25 4.42,3.29 9.23,3.54 4.8,0.25 5.21,-2.78 10,-2.53 4.72,0.26 4.44,3.17 8.94,3.52 v -0.01 c 4.51,0.11 5.06,-2.76 9.76,-2.51 4.81,0.26 4.38,3.29 9.19,3.55 4.8,0.26 5.23,-2.78 10.03,-2.53 4.71,0.26 4.42,3.16 8.92,3.51 v 0 c 4.5,0.1 5.07,-2.75 9.78,-2.51 4.82,0.26 4.36,3.29 9.16,3.54 4.8,0.26 5.27,-2.77 10.06,-2.52 4.72,0.26 4.39,3.15 8.89,3.52 v -0.01 c 4.5,0.11 5.11,-2.76 9.81,-2.51 4.81,0.26 4.32,3.28 9.12,3.54 4.81,0.25 5.31,-2.77 10.1,-2.5 4.72,0.24 4.36,3.13 8.86,3.49 v -0.01 c 4.5,0.11 5.14,-2.74 9.85,-2.49 4.81,0.26 4.28,3.26 9.08,3.53 4.81,0.25 5.34,-2.77 10.13,-2.5 4.72,0.24 4.33,3.13 8.82,3.48 v 0.04 c 5.39,1.23 5.43,-1.61 10.14,-0.52 4.54,1.08 3.88,4.09 8.57,5 4.67,0.92 5.2,-2.04 9.84,-1.35 4.55,0.68 4.24,3.71 8.68,4.34 v -0.01 c 4.44,0.34 4.88,-2.54 9.45,-2.05 4.67,0.48 4.47,3.34 9.22,3.62 4.74,0.13 4.82,-2.67 9.45,-2.81 4.55,-0.12 4.75,2.81 9.21,2.81 l 0.24,5.04 -0.24,-5.04 c 4.42,-0.18 4.33,-3.32 8.82,-3.77 4.57,-0.51 4.98,2.54 9.67,2 4.58,-1.01 3.98,-4.01 8.43,-4.97 4.33,-1.04 5.32,2.09 9.46,0.63 v -0.01 c 4.06,-1.58 3.2,-4.36 7.36,-5.82 4.3,-1.38 5.35,0.98 9.49,-1.09 4.08,-2.19 2.55,-4.84 6.48,-6.9 3.4,-2.64 5.18,-0.37 8.68,-2.94 3.18,-2.88 1.76,-4.71 4.63,-7.91 2.87,-3.33 5.13,-1.27 8.16,-4.74 3.02,-3.48 0.77,-5.11 2.86,-9.03 2.16,-3.77 4.74,-2.37 7.04,-6.09 l 4.45,2.34 -4.47,-2.35 c 2.05,-3.81 -0.31,-5.02 1.04,-9.26 1.49,-4.25 4.36,-3.18 5.93,-7.59 1.53,-4.53 -1.32,-4.89 0.07,-9.79 1.1,-4.17 3.96,-3.71 4.94,-7.98 l 9.89,1.89 c -0.85,4.72 2.04,5.43 0.71,10.49 -1.27,4.41 -4.52,3.94 -6.1,8.59 -1.67,4.75 1.19,5.81 -0.56,10.7 -1.6,4.81 -4.53,3.64 -6.99,7.66 v -0.02 c -2.32,4.24 0.14,5.84 -2.46,10.33 -2.57,4.62 -5.31,2.64 -8.61,6.51 -3.35,3.84 -1.1,5.9 -4.6,9.88 -3.51,3.79 -5.94,1.33 -9.63,4.24 h -0.01 c -3.76,3.04 -2.11,5.55 -6.29,8.69 -4.63,2.51 -6.17,-0.15 -10.65,2.24 -4.51,2.27 -3.08,5.49 -8.02,7.13 -4.78,1.7 -5.9,-0.95 -10.36,0.45 v 0 c -4.47,1.79 -3.89,4.3 -8.82,5.49 -5.04,1.09 -5.64,-1.91 -10.53,-0.84 -4.95,0.56 -4.55,3.59 -9.61,4.15 -4.94,0.49 -5.31,-2.14 -9.91,-2.25 v -0.01 c -4.72,0.24 -4.76,3.17 -9.76,3.29 -5.06,0.13 -4.97,-3.18 -9.92,-3.32 -4.93,-0.3 -5.16,2.96 -10.14,2.45 -4.87,-0.51 -4.72,-3.39 -9.25,-4.02 l 0.62,-5 -0.62,4.99 c -4.68,-0.45 -5.19,2.32 -10.08,1.6 -4.96,-0.75 -4.4,-3.81 -9.25,-4.77 -4.83,-0.94 -5.49,2.02 -10.38,0.86 -4.52,-1.09 -4.76,-4.1 -8.04,-5.31 l 0.89,-4.93 -0.9,4.95 c -4.58,-0.13 -5.19,2.75 -9.92,2.5 -4.79,-0.25 -4.26,-3.26 -9.05,-3.51 -4.78,-0.26 -5.31,2.76 -10.08,2.5 -4.66,-0.24 -4.33,-3.09 -8.74,-3.48 l 0.84,-4.97 -0.84,4.96 c -4.57,-0.13 -5.17,2.76 -9.88,2.5 -4.79,-0.24 -4.29,-3.26 -9.09,-3.51 -4.78,-0.26 -5.27,2.76 -10.04,2.51 -4.66,-0.25 -4.37,-3.1 -8.77,-3.49 v 0 c -4.58,-0.13 -5.14,2.76 -9.86,2.5 -4.78,-0.25 -4.31,-3.26 -9.12,-3.53 -4.77,-0.25 -5.23,2.77 -10.01,2.52 -4.67,-0.24 -4.39,-3.09 -8.8,-3.49 l 0.74,-4.98 -0.74,4.97 c -4.57,-0.13 -5.1,2.77 -9.82,2.52 -4.79,-0.25 -4.36,-3.28 -9.15,-3.54 -4.78,-0.25 -5.21,2.78 -9.99,2.52 -4.66,-0.25 -4.42,-3.1 -8.83,-3.49 v 0 c -4.57,-0.14 -5.08,2.75 -9.79,2.52 -4.78,-0.26 -4.39,-3.3 -9.18,-3.54 -4.78,-0.26 -5.17,2.76 -9.96,2.52 -4.66,-0.25 -4.45,-3.1 -8.86,-3.49 l 0.64,-5 -0.64,4.98 c -4.56,-0.14 -5.04,2.77 -9.75,2.52 -4.8,-0.26 -4.41,-3.29 -9.22,-3.54 -4.78,-0.25 -5.14,2.78 -9.92,2.53 -4.67,-0.24 -4.47,-3.12 -8.89,-3.51 v 0 c -4.57,-0.14 -5.02,2.78 -9.73,2.52 -4.79,-0.25 -4.45,-3.29 -9.24,-3.53 -4.79,-0.27 -5.12,2.77 -9.89,2.52 -4.67,-0.25 -4.52,-3.12 -8.93,-3.5 l 1.07,-10.04 c 4.5,0.11 4.95,-2.77 9.65,-2.52 z m 433.17,-59.57 c 0.56,-4.33 -2.13,-4.89 -1.67,-9.33 0.53,-4.53 3.62,-4.26 3.8,-8.95 0.21,-4.68 -2.78,-4.72 -2.99,-9.22 -0.25,-4.41 2.97,-4.76 2.44,-9.11 l 10.02,-1.07 c 0.79,4.75 3.42,4.68 3.69,9.79 0.21,5.2 -2.93,5.14 -3.14,10.17 -0.2,5.01 2.79,5.26 2.2,10.37 -0.53,4.99 -3.55,4.7 -4.45,9.25 z M 3907.6,3544.45 c -4.85,-0.37 -4.6,-3.43 -9.44,-3.81 -4.83,-0.37 -5.05,2.68 -9.88,2.31 -4.74,-0.36 -4.65,-3.29 -9.19,-3.74 v 0 c -4.53,-0.2 -4.89,2.69 -9.62,2.33 -4.84,-0.35 -4.63,-3.4 -9.46,-3.75 -4.83,-0.35 -5.05,2.7 -9.87,2.35 -4.75,-0.33 -4.66,-3.26 -9.21,-3.69 v 0.01 c -4.54,-0.19 -4.88,2.7 -9.61,2.37 -4.84,-0.34 -4.64,-3.38 -9.48,-3.72 -4.83,-0.33 -5.03,2.74 -9.87,2.41 -4.74,-0.32 -4.67,-3.25 -9.22,-3.66 l 0.67,-10.06 c 4.62,0.21 4.92,-2.71 9.69,-2.4 4.86,0.33 4.64,3.38 9.5,3.7 4.83,0.33 5.05,-2.71 9.88,-2.38 4.72,0.32 4.68,3.2 9.15,3.67 l -0.36,5.03 0.36,-5.02 c 4.61,0.22 4.92,-2.69 9.71,-2.36 4.84,0.35 4.63,3.4 9.47,3.75 4.83,0.35 5.06,-2.72 9.89,-2.36 4.72,0.37 4.66,3.24 9.13,3.73 l -0.37,5.04 0.37,-5.02 c 4.61,0.23 4.95,-2.68 9.72,-2.33 4.85,0.36 4.62,3.42 9.46,3.79 4.83,0.38 5.07,-2.66 9.91,-2.28 4.72,0.37 4.64,3.24 9.11,3.77 l -0.81,10.03 c -4.52,-0.23 -4.91,2.67 -9.63,2.29 z m 296.43,48.36 c -3.78,-2.38 -1.95,-5.45 -6.26,-7.36 -4.23,-2 -5.58,0.76 -9.67,-1.2 -4.06,-1.85 -2.92,-4.9 -7.16,-6.27 l 3.49,-9.45 c 4.57,1.27 5.69,-1.1 10.32,1 4.66,2.21 3.32,4.96 7.85,7.13 4.57,2.03 5.88,-0.11 10.29,2.65 4.24,2.83 2.7,5.28 6.49,8.02 l -6.22,7.94 c -3.69,-2.31 -5.48,-0.01 -9.13,-2.46 z m 32.26,29.92 c -2.29,-3.63 -4.59,-2.4 -6.99,-5.96 -2.73,-3.45 -0.28,-5.31 -3.11,-8.95 -2.71,-3.72 -5.39,-1.22 -8.49,-4.33 -3.21,-2.91 -1.25,-5.35 -4.54,-8.22 l 6.2,-7.93 c 3.78,2.99 5.68,1 9.53,4.49 3.74,3.73 1.93,5.43 4.99,9.55 3.13,4.01 5.56,2.15 8.81,6.36 2.88,4.29 0.25,6.08 2.49,10.23 z m -138.77,-58.98 c -4.79,-0.67 -4.36,-3.71 -9.16,-4.36 -4.8,-0.62 -5.2,2.42 -9.98,1.8 -4.69,-0.6 -4.44,-3.52 -8.95,-4.2 l 0.61,-4.99 -0.61,5 c -4.51,-0.4 -5,2.46 -9.7,1.9 -4.81,-0.56 -4.46,-3.61 -9.28,-4.18 -4.81,-0.52 -5.14,2.52 -9.94,1.99 -4.72,-0.51 -4.53,-3.43 -9.05,-4.05 l 1.08,-10.01 c 4.61,0.4 5.03,-2.51 9.8,-1.99 4.84,0.55 4.5,3.57 9.34,4.11 4.82,0.57 5.18,-2.47 10,-1.9 4.71,0.56 4.52,3.43 8.96,4.12 v 0 c 4.61,0.47 5.08,-2.42 9.85,-1.81 4.84,0.62 4.45,3.64 9.28,4.27 4.81,0.64 5.23,-2.36 10.05,-1.69 4.71,0.65 4.46,3.53 8.89,4.31 l -1.46,9.98 c -4.5,-0.5 -5.05,2.35 -9.73,1.7 z m 159.22,92.44 -10.02,1.08 c -0.75,-4.29 -3.49,-4.03 -4.26,-8.33 -1.07,-4.33 1.92,-5.05 0.81,-9.55 -1.34,-4.43 -4.46,-3.32 -5.97,-7.46 -1.46,-4.08 1,-5.36 -1.01,-9.2 l 8.88,-4.75 c 2.45,4.18 5.3,2.99 7.1,7.9 1.83,4.96 -0.81,5.89 0.66,10.76 1.2,4.9 4.17,4.18 5.41,9.28 0.88,5.01 -2.09,5.63 -1.6,10.27 z m -85.42,-78.09 c -4.41,-1.37 -3.53,-4.45 -8.12,-5.7 -4.65,-1.1 -5.35,1.89 -9.94,0.82 -4.55,-0.98 -4.1,-3.82 -8.51,-4.84 l 1.95,-9.87 c 4.59,0.82 5.29,-2.09 10.07,-1.05 4.85,1.13 4.15,4.1 8.95,5.21 4.77,1.31 5.57,-1.48 10.41,0.02 4.74,1.51 3.97,4.28 8.3,5.84 l -3.5,9.45 c -4.25,-1.21 -5.3,1.51 -9.61,0.12 z m -36.3,-8.46 c -4.73,-0.82 -4.2,-3.84 -8.97,-4.66 -4.73,-0.82 -5.24,2.26 -9.98,1.5 -4.66,-0.72 -4.34,-3.63 -8.82,-4.44 l 1.46,-9.97 c 4.61,0.61 5.16,-2.27 9.92,-1.53 4.84,0.76 4.35,3.71 9.16,4.55 4.81,0.84 5.34,-2.18 10.16,-1.34 4.71,0.82 4.34,3.73 8.75,4.75 l -1.95,9.89 c -4.44,-0.73 -5.09,2.04 -9.73,1.25"
         style="fill:#231f20;fill-opacity:1;fill-rule:nonzero;stroke:none"
         id="path214" />
      <path
         inkscape:connector-curvature="0"
         d="m 3685.94,3843.97 -9.26,7.63 c 0,0 -16.41,-4.16 -26.13,-6.02 -9.71,-1.85 -11.9,3.13 -8.32,6.72 3.58,3.58 -1.04,11.67 -1.04,11.67 0,0 -9.6,-9.6 -19.08,19.31 -9.47,28.91 -29.06,6.17 -29.06,6.17 v 0 c -1.81,-1.7 -3.52,-3.63 -4.23,-5.43 -1.86,-4.63 1.61,-3.01 3.93,-7.87 2.31,-4.86 10.17,-7.17 8.55,-13.87 -0.77,-3.21 -1.05,-5.9 -1.67,-8.12 -3.69,2.3 -8.01,3.69 -12.68,3.69 -6.6,0 -12.57,-2.68 -16.92,-6.99 -4.72,5.16 -5.67,7.79 -7.43,9.57 -2.03,2.03 -6.74,4.51 -10.31,0.92 -3.6,-3.58 -10.41,-7.39 -6.02,-11.78 l 16.74,-16.76 c 0.53,-12.81 11.01,-23.07 23.94,-23.07 3.34,0 6.51,0.69 9.39,1.9 l 29.71,-21.09 59.89,53.42"
         style="fill:#231f20;fill-opacity:1;fill-rule:nonzero;stroke:none"
         id="path216" />
      <path
         inkscape:connector-curvature="0"
         d="m 4856.5,3800.02 c 0,0 15.92,-12.54 6.16,-27.44 -9.78,-14.89 23.55,-4.7 23.55,-4.7 0,0 -1.58,27.84 -2.75,29.01 -1.17,1.17 -26.96,3.13 -26.96,3.13"
         style="fill:#231f20;fill-opacity:1;fill-rule:nonzero;stroke:none"
         id="path218" />
      <path
         inkscape:connector-curvature="0"
         d="m 4917.95,3819.23 9.02,9.03 -25.09,15.67 -42.08,-18.04 h -18.47 c -0.76,0 -1.39,-0.4 -1.39,-0.89 v -24.07 c 0,-0.5 0.63,-0.91 1.39,-0.91 h 15.17 c 1.57,-2.33 3.6,-4.56 6.16,-6.45 l 10.15,-7.54 c -2.89,-2.16 -5.23,-4.97 -6.85,-8.22 h -0.33 c -4.46,0 -8.36,-2.01 -10.86,-5.05 -1.01,0.37 -2.09,0.6 -3.23,0.6 h -2.03 c -5.27,0 -9.57,-4.28 -9.57,-9.57 v -6.72 c 0,-5.3 4.3,-9.57 9.57,-9.57 h 2.03 c 1.3,0 2.55,0.25 3.69,0.73 2.5,-2.75 6.21,-4.52 10.4,-4.52 h 2.88 c 3.29,0 6.26,1.11 8.62,2.9 2.86,-1.28 6.01,-2.02 9.35,-2.02 12.72,0 23.02,10.3 23.02,23 0,8.02 -4.1,15.06 -10.31,19.18 l 0.13,0.17 c 4.49,6.06 1.09,16.2 -7.6,22.65 l -11.07,8.2 c -0.38,0.29 -0.81,0.47 -1.2,0.74 14.61,3.9 38.5,0.7 38.5,0.7"
         style="fill:#231f20;fill-opacity:1;fill-rule:nonzero;stroke:none"
         id="path220" />
    </g>
  </g>
</svg>
