<?xml version="1.0" encoding="UTF-8" standalone="no"?>
<!-- Created with Inkscape (http://www.inkscape.org/) -->

<svg
   xmlns:dc="http://purl.org/dc/elements/1.1/"
   xmlns:cc="http://creativecommons.org/ns#"
   xmlns:rdf="http://www.w3.org/1999/02/22-rdf-syntax-ns#"
   xmlns:svg="http://www.w3.org/2000/svg"
   xmlns="http://www.w3.org/2000/svg"
   xmlns:sodipodi="http://sodipodi.sourceforge.net/DTD/sodipodi-0.dtd"
   xmlns:inkscape="http://www.inkscape.org/namespaces/inkscape"
   width="303.45493"
   height="185.12799"
   id="svg3163"
   version="1.1"
   inkscape:version="0.48.4 r9939"
   sodipodi:docname="New document 3">
  <defs
     id="defs3165" />
  <sodipodi:namedview
     id="base"
     pagecolor="#ffffff"
     bordercolor="#666666"
     borderopacity="1.0"
     inkscape:pageopacity="0.0"
     inkscape:pageshadow="2"
     inkscape:zoom="1.979899"
     inkscape:cx="151.86452"
     inkscape:cy="117.01981"
     inkscape:document-units="px"
     inkscape:current-layer="layer1"
     showgrid="false"
     fit-margin-top="0"
     fit-margin-left="0"
     fit-margin-right="0"
     fit-margin-bottom="0"
     inkscape:window-width="1320"
     inkscape:window-height="747"
     inkscape:window-x="46"
     inkscape:window-y="21"
     inkscape:window-maximized="1" />
  <metadata
     id="metadata3168">
    <rdf:RDF>
      <cc:Work
         rdf:about="">
        <dc:format>image/svg+xml</dc:format>
        <dc:type
           rdf:resource="http://purl.org/dc/dcmitype/StillImage" />
        <dc:title></dc:title>
      </cc:Work>
    </rdf:RDF>
  </metadata>
  <g
     inkscape:label="Layer 1"
     inkscape:groupmode="layer"
     id="layer1"
     transform="translate(-159.70111,-576.94108)">
    <g
       transform="matrix(0.13333333,0,0,-0.13333333,91.024044,1201.5104)"
       id="g3088">
      <path
         inkscape:connector-curvature="0"
         d="m 2338.32,4201.17 c -250.03,-0.02 -452.67,-202.66 -452.7,-452.68 0.03,-250.02 202.67,-452.65 452.7,-452.68 249.99,0.03 452.65,202.66 452.66,452.68 h 0.01 c -0.02,250.02 -202.68,452.66 -452.67,452.68 z m 396.59,-452.68 h 0.03 c -0.01,-22.05 -1.89,-43.65 -5.34,-64.7 l -371.39,64.41 373.06,53.49 c 2.33,-17.4 3.64,-35.14 3.64,-53.2 z m -6.41,-70.83 c -7.13,-39.58 -20.11,-77.09 -38.05,-111.62 l -333.31,176.03 z m -371.19,76.7 338.45,166.24 c 16.88,-35.02 28.76,-72.89 34.72,-112.73 z m 335.6,171.78 -338.34,-166.18 270.35,262.51 c 27.19,-28.44 50.18,-60.85 67.99,-96.33 z m -72.3,100.85 -270.37,-262.56 176.06,333.36 c 34.11,-18.4 65.23,-41.65 92.45,-68.85 0.64,-0.64 1.23,-1.31 1.86,-1.95 z m -270.84,-294.77 262.52,-270.34 c -28.45,-27.2 -60.86,-50.18 -96.33,-67.99 z m 160.64,-341.17 c -35.02,-16.89 -72.89,-28.76 -112.73,-34.74 l -53.51,373.17 z m -165.67,376.3 64.4,371.34 c 39.58,-7.14 77.07,-20.13 111.62,-38.06 z m 58.27,372.43 -64.42,-371.39 -53.49,373.07 c 17.4,2.34 35.15,3.65 53.22,3.66 22.04,-0.01 43.63,-1.89 64.69,-5.34 z m -236.81,-33.86 c 35.01,16.9 72.89,28.78 112.72,34.76 l 53.52,-373.2 z m 165.68,-376.26 -64.42,-371.36 c -39.57,7.14 -77.07,20.12 -111.62,38.06 z m -5.03,35.11 -262.53,270.32 c 28.44,27.19 60.85,50.18 96.33,68 z m -268.99,264.17 c 0.64,0.63 1.32,1.23 1.95,1.86 L 2322.38,3760.43 1989,3936.5 c 18.41,34.1 41.65,65.22 68.86,92.44 z m -116.18,-280.45 c 0,22.05 1.88,43.64 5.34,64.71 l 371.38,-64.42 -373.06,-53.49 c -2.34,17.41 -3.66,35.14 -3.66,53.2 z m 377.6,-5.87 -338.41,-166.23 c -16.9,35 -28.78,72.88 -34.74,112.72 z m -371.17,76.7 c 7.14,39.59 20.11,77.07 38.05,111.63 l 333.29,-176.02 z m 35.6,-248.48 338.31,166.19 -270.34,-262.52 c -27.18,28.45 -50.16,60.86 -67.97,96.33 z m 72.27,-100.84 270.38,262.54 -176.05,-333.34 c -34.11,18.4 -65.23,41.64 -92.45,68.84 -0.64,0.63 -1.24,1.32 -1.88,1.96 z m 217.61,-112.79 64.42,371.38 53.49,-373.07 c -17.41,-2.34 -35.13,-3.64 -53.18,-3.66 -22.07,0.02 -43.66,1.89 -64.73,5.35 z m 345.16,110.83 c -0.63,-0.64 -1.31,-1.24 -1.95,-1.87 l -262.59,270.41 333.39,-176.09 c -18.4,-34.1 -41.64,-65.24 -68.85,-92.45"
         style="fill:#231f20;fill-opacity:1;fill-rule:nonzero;stroke:none"
         id="path68" />
      <path
         inkscape:connector-curvature="0"
         d="m 967.77,4201.17 c -250.02,-0.02 -452.668,-202.66 -452.692,-452.68 0.024,-250.02 202.672,-452.65 452.692,-452.68 250,0.03 452.65,202.66 452.66,452.68 h 0.02 c -0.03,250.02 -202.68,452.66 -452.68,452.68 z m 396.6,-452.68 h 0.02 c 0,-22.05 -1.89,-43.65 -5.34,-64.7 l -371.382,64.41 373.052,53.49 c 2.34,-17.4 3.65,-35.14 3.65,-53.2 z m -6.41,-70.83 c -7.14,-39.58 -20.11,-77.09 -38.06,-111.62 l -333.295,176.03 z m -371.183,76.7 338.433,166.24 c 16.89,-35.02 28.76,-72.89 34.73,-112.73 z m 335.593,171.78 -338.347,-166.18 270.347,262.51 c 27.2,-28.44 50.18,-60.85 68,-96.33 z m -72.3,100.85 -270.375,-262.56 176.065,333.36 c 34.1,-18.4 65.22,-41.65 92.45,-68.85 0.63,-0.64 1.23,-1.31 1.86,-1.95 z m -270.84,-294.77 262.51,-270.34 c -28.44,-27.2 -60.86,-50.18 -96.33,-67.99 z m 160.63,-341.17 c -35.01,-16.89 -72.89,-28.76 -112.72,-34.74 l -53.511,373.17 z m -165.665,376.3 64.405,371.34 c 39.58,-7.14 77.08,-20.13 111.61,-38.06 z m 58.265,372.43 -64.413,-371.39 -53.492,373.07 c 17.41,2.34 35.148,3.65 53.215,3.66 22.05,-0.01 43.64,-1.89 64.69,-5.34 z m -236.808,-33.86 c 35.012,16.9 72.887,28.78 112.723,34.76 l 53.52,-373.2 z m 165.68,-376.26 -64.418,-371.36 c -39.574,7.14 -77.07,20.12 -111.617,38.06 z m -5.031,35.11 -262.528,270.32 c 28.438,27.19 60.856,50.18 96.332,68 z m -268.988,264.17 c 0.64,0.63 1.316,1.23 1.957,1.86 L 951.836,3760.43 618.457,3936.5 c 18.406,34.1 41.648,65.22 68.856,92.44 z M 571.145,3748.49 c 0,22.05 1.875,43.64 5.332,64.71 l 371.378,-64.42 -373.054,-53.49 c -2.34,17.41 -3.656,35.14 -3.656,53.2 z m 377.589,-5.87 -338.406,-166.23 c -16.906,35 -28.773,72.88 -34.754,112.72 z m -371.168,76.7 c 7.137,39.59 20.114,77.07 38.047,111.63 l 333.293,-176.02 z m 35.586,-248.48 338.325,166.19 -270.34,-262.52 c -27.176,28.45 -50.164,60.86 -67.985,96.33 z M 685.445,3470 955.813,3732.54 779.762,3399.2 c -34.11,18.4 -65.231,41.64 -92.449,68.84 -0.633,0.63 -1.235,1.32 -1.868,1.96 z m 217.598,-112.79 64.422,371.38 53.495,-373.07 c -17.41,-2.34 -35.14,-3.64 -53.19,-3.66 -22.063,0.02 -43.661,1.89 -64.727,5.35 z m 345.167,110.83 c -0.64,-0.64 -1.31,-1.24 -1.96,-1.87 l -262.582,270.41 333.392,-176.09 c -18.4,-34.1 -41.65,-65.24 -68.85,-92.45"
         style="fill:#231f20;fill-opacity:1;fill-rule:nonzero;stroke:none"
         id="path70" />
      <path
         inkscape:connector-curvature="0"
         d="m 2465.93,4579.39 c 10.85,10.85 -4.29,19.25 -10.41,25.37 -6.12,6.12 -16.81,8.87 -21.24,7.18 -4.42,-1.69 -9.32,-9.32 -9.32,-5.96 0,3.37 -14.21,5.35 -27.82,-1.22 -13.61,-6.57 -15.59,-22.62 -15.59,-30.87 0,-8.25 -13.76,-17.43 -30.57,-26.9 -10.05,-5.67 -41.41,-6.96 -65.01,-7.09 -12.14,2.69 -24.29,3.55 -35.81,3.58 -19.87,-0.04 -38.12,-2.66 -50.59,-5.01 -3.59,2.8 -7.61,4.13 -11.58,3.46 -4.38,-0.74 -7.94,-3.88 -10.48,-8.39 -0.24,-0.24 -0.46,-0.44 -0.72,-0.69 -3.41,-3.42 -7.64,-7.65 -12.29,-7.65 -4.63,0 -53.25,-8.74 -70.18,-12.02 -16.93,-3.28 -15.84,0 -19.12,0 -3.27,0 -1.91,1.91 -5.18,1.91 -3.28,0 -28.41,-8.46 -34.69,-10.91 -3.4,-1.34 -5.74,-3.14 -7.19,-4.52 -4.35,-0.3 -7.83,-3.85 -7.83,-8.29 0,-4.64 3.76,-8.41 8.4,-8.41 2.15,0 4.06,0.87 5.55,2.2 4.51,-6.8 6.4,-14.4 7.13,-20.63 -1.03,0.43 -2.15,0.7 -3.34,0.7 -4.64,0 -8.4,-3.77 -8.4,-8.41 0,-4.64 3.76,-8.4 8.4,-8.4 1.61,0 3.02,0.56 4.29,1.34 3.12,-7.56 6.66,-13.7 7,-14.29 -0.79,-48.16 -40.41,-38.08 -40.41,-38.08 0,0 -587.55,-30.1 -638.41,-30.1 -17.75,0 -30.47,2.29 -39.61,5.25 l -5.25,17.35 5.63,1.36 c 0.66,0.16 1.07,0.84 0.91,1.5 l -3.91,16.18 c -0.16,0.67 -0.83,1.09 -1.5,0.92 l -6.69,-1.61 -51.87,171.26 c -5.75,16.74 -4.31,9.57 -12.44,17.7 -8.13,8.13 3.35,10.05 19.14,17.7 15.78,7.65 48.8,29.19 56.45,29.19 7.65,0 15.31,-4.31 29.19,-4.31 13.87,0 61.71,3.83 61.71,21.05 0,17.23 -41.14,19.13 -98.55,19.13 -88.04,-4.3 -267.93,4.31 -267.93,4.31 -15.31,0 -20.32,-7.65 -20.32,-14.11 0,-6.45 7.41,-7.41 11.72,-11.72 4.31,-4.31 7.18,-7.17 15.31,-10.53 8.14,-3.34 11,0.97 16.74,-4.78 5.75,-5.74 22.01,-12.92 29.67,-12.92 h 6.69 c 5.27,-14.82 29.67,-33.49 29.67,-33.49 10.29,-10.28 41.15,-2.63 48.08,0.72 6.94,3.35 3.35,-3.35 -1.2,-7.89 -4.53,-4.55 -2.14,-7.42 0,-9.57 2.16,-2.15 3.59,-3.59 6.7,-6.7 3.11,-3.11 6.22,0 9.57,3.35 3.35,3.35 11.96,0 20.09,0 8.14,0 7.66,-7.65 7.66,-7.65 l 48.96,-169.2 -12.51,-3.02 c -5.14,-1.24 -8.29,-6.41 -7.06,-11.55 1.25,-5.14 6.42,-8.3 11.56,-7.05 l 13.33,3.22 11.02,-38.08 -317.121,-554.21 c 0,0 -7.269,-7.27 -7.269,-14.54 0,-7.26 -4.156,-1.04 -10.379,-7.26 -6.227,-6.23 -15.566,-34.26 29.066,-40.49 44.633,-6.23 507.613,-91.35 507.613,-91.35 l 35.3,-4.15 548.1,580.28 c 0,0 16.6,10.38 22.84,-7.27 6.21,-17.65 71.5,-323.98 216.55,-456.11 l 12.41,11.76 c 0,0 -86.75,122.56 -176.03,466.15 0,0 1.56,14.02 -7.27,22.84 l -47.52,161.76 -2.07,20.76 c 0,0 -12.68,13.43 -16.03,27.16 -0.03,0.54 -0.15,1.1 -0.33,1.67 l -0.11,0.6 c -1.91,9.65 56.18,20.05 80.47,20.05 5.44,0 13.8,1.51 24.44,0.53 0.17,-0.02 0.34,-0.02 0.52,-0.03 0.65,-0.07 1.2,-0.05 1.87,-0.14 v 0.15 c 0.56,0.02 1.11,-0.08 1.66,0.01 4.24,0.72 7.74,3.67 10.27,7.96 10.47,1.96 26.16,4.26 41.7,4.22 16.26,0.15 31.95,-2.83 40.35,-7.99 4.3,-2.55 6.94,-5.17 9,-8.69 1.97,-3.53 3.61,-8.47 3.65,-16.85 0.01,-8.43 -1.89,-20.2 -7.13,-35.41 -12.35,-35.87 -38.92,-58.47 -63.98,-72.61 -12.45,-6.99 -24.24,-11.68 -32.73,-14.5 -3.92,-1.31 -10.71,-3.1 -12.96,-3.7 -3.08,-0.39 -18.57,-3.43 -14.57,-24.52 3.91,-20.73 10.91,-26.25 20.94,-25.04 l 0.04,-0.16 c 0.3,0.08 1.58,0.35 3.62,0.86 0.11,0.02 0.23,0.04 0.34,0.07 0.02,0 0.04,0.02 0.05,0.02 8.79,2.2 34.45,9.41 59.67,23.53 31.5,17.65 69.01,48.63 86.69,99.84 6.54,19.04 9.84,35.99 9.84,51.62 0.02,5.33 -0.54,10.47 -1.35,15.48 9.16,17.68 27.07,20.94 32.67,20.94 6.42,0 18.04,2.76 22.63,4.59 4.57,1.83 8.87,6.42 6.41,-1.22 -2.44,-7.64 6.42,-27.51 4.59,-35.15 -1.83,-7.65 -1.99,-14.22 -9.47,-18.35 -7.5,-4.12 -9.48,-12.84 -7.66,-26.28 1.84,-13.46 16.21,-19.57 16.21,-19.57 0,-8.87 6.12,-14.06 6.12,-14.06 0,0 23.84,-23.85 26.89,-26.9 3.07,-3.06 7.03,-3.37 9.78,-0.62 2.75,2.75 -1.52,8.87 -1.52,8.87 0,0 -4.43,4.44 -14.36,14.37 -10.04,10.03 -6.42,69.08 -6.42,70.92 0,1.83 2.14,26.9 -4.29,45.86 -6.4,18.95 3.36,35.76 3.36,35.76 0,0 18.5,33.78 29.36,44.63 z M 1016.54,3751.71 c -5.36,0.73 -9.48,1.62 -12.79,2.61 l 32.51,43.07 269.85,490.35 c 14.71,14.71 15.62,-5.57 15.62,-5.57 L 1498.2,3691.5 c 0,0 -443.25,55.02 -481.66,60.21 z m 1052.6,512.81 -536.76,-547.86 c -3.14,10.28 -168.16,550.22 -175.35,579 -4.14,16.52 3.81,22.63 11.43,24.84 v 0 c 0,0 635.27,19.8 648.77,19.8 13.5,0 51.91,4.15 62.29,-28.03 10.38,-32.18 -10.38,-47.75 -10.38,-47.75"
         style="fill:#231f20;fill-opacity:1;fill-rule:nonzero;stroke:none"
         id="path72" />
      <path
         inkscape:connector-curvature="0"
         d="m 1670.56,3641.98 c 0.12,2.31 7.22,4.47 7.22,6.82 0,2.35 -7.1,4.5 -7.22,6.82 -0.12,2.35 6.74,5.2 6.5,7.51 -0.24,2.33 -7.52,3.77 -7.86,6.06 -0.36,2.32 6.17,5.85 5.7,8.13 -0.46,2.29 -7.85,2.98 -8.44,5.23 -0.58,2.26 5.56,6.43 4.85,8.66 -0.7,2.23 -8.12,2.15 -8.93,4.35 -0.81,2.19 4.87,6.96 3.95,9.1 -0.92,2.16 -8.3,1.32 -9.32,3.41 -1.04,2.11 4.12,7.44 2.99,9.47 -1.13,2.05 -8.39,0.47 -9.62,2.44 -1.24,1.98 3.35,7.82 2.02,9.73 -1.33,1.91 -8.4,-0.38 -9.82,1.46 -1.43,1.84 2.56,8.1 1.04,9.88 -1.53,1.76 -8.31,-1.23 -9.92,0.47 -1.61,1.68 1.72,8.32 0.03,9.93 -1.69,1.6 -8.14,-2.06 -9.92,-0.53 -1.76,1.51 0.88,8.44 -0.96,9.88 -1.84,1.42 -7.9,-2.87 -9.8,-1.53 -1.92,1.33 0.01,8.49 -1.96,9.73 -1.98,1.23 -7.57,-3.64 -9.61,-2.51 -2.05,1.14 -0.84,8.46 -2.93,9.49 -2.1,1.03 -7.16,-4.4 -9.31,-3.48 -2.14,0.91 -1.7,8.33 -3.89,9.14 -2.17,0.81 -6.66,-5.1 -8.9,-4.4 -2.22,0.7 -2.53,8.11 -4.79,8.7 -2.26,0.58 -6.12,-5.76 -8.41,-5.29 -2.28,0.47 -3.35,7.82 -5.66,8.17 -2.3,0.34 -5.49,-6.36 -7.82,-6.12 -2.31,0.23 -4.12,7.44 -6.47,7.55 -2.3,0.12 -4.81,-6.87 -7.16,-6.87 -2.34,0 -4.85,6.99 -7.16,6.87 -2.35,-0.11 -4.16,-7.32 -6.47,-7.55 -2.33,-0.24 -5.52,6.46 -7.82,6.12 -2.31,-0.35 -3.38,-7.7 -5.66,-8.17 -2.29,-0.47 -6.15,5.87 -8.4,5.29 -2.27,-0.58 -2.57,-8 -4.79,-8.7 -2.23,-0.7 -6.72,5.22 -8.9,4.4 -2.19,-0.8 -1.74,-8.22 -3.88,-9.14 -2.15,-0.91 -7.22,4.51 -9.31,3.48 -2.09,-1.03 -0.88,-8.35 -2.93,-9.48 -2.04,-1.14 -7.63,3.74 -9.61,2.52 -1.98,-1.25 -0.04,-8.41 -1.95,-9.74 -1.92,-1.34 -7.97,2.95 -9.81,1.53 -1.85,-1.43 0.8,-8.37 -0.97,-9.89 -1.77,-1.52 -8.22,2.15 -9.92,0.54 -1.68,-1.6 1.65,-8.24 0.04,-9.93 -1.6,-1.69 -8.4,1.3 -9.92,-0.47 -1.52,-1.77 2.46,-8.03 1.03,-9.87 -1.43,-1.84 -8.48,0.45 -9.82,-1.46 -1.34,-1.92 3.26,-7.75 2.02,-9.73 -1.23,-1.98 -8.48,-0.4 -9.62,-2.45 -1.14,-2.04 4.03,-7.36 3,-9.46 -1.04,-2.09 -8.41,-1.27 -9.34,-3.41 -0.91,-2.14 4.76,-6.92 3.95,-9.12 -0.81,-2.18 -8.23,-2.11 -8.93,-4.35 -0.7,-2.21 5.44,-6.4 4.85,-8.66 -0.58,-2.25 -7.97,-2.94 -8.44,-5.23 -0.47,-2.28 6.06,-5.81 5.71,-8.13 -0.35,-2.3 -7.64,-3.73 -7.87,-6.07 -0.23,-2.3 6.62,-5.16 6.5,-7.5 -0.11,-2.32 -7.21,-4.47 -7.21,-6.82 0,-2.35 7.1,-4.51 7.21,-6.82 0.12,-2.35 -6.73,-5.21 -6.5,-7.51 0.23,-2.34 7.52,-3.77 7.87,-6.06 0.35,-2.32 -6.18,-5.85 -5.71,-8.13 0.47,-2.3 7.86,-2.98 8.44,-5.23 0.59,-2.27 -5.55,-6.45 -4.85,-8.66 0.69,-2.24 8.12,-2.16 8.93,-4.35 0.81,-2.18 -4.86,-6.97 -3.95,-9.11 0.92,-2.15 8.3,-1.32 9.32,-3.41 1.04,-2.1 -4.13,-7.43 -3,-9.47 1.14,-2.04 8.4,-0.47 9.63,-2.44 1.24,-1.99 -3.35,-7.81 -2.02,-9.72 1.33,-1.92 8.39,0.38 9.82,-1.46 1.43,-1.85 -2.55,-8.12 -1.03,-9.89 1.52,-1.76 8.31,1.23 9.92,-0.46 1.6,-1.69 -1.73,-8.32 -0.04,-9.93 1.69,-1.61 8.15,2.05 9.92,0.53 1.76,-1.52 -0.88,-8.45 0.96,-9.88 1.84,-1.43 7.89,2.86 9.81,1.52 1.91,-1.32 -0.03,-8.48 1.96,-9.73 1.98,-1.23 7.57,3.64 9.61,2.52 2.04,-1.15 0.83,-8.47 2.94,-9.49 2.08,-1.03 7.14,4.39 9.29,3.47 2.14,-0.92 1.69,-8.33 3.89,-9.14 2.18,-0.81 6.67,5.1 8.89,4.4 2.23,-0.7 2.54,-8.11 4.8,-8.7 2.25,-0.58 6.12,5.76 8.41,5.29 2.28,-0.46 3.35,-7.81 5.66,-8.17 2.3,-0.34 5.5,6.36 7.83,6.12 2.3,-0.23 4.11,-7.43 6.46,-7.55 2.31,-0.11 4.82,6.87 7.16,6.87 2.35,0 4.86,-6.98 7.18,-6.87 2.34,0.12 4.14,7.32 6.45,7.55 2.34,0.24 5.53,-6.46 7.82,-6.12 2.32,0.36 3.38,7.71 5.66,8.17 2.29,0.47 6.14,-5.87 8.41,-5.29 2.26,0.58 2.57,8 4.78,8.7 2.23,0.7 6.72,-5.21 8.9,-4.4 2.2,0.8 1.75,8.21 3.88,9.13 2.15,0.92 7.22,-4.5 9.31,-3.47 2.1,1.03 0.89,8.35 2.92,9.49 2.05,1.13 7.64,-3.75 9.61,-2.52 1.99,1.24 0.05,8.41 1.96,9.73 1.92,1.34 7.98,-2.95 9.81,-1.52 1.85,1.43 -0.8,8.36 0.97,9.87 1.77,1.53 8.22,-2.14 9.91,-0.53 1.7,1.62 -1.64,8.25 -0.03,9.93 1.61,1.69 8.39,-1.3 9.93,0.46 1.51,1.77 -2.47,8.04 -1.04,9.89 1.43,1.84 8.48,-0.46 9.82,1.46 1.34,1.92 -3.25,7.74 -2.02,9.72 1.23,1.98 8.49,0.4 9.63,2.45 1.13,2.03 -4.03,7.37 -3,9.46 1.03,2.1 8.4,1.27 9.32,3.41 0.93,2.14 -4.75,6.93 -3.94,9.12 0.81,2.19 8.23,2.11 8.93,4.35 0.71,2.21 -5.43,6.4 -4.85,8.66 0.59,2.26 7.98,2.94 8.44,5.24 0.47,2.28 -6.06,5.81 -5.7,8.13 0.34,2.29 7.62,3.72 7.86,6.07 0.24,2.3 -6.62,5.15 -6.5,7.5 z m -132.6,120.14 c 21.02,-0.05 38.05,-3.94 38.04,-8.68 -0.02,-4.75 -17.07,-13.19 -38.09,-13.15 -21.02,0.05 -38.05,8.58 -38.03,13.32 0.01,4.75 17.05,8.56 38.08,8.51 z m -112.12,-117.26 c -4.51,1.49 -2.87,18.87 3.68,38.85 6.54,19.98 15.5,34.98 20.02,33.5 4.49,-1.47 7.25,-20.31 0.71,-40.28 -6.54,-19.99 -19.91,-33.53 -24.41,-32.07 z m 4.85,-31.1 c -4.83,14.87 5.08,31.43 22.15,36.97 17.07,5.54 34.82,-2.02 39.64,-16.89 4.84,-14.87 -5.07,-31.43 -22.14,-36.96 -17.07,-5.55 -34.82,2.01 -39.65,16.88 z m 75.69,-72.91 c -2.8,-3.83 -18.83,3.11 -35.81,15.5 -16.96,12.4 -28.47,25.55 -25.67,29.39 2.8,3.82 21.56,0.63 38.54,-11.76 16.97,-12.4 25.74,-29.3 22.94,-33.13 z m -38.32,156.72 c -10.54,14.52 -8.85,33.73 3.8,42.93 12.66,9.2 31.46,4.88 42.01,-9.64 10.54,-14.52 8.84,-33.73 -3.81,-42.93 -12.65,-9.18 -31.45,-4.87 -42,9.64 z m 70.44,-162.14 c -15.63,0 -28.31,14.55 -28.31,32.5 0,17.94 12.68,32.48 28.31,32.48 15.64,0 28.32,-14.54 28.32,-32.48 0,-17.95 -12.68,-32.5 -28.32,-32.5 z m 24.62,195.43 c 10.55,14.52 29.36,18.84 42.01,9.64 12.65,-9.19 14.35,-28.41 3.8,-42.93 -10.54,-14.5 -29.34,-18.82 -42,-9.63 -12.64,9.19 -14.36,28.4 -3.81,42.92 z m 41.27,-174.82 c -17.03,-12.31 -33.11,-19.18 -35.88,-15.34 -2.78,3.84 6.06,20.72 23.09,33.02 17.03,12.33 35.82,15.44 38.59,11.59 2.78,-3.85 -8.76,-16.95 -25.8,-29.27 z m 41.92,57.72 c -4.83,-14.87 -22.58,-22.43 -39.65,-16.88 -17.05,5.55 -26.98,22.1 -22.15,36.98 4.84,14.85 22.58,22.43 39.65,16.87 17.07,-5.54 26.98,-22.08 22.15,-36.97 z m 3.22,30.59 c -4.51,-1.46 -17.82,12.15 -24.26,32.17 -6.46,20 -3.6,38.83 0.91,40.28 4.51,1.45 13.39,-13.58 19.86,-33.59 6.44,-20.01 8,-37.41 3.49,-38.86"
         style="fill:#231f20;fill-opacity:1;fill-rule:nonzero;stroke:none"
         id="path74" />
      <path
         inkscape:connector-curvature="0"
         d="m 1630.08,3644.03 c 0.08,1.61 5.04,3.13 5.04,4.77 0,1.64 -4.96,3.14 -5.04,4.76 -0.08,1.65 4.71,3.64 4.54,5.26 -0.17,1.63 -5.26,2.63 -5.49,4.23 -0.25,1.62 4.31,4.08 3.98,5.67 -0.32,1.61 -5.49,2.09 -5.89,3.66 -0.41,1.58 3.87,4.5 3.39,6.05 -0.49,1.57 -5.68,1.52 -6.25,3.05 -0.57,1.52 3.41,4.87 2.77,6.36 -0.65,1.5 -5.81,0.93 -6.52,2.38 -0.72,1.48 2.88,5.19 2.09,6.62 -0.8,1.43 -5.86,0.32 -6.72,1.71 -0.87,1.38 2.34,5.45 1.41,6.79 -0.94,1.34 -5.87,-0.27 -6.86,1.02 -1,1.29 1.78,5.67 0.72,6.9 -1.06,1.24 -5.81,-0.85 -6.93,0.33 -1.13,1.18 1.2,5.82 0.02,6.95 -1.18,1.12 -5.69,-1.45 -6.93,-0.38 -1.23,1.06 0.62,5.9 -0.67,6.91 -1.29,0.99 -5.52,-2 -6.86,-1.07 -1.33,0.93 0.02,5.93 -1.36,6.8 -1.39,0.86 -5.29,-2.55 -6.72,-1.75 -1.42,0.79 -0.59,5.9 -2.05,6.63 -1.46,0.71 -5,-3.09 -6.5,-2.43 -1.5,0.63 -1.18,5.81 -2.72,6.38 -1.52,0.57 -4.65,-3.56 -6.22,-3.08 -1.55,0.49 -1.77,5.67 -3.35,6.09 -1.57,0.4 -4.27,-4.03 -5.87,-3.7 -1.59,0.33 -2.35,5.47 -3.96,5.7 -1.61,0.25 -3.83,-4.43 -5.47,-4.27 -1.61,0.17 -2.87,5.2 -4.51,5.27 -1.62,0.09 -3.37,-4.79 -5.01,-4.79 -1.64,0 -3.39,4.88 -5.01,4.79 -1.64,-0.07 -2.9,-5.1 -4.51,-5.27 -1.64,-0.16 -3.86,4.52 -5.47,4.27 -1.62,-0.23 -2.36,-5.37 -3.95,-5.7 -1.6,-0.33 -4.31,4.11 -5.88,3.7 -1.58,-0.41 -1.79,-5.6 -3.34,-6.09 -1.56,-0.48 -4.7,3.65 -6.22,3.08 -1.53,-0.56 -1.22,-5.75 -2.72,-6.38 -1.5,-0.64 -5.04,3.15 -6.5,2.43 -1.45,-0.73 -0.62,-5.84 -2.05,-6.63 -1.42,-0.8 -5.32,2.62 -6.7,1.75 -1.39,-0.86 -0.04,-5.87 -1.38,-6.8 -1.34,-0.93 -5.56,2.07 -6.85,1.07 -1.29,-1 0.56,-5.85 -0.68,-6.9 -1.23,-1.06 -5.74,1.49 -6.93,0.37 -1.18,-1.12 1.15,-5.75 0.03,-6.93 -1.13,-1.19 -5.87,0.9 -6.93,-0.34 -1.07,-1.23 1.72,-5.6 0.71,-6.9 -0.99,-1.29 -5.92,0.32 -6.86,-1.02 -0.94,-1.33 2.28,-5.41 1.41,-6.79 -0.86,-1.38 -5.93,-0.28 -6.72,-1.71 -0.8,-1.42 2.81,-5.15 2.09,-6.62 -0.72,-1.46 -5.88,-0.88 -6.52,-2.38 -0.64,-1.5 3.33,-4.84 2.76,-6.37 -0.56,-1.53 -5.75,-1.48 -6.24,-3.04 -0.49,-1.55 3.8,-4.47 3.39,-6.06 -0.41,-1.57 -5.57,-2.05 -5.91,-3.66 -0.32,-1.59 4.25,-4.05 4,-5.67 -0.25,-1.6 -5.34,-2.6 -5.49,-4.24 -0.17,-1.61 4.62,-3.61 4.53,-5.25 -0.07,-1.62 -5.04,-3.12 -5.04,-4.76 0,-1.64 4.97,-3.16 5.04,-4.77 0.09,-1.63 -4.7,-3.64 -4.53,-5.24 0.15,-1.64 5.24,-2.64 5.49,-4.25 0.25,-1.61 -4.32,-4.08 -4,-5.67 0.34,-1.6 5.5,-2.08 5.91,-3.66 0.41,-1.58 -3.88,-4.51 -3.39,-6.05 0.48,-1.56 5.67,-1.51 6.23,-3.03 0.57,-1.54 -3.39,-4.88 -2.75,-6.37 0.64,-1.5 5.8,-0.93 6.52,-2.38 0.72,-1.48 -2.89,-5.19 -2.1,-6.63 0.79,-1.42 5.87,-0.32 6.73,-1.7 0.86,-1.39 -2.35,-5.46 -1.42,-6.79 0.93,-1.35 5.87,0.26 6.87,-1.03 1,-1.29 -1.78,-5.67 -0.72,-6.91 1.05,-1.23 5.81,0.86 6.92,-0.32 1.13,-1.18 -1.2,-5.81 -0.02,-6.94 1.19,-1.12 5.69,1.44 6.94,0.38 1.23,-1.07 -0.62,-5.91 0.67,-6.92 1.28,-0.99 5.51,2 6.85,1.08 1.33,-0.94 -0.02,-5.94 1.37,-6.8 1.38,-0.87 5.29,2.54 6.71,1.75 1.43,-0.79 0.59,-5.91 2.06,-6.63 1.45,-0.72 4.99,3.07 6.49,2.42 1.5,-0.64 1.18,-5.81 2.72,-6.38 1.53,-0.57 4.66,3.56 6.22,3.07 1.55,-0.48 1.76,-5.67 3.35,-6.08 1.57,-0.41 4.28,4.03 5.88,3.71 1.59,-0.33 2.33,-5.47 3.95,-5.72 1.61,-0.24 3.84,4.45 5.47,4.28 1.61,-0.17 2.87,-5.2 4.51,-5.28 1.62,-0.08 3.37,4.81 5.01,4.81 1.64,0 3.39,-4.89 5.02,-4.81 1.63,0.08 2.89,5.11 4.51,5.28 1.63,0.17 3.86,-4.52 5.46,-4.28 1.62,0.25 2.37,5.39 3.96,5.72 1.6,0.32 4.3,-4.12 5.87,-3.71 1.58,0.41 1.8,5.6 3.34,6.08 1.56,0.49 4.7,-3.64 6.23,-3.08 1.53,0.57 1.22,5.75 2.71,6.39 1.5,0.64 5.04,-3.14 6.5,-2.43 1.47,0.73 0.63,5.84 2.05,6.63 1.43,0.8 5.34,-2.61 6.72,-1.75 1.37,0.86 0.03,5.87 1.36,6.8 1.34,0.93 5.58,-2.07 6.86,-1.07 1.29,1 -0.57,5.84 0.67,6.9 1.24,1.06 5.75,-1.5 6.93,-0.37 1.18,1.13 -1.15,5.76 -0.02,6.94 1.12,1.18 5.86,-0.92 6.93,0.32 1.06,1.24 -1.72,5.62 -0.72,6.9 1,1.29 5.93,-0.31 6.86,1.02 0.94,1.35 -2.28,5.42 -1.41,6.81 0.86,1.37 5.93,0.28 6.73,1.71 0.78,1.41 -2.82,5.15 -2.09,6.61 0.71,1.46 5.86,0.88 6.51,2.39 0.64,1.49 -3.33,4.84 -2.76,6.37 0.57,1.52 5.76,1.47 6.25,3.04 0.48,1.54 -3.8,4.47 -3.39,6.05 0.4,1.57 5.57,2.06 5.89,3.66 0.33,1.59 -4.23,4.06 -3.98,5.67 0.23,1.61 5.32,2.61 5.5,4.25 0.16,1.6 -4.63,3.61 -4.55,5.24 z m -92.66,83.96 c 14.69,-0.03 26.58,-2.76 26.58,-6.06 -0.01,-3.32 -11.93,-9.22 -26.62,-9.19 -14.69,0.03 -26.59,5.99 -26.58,9.3 0,3.33 11.91,5.98 26.62,5.95 z m -78.36,-81.94 c -3.15,1.03 -2.01,13.19 2.57,27.14 4.57,13.96 10.83,24.45 13.98,23.42 3.15,-1.04 5.08,-14.2 0.52,-28.15 -4.58,-13.98 -13.93,-23.44 -17.07,-22.41 z m 3.39,-21.74 c -3.38,10.4 3.55,21.96 15.48,25.84 11.93,3.87 24.33,-1.42 27.71,-11.81 3.38,-10.39 -3.55,-21.96 -15.48,-25.82 -11.93,-3.88 -24.33,1.4 -27.71,11.79 z m 52.9,-50.95 c -1.96,-2.68 -13.16,2.17 -25.03,10.84 -11.86,8.66 -19.9,17.85 -17.94,20.53 1.95,2.67 15.07,0.44 26.93,-8.21 11.87,-8.67 17.99,-20.48 16.04,-23.16 z m -26.79,109.53 c -7.37,10.14 -6.18,23.57 2.67,30 8.83,6.42 21.98,3.4 29.35,-6.74 7.37,-10.15 6.17,-23.58 -2.67,-30.01 -8.83,-6.42 -21.98,-3.4 -29.35,6.75 z m 49.23,-113.32 c -10.93,0 -19.79,10.16 -19.79,22.71 0,12.53 8.86,22.7 19.79,22.7 10.93,0 19.78,-10.17 19.78,-22.7 0,-12.55 -8.85,-22.71 -19.78,-22.71 z m 17.21,136.58 c 7.38,10.14 20.51,13.16 29.36,6.74 8.83,-6.43 10.02,-19.86 2.65,-30 -7.37,-10.14 -20.51,-13.16 -29.35,-6.74 -8.83,6.42 -10.04,19.85 -2.66,30 z m 28.83,-122.17 c -11.9,-8.61 -23.13,-13.41 -25.07,-10.73 -1.94,2.69 4.24,14.48 16.14,23.08 11.9,8.62 25.03,10.79 26.96,8.1 1.95,-2.7 -6.12,-11.85 -18.03,-20.45 z m 29.3,40.34 c -3.37,-10.4 -15.78,-15.68 -27.7,-11.8 -11.93,3.87 -18.86,15.43 -15.48,25.84 3.37,10.37 15.78,15.67 27.71,11.79 11.92,-3.88 18.85,-15.44 15.47,-25.83 z m 2.25,21.37 c -3.15,-1.02 -12.45,8.5 -16.96,22.47 -4.5,13.99 -2.51,27.14 0.64,28.16 3.16,1.02 9.36,-9.5 13.89,-23.48 4.5,-13.98 5.59,-26.14 2.43,-27.15"
         style="fill:#231f20;fill-opacity:1;fill-rule:nonzero;stroke:none"
         id="path76" />
      <path
         inkscape:connector-curvature="0"
         d="m 1795.19,3601.85 c -1.89,-11.65 -22.37,-18.52 -45.53,-15.26 l -186.72,26.23 c -23.15,3.26 -40.44,17.51 -38.39,31.67 2.05,14.17 22.56,22.46 45.6,18.44 l 186.57,-32.58 c 23.04,-4.03 40.35,-16.85 38.47,-28.5"
         style="fill:#231f20;fill-opacity:1;fill-rule:nonzero;stroke:none"
         id="path78" />
      <path
         inkscape:connector-curvature="0"
         d="m 1808.47,3621.74 c -1.03,0 -1.87,0.72 -1.87,1.61 v 1.61 c 0,0.44 -0.37,0.81 -0.82,0.81 H 1733 c -0.46,0 -0.82,-0.37 -0.82,-0.81 0,0 0,-0.72 0,-1.61 0,-0.89 -0.84,-1.61 -1.86,-1.61 h -27.49 c -0.45,0 -0.82,-0.36 -0.82,-0.81 v -34.57 c 0,-0.45 0.37,-0.83 0.82,-0.83 h 27.49 c 1.02,0 1.86,-0.72 1.86,-1.59 v -1.6 c 0,-0.45 0.36,-0.82 0.82,-0.82 h 72.78 c 0.45,0 0.82,0.37 0.82,0.82 0,0 0,0.72 0,1.6 0,0.87 0.84,1.59 1.87,1.59 h 27.47 c 0.45,0 0.82,0.38 0.82,0.83 v 34.57 c 0,0.45 -0.37,0.81 -0.82,0.81 h -27.47"
         style="fill:#231f20;fill-opacity:1;fill-rule:nonzero;stroke:none"
         id="path80" />
      <path
         inkscape:connector-curvature="0"
         d="m 940.219,3571.9 c 0,0 10.344,-27.93 43.789,-27.93 0,0 3.101,1.72 3.101,9.31 0,7.58 -2.757,22.07 -2.757,22.07 0,0 10.343,4.82 2.074,13.1 0,0 -5.176,0.01 0,8.28 5.168,8.27 20.684,31.72 20.684,31.72 0,0 13.45,-10 10.34,6.2 0,0 11.73,17.24 1.73,27.24 -10,10 -6.56,10.35 -3.97,16.04 l -34.308,34.3 -49.304,0.69 c 0,0 -5.684,-26.37 -8.614,-29.31 -2.933,-2.93 -12.078,-3.1 -12.078,-12.06 0,-8.97 0,-15.51 0,-19.66 0,-4.14 0.18,-12.23 -2.058,-14.48 -2.246,-2.24 -4.141,-2.75 -6.899,0 -2.765,2.76 0,-11.37 0,-11.37 0,0 14.477,-0.69 18.617,3.44 4.137,4.14 4.485,3.45 8.965,7.93 4.477,4.48 9.489,10.52 17.242,-2.76 7.754,-13.27 13.79,-14.48 18.618,-9.65 4.828,4.83 1.371,13.1 8.964,8.96 7.583,-4.13 18.274,-5.86 18.274,-5.86 0,0 -15.172,-25.86 -21.379,-32.07 -6.207,-6.2 -6.207,-9.3 -16.547,-10.68 -10.348,-1.39 -21.723,0.34 -21.723,-6.21 0,-6.55 4.481,-7.24 7.239,-7.24"
         style="fill:#231f20;fill-opacity:1;fill-rule:nonzero;stroke:none"
         id="path82" />
      <path
         inkscape:connector-curvature="0"
         d="m 1006.81,3581.55 c 0,-2.09 -3.72,-3.73 -4.17,-5.67 -0.45,-2.02 2.18,-5.1 1.3,-6.92 -0.89,-1.85 -4.956,-1.71 -6.221,-3.3 -1.274,-1.59 -0.239,-5.52 -1.828,-6.79 -1.59,-1.26 -5.188,0.61 -7.039,-0.28 -1.809,-0.88 -2.579,-4.86 -4.59,-5.33 -1.949,-0.43 -4.375,2.81 -6.457,2.81 -2.086,0 -4.504,-3.24 -6.457,-2.81 -2.012,0.47 -2.789,4.46 -4.606,5.33 -1.847,0.89 -5.449,-0.98 -7.031,0.28 -1.598,1.27 -0.555,5.21 -1.824,6.81 -1.27,1.57 -5.332,1.44 -6.223,3.28 -0.871,1.82 1.758,4.9 1.301,6.92 -0.445,1.95 -4.164,3.58 -4.164,5.67 0,2.09 3.719,3.72 4.164,5.67 0.457,2.02 -2.172,5.1 -1.293,6.92 0.887,1.85 4.949,1.72 6.219,3.3 1.269,1.59 0.234,5.52 1.832,6.79 1.586,1.27 5.183,-0.61 7.023,0.28 1.824,0.88 2.59,4.87 4.602,5.33 1.949,0.44 4.375,-2.82 6.457,-2.82 2.09,0 4.504,3.25 6.457,2.82 2.011,-0.46 2.785,-4.46 4.601,-5.33 1.844,-0.89 5.438,0.98 7.032,-0.28 1.589,-1.27 0.554,-5.2 1.832,-6.8 1.261,-1.59 5.323,-1.45 6.223,-3.29 0.87,-1.82 -1.76,-4.9 -1.31,-6.91 0.45,-1.96 4.17,-3.59 4.17,-5.68"
         style="fill:#231f20;fill-opacity:1;fill-rule:nonzero;stroke:none"
         id="path84" />
      <path
         inkscape:connector-curvature="0"
         d="m 1041.23,3748.64 c 0,-2.07 -5.39,-3.88 -5.57,-5.91 -0.19,-2.07 4.77,-4.83 4.39,-6.84 -0.37,-2.03 -6,-2.82 -6.55,-4.78 -0.57,-1.99 3.8,-5.63 3.06,-7.53 -0.76,-1.92 -6.42,-1.67 -7.34,-3.49 -0.92,-1.85 2.7,-6.22 1.62,-7.97 -1.08,-1.74 -6.61,-0.45 -7.85,-2.08 -1.24,-1.64 1.51,-6.6 0.12,-8.12 -1.38,-1.52 -6.57,0.77 -8.09,-0.62 -1.52,-1.38 0.29,-6.76 -1.35,-8 -1.64,-1.24 -6.33,1.95 -8.08,0.88 -1.74,-1.08 -0.95,-6.7 -2.8,-7.63 -1.83,-0.91 -5.849,3.09 -7.77,2.35 -1.907,-0.74 -2.168,-6.41 -4.161,-6.97 -1.957,-0.56 -5.171,4.12 -7.203,3.74 -2,-0.37 -3.32,-5.9 -5.386,-6.09 -2.024,-0.18 -4.321,5.01 -6.395,5.01 -2.078,0 -4.371,-5.19 -6.402,-5.01 -2.059,0.19 -3.371,5.72 -5.375,6.09 -2.039,0.38 -5.25,-4.3 -7.211,-3.74 -1.989,0.56 -2.246,6.23 -4.157,6.97 -1.929,0.75 -5.949,-3.26 -7.777,-2.35 -1.848,0.92 -1.066,6.55 -2.805,7.63 -1.746,1.08 -6.437,-2.11 -8.074,-0.88 -1.64,1.25 0.16,6.63 -1.351,8.02 -1.52,1.38 -6.715,-0.91 -8.102,0.61 -1.387,1.51 1.371,6.48 0.133,8.12 -1.242,1.63 -6.766,0.33 -7.848,2.08 -1.086,1.74 2.528,6.11 1.61,7.96 -0.907,1.82 -6.582,1.57 -7.325,3.5 -0.742,1.9 3.625,5.53 3.059,7.52 -0.559,1.96 -6.184,2.75 -6.559,4.77 -0.371,2.01 4.586,4.78 4.395,6.85 -0.188,2.03 -5.563,3.84 -5.563,5.91 0,2.08 5.375,3.89 5.563,5.92 0.191,2.06 -4.766,4.83 -4.395,6.83 0.375,2.04 6,2.83 6.559,4.79 0.566,1.98 -3.801,5.62 -3.059,7.52 0.743,1.93 6.418,1.67 7.325,3.51 0.922,1.84 -2.692,6.21 -1.61,7.95 1.082,1.75 6.614,0.45 7.852,2.09 1.238,1.64 -1.52,6.6 -0.133,8.12 1.387,1.52 6.582,-0.77 8.102,0.61 1.511,1.39 -0.286,6.77 1.355,8.02 1.637,1.23 6.324,-1.96 8.07,-0.89 1.743,1.09 0.953,6.71 2.801,7.63 1.828,0.92 5.856,-3.1 7.777,-2.35 1.911,0.74 2.168,6.41 4.157,6.98 1.961,0.56 5.172,-4.12 7.203,-3.75 2.004,0.37 3.316,5.9 5.383,6.09 2.031,0.18 4.324,-5.01 6.402,-5.01 2.074,0 4.371,5.19 6.395,5.01 2.066,-0.19 3.378,-5.72 5.382,-6.09 2.036,-0.37 5.243,4.31 7.207,3.75 1.993,-0.57 2.254,-6.24 4.164,-6.98 1.918,-0.75 5.947,3.26 7.767,2.35 1.85,-0.92 1.07,-6.54 2.82,-7.63 1.75,-1.08 6.43,2.11 8.07,0.88 1.64,-1.24 -0.16,-6.62 1.34,-8.01 1.53,-1.39 6.72,0.9 8.11,-0.61 1.39,-1.52 -1.37,-6.49 -0.13,-8.14 1.23,-1.62 6.77,-0.33 7.85,-2.07 1.08,-1.75 -2.54,-6.12 -1.62,-7.96 0.91,-1.83 6.58,-1.57 7.33,-3.49 0.74,-1.9 -3.63,-5.55 -3.06,-7.53 0.55,-1.96 6.18,-2.75 6.55,-4.79 0.38,-2 -4.58,-4.77 -4.39,-6.83 0.18,-2.03 5.57,-3.84 5.57,-5.92"
         style="fill:#231f20;fill-opacity:1;fill-rule:nonzero;stroke:none"
         id="path86" />
      <path
         inkscape:connector-curvature="0"
         d="m 887.621,3759.2 c 22.801,0 41.852,-4.36 41.895,-4.35 l 1.043,4.55 c -0.106,0.03 -19.559,4.47 -42.938,4.47 -31.508,0.09 -71.582,-8.22 -78.144,-48.33 -0.622,-3.75 -0.899,-7.39 -0.899,-10.87 0.445,-45.18 47.551,-63.4 70.895,-69.74 0.394,-2.93 2.441,-9.43 12.925,-9.81 13.532,-0.5 15.012,3.45 15.012,3.45 l -1.883,0.53 3.668,2.2 1.95,3.6 -2.395,1.12 h 0.035 c 0,0 -0.215,4.22 -13.254,7.86 -9.004,2.51 -13.066,-1.65 -14.761,-4.49 -7.563,2.07 -17.743,5.45 -27.934,10.65 -20.109,10.3 -39.594,27.19 -39.594,54.63 0,3.24 0.274,6.62 0.84,10.13 5.738,36.38 42.301,44.31 73.539,44.4"
         style="fill:#231f20;fill-opacity:1;fill-rule:nonzero;stroke:none"
         id="path88" />
      <path
         inkscape:connector-curvature="0"
         d="m 1038.83,3762.56 c 4.46,0.21 4.32,3.02 8.78,3.23 4.44,0.2 4.57,-2.61 9.01,-2.41 4.34,0.19 4.36,2.86 8.46,3.19 l -0.14,3.09 0.14,-3.09 c 4.24,0.11 4.47,-2.6 8.85,-2.39 4.45,0.2 4.33,3.02 8.77,3.23 4.45,0.2 4.58,-2.62 9.02,-2.42 4.33,0.2 4.35,2.87 8.47,3.19 l -0.43,9.29 c -4.16,-0.07 -4.42,2.59 -8.78,2.39 -4.45,-0.2 -4.32,-3.02 -8.77,-3.22 -4.44,-0.2 -4.57,2.61 -9.02,2.41 -4.36,-0.2 -4.35,-2.9 -8.53,-3.21 v 0.02 c -4.17,-0.08 -4.42,2.59 -8.78,2.39 -4.45,-0.21 -4.32,-3.03 -8.77,-3.23 -4.44,-0.21 -4.57,2.62 -9.01,2.41 -4.37,-0.2 -4.36,-2.89 -8.55,-3.2 l 0.43,-9.27 c 4.24,0.1 4.47,-2.6 8.85,-2.4 z m 70.2,3.23 c 4.45,0.21 4.33,3.02 8.78,3.23 4.44,0.2 4.57,-2.61 9.01,-2.41 4.34,0.2 4.36,2.86 8.47,3.19 v 0 c 4.23,0.11 4.46,-2.59 8.84,-2.39 4.46,0.2 4.32,3.02 8.78,3.23 4.44,0.2 4.57,-2.62 9.01,-2.41 4.34,0.19 4.36,2.86 8.47,3.18 l -0.43,9.29 c -4.16,-0.07 -4.42,2.6 -8.78,2.4 -4.45,-0.21 -4.32,-3.03 -8.77,-3.23 -4.45,-0.21 -4.58,2.61 -9.02,2.41 -4.36,-0.21 -4.35,-2.9 -8.53,-3.2 v 0 c -4.17,-0.06 -4.41,2.6 -8.77,2.4 -4.46,-0.21 -4.33,-3.02 -8.79,-3.23 -4.43,-0.21 -4.57,2.61 -9,2.41 -4.37,-0.2 -4.35,-2.89 -8.54,-3.2 l 0.43,-9.27 c 4.24,0.11 4.45,-2.6 8.84,-2.4 z M 978.102,3750.5 c 4.453,0.2 4.324,3.02 8.773,3.23 4.449,0.2 4.57,-2.62 9.02,-2.41 4.335,0.2 4.345,2.86 8.465,3.19 l -0.44,9.28 c -4.158,-0.07 -4.412,2.6 -8.768,2.4 -4.453,-0.21 -4.328,-3.02 -8.773,-3.23 -4.449,-0.21 -4.57,2.61 -9.02,2.41 -4.363,-0.2 -4.347,-2.9 -8.531,-3.2 l 0.426,-9.27 c 4.238,0.1 4.461,-2.6 8.848,-2.4 z m 201.128,18.52 c 4.45,0.2 4.33,3.03 8.78,3.24 4.45,0.2 4.57,-2.62 9.02,-2.42 4.33,0.2 4.35,2.87 8.46,3.19 l -0.22,4.65 0.22,-4.64 c 4.24,0.1 4.46,-2.61 8.84,-2.4 4.46,0.2 4.33,3.02 8.78,3.23 4.44,0.2 4.57,-2.62 9.01,-2.41 4.34,0.2 4.36,2.86 8.47,3.18 l -0.21,4.64 0.21,-4.63 c 4.23,0.11 4.46,-2.6 8.84,-2.39 4.46,0.2 4.32,3.02 8.78,3.22 4.44,0.2 4.57,-2.61 9.01,-2.41 4.34,0.2 4.36,2.86 8.47,3.19 l -0.22,4.64 0.22,-4.63 c 4.23,0.1 4.45,-2.61 8.85,-2.4 4.44,0.2 4.32,3.02 8.77,3.22 4.44,0.21 4.57,-2.6 9.01,-2.4 4.34,0.2 4.36,2.86 8.47,3.19 l -0.22,4.64 0.22,-4.63 c 4.23,0.1 4.46,-2.61 8.84,-2.41 4.46,0.21 4.32,3.03 8.78,3.23 4.44,0.21 4.57,-2.61 9.01,-2.41 4.34,0.2 4.36,2.86 8.47,3.19 l -0.21,4.65 0.21,-4.64 c 4.31,0.09 4.37,-2.57 8.75,-2.46 4.45,0.13 4.36,2.95 8.81,3.09 4.44,0.12 4.52,-2.7 8.96,-2.57 4.33,0.13 4.39,2.79 8.5,3.05 l -0.11,4.64 0.11,-4.64 c 4.24,0.04 4.41,-2.68 8.78,-2.55 4.45,0.1 4.39,2.91 8.84,3 4.43,0.08 4.49,-2.74 8.93,-2.66 4.33,0.09 4.43,2.75 8.54,2.97 l -0.08,4.64 0.08,-4.64 c 4.23,-0.01 4.37,-2.72 8.75,-2.64 4.44,0.03 4.41,2.85 8.86,2.89 4.44,0.02 4.46,-2.8 8.89,-2.76 4.32,0.03 4.46,2.69 8.57,2.86 l -0.01,4.65 0.01,-4.65 c 4.23,-0.04 4.34,-2.78 8.7,-2.8 4.44,-0.03 4.45,2.8 8.9,2.78 4.44,-0.04 4.42,-2.85 8.85,-2.89 4.32,0 4.49,2.62 8.6,2.69 v 0 c 4.22,-0.18 4.27,-2.89 8.63,-2.98 4.43,-0.09 4.51,2.73 8.95,2.65 4.43,-0.17 4.34,-2.99 8.75,-3.16 4.3,-0.15 4.55,2.5 8.66,2.49 v 0 c 4.22,-0.25 4.17,-3.02 8.52,-3.24 4.4,-0.25 4.57,2.57 9,2.32 4.4,-0.32 4.19,-3.15 8.56,-3.49 4.26,-0.34 4.66,2.34 8.71,2.04 v 0.01 c 4.16,-0.55 3.98,-3.21 8.23,-3.71 4.27,-0.61 4.69,2.25 9,1.57 4.25,-0.76 3.81,-3.45 7.78,-4.36 3.66,-0.9 4.89,1.54 7.61,0.58 l -0.02,-0.03 c 3.53,-1.76 2.3,-4.17 6.01,-5.91 3.73,-1.81 5.24,0.8 8.81,-1.15 3.36,-2.16 1.87,-4.57 5.11,-6.65 3.12,-2.11 4.98,0.27 7.84,-2.09 l 5.7,7.34 c -2.95,2.76 -1.72,4.72 -5.31,7.16 -3.75,2.41 -5.22,0 -8.86,2.33 -3.7,2 -2.37,4.3 -6.1,6.1 -3.69,1.73 -5.09,-0.59 -8.69,0.97 l -2.26,-4.06 2.24,4.03 c -4.8,2.45 -4.01,4.62 -8.75,5.89 -4.71,1.08 -5.19,-1.83 -9.71,-1.01 -4.49,0.7 -4.08,3.43 -8.63,4.06 -4.44,0.53 -4.84,-2.18 -9.07,-1.83 v 0.01 c -4.18,0.57 -4.07,3.19 -8.48,3.55 -4.51,0.35 -4.71,-2.45 -9.19,-2.13 -4.46,0.25 -4.29,3.08 -8.78,3.33 -4.4,0.23 -4.65,-2.41 -8.86,-2.36 l -0.2,-4.63 0.2,4.65 c -4.16,0.27 -4.2,2.95 -8.58,3.1 -4.49,0.17 -4.58,-2.64 -9.05,-2.48 -4.46,0.08 -4.39,2.91 -8.86,3 -4.39,0.09 -4.56,-2.61 -8.76,-2.63 l -0.07,-4.64 0.07,4.65 c -4.18,0.2 -4.27,2.91 -8.65,2.92 -4.48,0.02 -4.5,-2.8 -8.97,-2.77 -4.45,0.02 -4.45,2.85 -8.91,2.87 -4.38,0.02 -4.49,-2.66 -8.69,-2.8 v 0 c -4.17,0.1 -4.32,2.77 -8.69,2.74 -4.48,-0.04 -4.45,-2.86 -8.92,-2.89 -4.45,-0.04 -4.49,2.79 -8.94,2.75 -4.38,-0.07 -4.46,-2.77 -8.65,-2.96 v 0.01 c -4.17,0.04 -4.35,2.71 -8.72,2.64 -4.47,-0.09 -4.41,-2.91 -8.88,-3 -4.45,-0.08 -4.51,2.75 -8.97,2.65 -4.37,-0.13 -4.42,-2.83 -8.61,-3.06 v 0.01 c -4.17,0 -4.38,2.67 -8.74,2.54 -4.47,-0.13 -4.39,-2.95 -8.84,-3.08 -4.45,-0.13 -4.54,2.69 -9,2.57 -4.36,-0.12 -4.52,-2.87 -8.63,-3.16 v 0.01 c -4.16,-0.07 -4.41,2.6 -8.78,2.4 -4.45,-0.21 -4.32,-3.03 -8.77,-3.23 -4.44,-0.21 -4.57,2.61 -9.02,2.41 -4.36,-0.2 -4.34,-2.9 -8.53,-3.21 v 0.01 c -4.16,-0.07 -4.42,2.6 -8.78,2.39 -4.45,-0.19 -4.32,-3.02 -8.77,-3.22 -4.45,-0.2 -4.57,2.61 -9.02,2.41 -4.36,-0.2 -4.35,-2.9 -8.53,-3.2 v 0 c -4.16,-0.06 -4.42,2.61 -8.78,2.41 -4.45,-0.21 -4.32,-3.03 -8.77,-3.23 -4.44,-0.21 -4.57,2.62 -9.01,2.41 -4.37,-0.2 -4.36,-2.91 -8.54,-3.2 v 0 c -4.16,-0.07 -4.42,2.6 -8.78,2.4 -4.45,-0.2 -4.31,-3.03 -8.78,-3.23 -4.43,-0.21 -4.57,2.61 -9.01,2.41 -4.36,-0.2 -4.35,-2.9 -8.53,-3.21 v 0.01 c -4.17,-0.06 -4.42,2.6 -8.77,2.4 -4.46,-0.2 -4.33,-3.02 -8.78,-3.23 -4.45,-0.2 -4.57,2.62 -9.02,2.41 -4.36,-0.2 -4.35,-2.89 -8.53,-3.19 l 0.43,-9.28 c 4.24,0.1 4.46,-2.6 8.84,-2.4 z m 437.04,-12.63 c 2.85,-2.52 1.18,-4.66 4.1,-7.11 3.01,-2.42 4.83,-0.55 7.6,-3.46 2.73,-2.92 0.64,-4.81 3.28,-7.64 2.34,-2.98 4.46,-1.48 6.81,-4.36 l 7.48,5.53 c -2.33,3.26 -0.25,5.06 -2.92,8.45 -3.01,3.25 -5.12,1.36 -8.05,4.5 -2.96,3.11 -0.86,5.27 -4.3,8.09 -3.32,2.81 -5.13,0.81 -8.31,3.34 z m -672.317,-169.26 9.262,-0.72 c 0.519,3.86 3.265,3.13 4.769,6.4 1.594,3.37 -0.093,4.84 2.364,8.51 3.269,3.26 5.355,1.16 8.504,4.18 3.472,2.72 2.195,4.82 5.703,7.5 l -2.59,3.86 2.586,-3.85 c 3.754,2.59 5.312,0.23 9.453,2.46 4.187,2.28 2.871,4.77 7.164,7.11 4.457,2.03 5.68,-0.57 10.102,1.38 4.33,1.9 3.44,4.42 7.56,6.37 l -3.44,8.64 c -4.39,-1.8 -5.57,0.62 -10.199,-1.41 -4.718,-2.1 -3.546,-4.59 -8.175,-6.72 -4.5,-2.44 -5.825,0.05 -10.418,-2.45 -4.512,-2.45 -3.274,-4.72 -7.223,-7.67 h -0.004 c -4.035,-2.74 -5.851,-0.46 -10.039,-3.78 -4.102,-3.85 -2.227,-5.76 -5.988,-9.58 -3.145,-4.58 -5.973,-2.45 -8.75,-8.04 -2.563,-5.7 -0.078,-6.61 -0.641,-12.19 z m 734.137,57.48 h -0.02 c -0.07,5.02 2.54,4.68 2.12,9.14 -0.5,4.31 -3.36,3.92 -3.92,8.14 -0.75,4.16 2.05,4.66 1.27,8.9 -0.91,4.13 -3.56,3.66 -4.54,7.53 h 0.01 c -0.83,3.88 1.66,4.66 0.55,8.75 -1.11,4.17 -3.89,3.32 -5.23,7.36 -1.4,4 1.43,5 -0.19,9.02 -1.62,3.94 -4.15,3.01 -5.77,6.68 l -4.26,-1.86 4.27,1.86 c -1.41,3.73 0.77,4.9 -1.08,8.74 -2.02,3.88 -4.29,2.66 -6.51,6.32 -2.22,3.64 0.19,5.11 -2.09,8.85 -2.18,3.7 -4.74,2.09 -7.17,5.3 l -7.46,-5.52 c 2.14,-3.17 0.22,-4.58 2.17,-7.93 2.03,-3.36 4.45,-1.89 6.55,-5.34 2.09,-3.44 -0.61,-4.89 1.21,-8.37 1.66,-3.47 4.31,-2.37 5.86,-5.78 l 0.01,0.01 c 1.37,-3.61 -1.1,-4.73 0.38,-8.34 1.49,-3.68 3.99,-2.8 5.33,-6.62 1.28,-3.85 -1.34,-4.65 -0.32,-8.5 1.01,-3.75 3.69,-3.18 4.72,-6.81 l 4.51,1.09 -4.51,-1.09 c 0.75,-3.8 -1.88,-4.46 -1.03,-8.3 0.71,-3.93 3.48,-3.45 4.19,-7.45 0.53,-4.01 -2.19,-4.39 -1.75,-8.32 0.41,-3.62 3.04,-4.21 3.44,-6.91 l 3.71,-0.22 -3.71,0.22 c -1.08,-4.25 -3.81,-4.1 -4.8,-8.36 -1.01,-4.36 1.78,-4.83 0.77,-9.3 -1.01,-4.47 -3.76,-3.8 -4.73,-8.14 -0.82,-4.28 1.26,-5.14 -0.09,-9.16 v 0 c -1.72,-4.06 -4.3,-3.19 -5.95,-7.34 -1.68,-4.2 0.9,-5.34 -0.81,-9.64 -1.6,-4.34 -4.44,-2.89 -6.73,-6.73 -2.3,-3.72 -0.08,-5.2 -2.19,-8.9 v 0 c -2.37,-3.69 -4.67,-2.25 -6.96,-6.03 -2.61,-3.62 -0.66,-5.15 -3.63,-8.65 -3.05,-3.44 -5.15,-1.54 -8.1,-4.89 -2.99,-3.16 -0.86,-5.56 -4.18,-8.22 v -0.01 c -3.47,-2.67 -5.3,-0.66 -8.74,-3.43 -3.49,-2.81 -1.81,-5.07 -5.39,-7.97 -3.82,-2.53 -5.48,0.01 -9.32,-2.28 -3.8,-2.2 -2.62,-4.59 -6.24,-6.85 -3.8,-2.19 -5.12,0.3 -9.26,-1.37 -4.18,-1.72 -3.09,-4.32 -7.38,-6.08 -4.31,-1.63 -5.09,0.61 -9.49,-0.55 -4.28,-1.2 -3.65,-3.79 -7.73,-5.09 v -0.01 c -4.27,-1.1 -5.02,1.45 -9.36,0.3 -4.5,-0.81 -3.94,-3.58 -8.52,-4.41 -4.57,-0.83 -5.02,1.97 -9.51,1.14 -4.44,-0.53 -4.28,-3.11 -8.55,-3.7 v 0 c -4.42,-0.35 -4.75,2.35 -9.26,1.9 -4.59,-0.27 -4.47,-2.99 -9.13,-3.16 -4.66,-0.13 -4.7,2.65 -9.3,2.57 -4.5,0.13 -4.69,-2.53 -9.02,-2.55 v 0 c -4.43,0.23 -4.41,2.84 -8.93,3.21 -4.6,0.36 -4.84,-2.45 -9.5,-2.1 -4.62,0.56 -4.29,3.37 -8.85,3.9 -4.45,0.7 -4.8,-2.01 -9.34,-1.33 -4.11,0.5 -3.8,3.2 -8.06,3.62 -4.32,0.43 -4.76,-2.35 -9.1,-1.92 -4.32,0.44 -3.87,3.22 -8.19,3.66 -4.21,0.42 -4.78,-2.2 -8.8,-1.93 v 0 c -4.1,0.5 -3.76,3.19 -8.02,3.61 -4.33,0.44 -4.8,-2.35 -9.13,-1.91 -4.32,0.44 -3.85,3.21 -8.16,3.64 -4.22,0.43 -4.8,-2.18 -8.83,-1.91 l -1.61,-9.16 c 4.04,-0.52 3.71,-3.17 7.97,-3.61 4.34,-0.43 4.82,2.35 9.16,1.92 4.34,-0.44 3.87,-3.23 8.21,-3.66 4.25,-0.43 4.81,2.22 8.91,1.92 l 0.75,4.58 -0.75,-4.59 c 4.04,-0.53 3.74,-3.18 7.99,-3.61 4.35,-0.44 4.79,2.35 9.14,1.92 4.34,-0.45 3.89,-3.23 8.23,-3.66 4.27,-0.44 4.79,2.21 8.89,1.91 4.12,-0.89 4.08,-3.52 8.77,-4.25 4.86,-0.57 5.19,2.23 9.98,1.66 4.79,-0.37 4.56,-3.18 9.4,-3.55 4.77,-0.4 5.03,2.41 9.56,2.36 l 0.15,4.64 -0.15,-4.65 c 4.48,-0.25 4.58,-2.92 9.35,-3.05 4.87,0.08 4.84,2.94 9.65,3.08 4.8,0.17 4.94,-2.75 9.79,-2.45 4.78,0.47 4.67,3.16 9.18,3.71 l -0.48,4.62 0.48,-4.62 c 4.49,0.35 4.96,-2.37 9.72,-1.8 4.83,0.87 4.38,3.66 9.13,4.52 4.74,0.86 5.31,-1.9 10.12,-1.03 4.67,1.24 4.12,3.95 8.49,5.27 l -1.24,4.47 1.24,-4.47 c 4.38,1.11 5.29,-1.41 9.94,-0.09 4.76,1.29 3.69,4.38 8.23,6.1 4.48,1.84 5.58,-0.76 10.15,1.12 4.51,1.84 3.48,4.23 7.37,6.69 v -0.01 c 4,2.18 5.44,-0.08 9.66,2.36 4.28,2.56 2.87,4.75 6.92,7.46 3.8,3.04 5.48,0.78 9.38,3.91 3.82,3.07 2.18,5.21 5.68,8.18 l -3.13,3.43 3.14,-3.44 c 3.71,2.68 5.31,1.26 8.68,4.81 3.33,3.75 1.23,5.63 4.47,9.3 3.14,3.72 5.66,1.77 8.56,5.81 2.57,4.16 0.41,5.79 2.73,9.76 v -0.01 c 2.5,3.82 4.88,2.58 7.42,6.76 2.55,4.29 0.34,5.42 2.05,9.98 1.81,4.5 4.39,3.37 6.23,7.96 1.81,4.52 -0.67,5.58 0.92,9.86 v 0 c 1.71,4.22 4.68,3.4 5.68,8.23 1.11,4.91 -1.64,5.57 -0.56,10.35 1.07,4.76 3.86,4.3 4.94,9.2 1.05,4.8 -1.61,5.18 -0.72,9.68 z m -297.78,-125.82 c -4.1,0.5 -3.73,3.18 -7.99,3.6 -4.32,0.44 -4.82,-2.35 -9.16,-1.9 -4.32,0.42 -3.81,3.21 -8.12,3.64 -4.22,0.42 -4.84,-2.18 -8.87,-1.92 l -1.7,-9.14 c 4.04,-0.52 3.67,-3.16 7.93,-3.59 4.35,-0.44 4.86,2.34 9.2,1.9 4.33,-0.44 3.83,-3.22 8.17,-3.65 4.26,-0.43 4.84,2.22 8.94,1.91 z m -375.58,37.64 c -4.09,0.5 -3.39,3.1 -7.652,3.53 -4.324,0.43 -5.164,-2.26 -9.5,-1.83 -4.32,0.43 -3.473,3.12 -7.789,3.55 -4.226,0.39 -5.125,-2 -9.23,-1.92 l -1.379,-4.33 1.406,4.42 c -1.633,1.54 -1.578,4.46 -4.379,6.99 -3.094,2.93 -5.234,0.94 -8.023,4.47 -2.332,3.66 -0.25,5.04 -1.325,8.37 -1.019,3.21 -3.539,2.98 -3.64,6.73 l -9.27,0.72 c -0.195,-5.36 -3.015,-6.28 -1.172,-12.28 2.172,-6.12 5.059,-4.46 8.063,-9.15 3.406,-4.31 1.445,-6.19 5.609,-10.11 4.711,-3.78 5,-1.01 11.324,-4.58 l 0.024,0.09 c 3.957,-0.72 3.32,-3.15 7.562,-3.62 4.348,-0.44 5.2,2.25 9.543,1.82 4.332,-0.44 3.493,-3.14 7.832,-3.57 4.262,-0.43 5.164,2.13 9.286,1.83 z m 341.44,-34.22 c -4.1,0.5 -3.7,3.18 -7.96,3.6 -4.33,0.44 -4.85,-2.33 -9.19,-1.9 -4.32,0.43 -3.78,3.2 -8.1,3.63 -4.21,0.42 -4.86,-2.17 -8.89,-1.9 v -0.01 c -4.1,0.51 -3.67,3.17 -7.93,3.6 -4.33,0.43 -4.89,-2.33 -9.22,-1.9 -4.32,0.44 -3.75,3.2 -8.07,3.64 -4.22,0.42 -4.89,-2.17 -8.93,-1.91 v -0.01 c -4.1,0.51 -3.63,3.17 -7.9,3.6 -4.32,0.43 -4.92,-2.32 -9.24,-1.89 -4.33,0.43 -3.73,3.19 -8.04,3.62 -4.22,0.42 -4.92,-2.16 -8.96,-1.9 v 0 c -4.1,0.51 -3.61,3.16 -7.87,3.59 -4.33,0.43 -4.95,-2.32 -9.28,-1.89 -4.32,0.43 -3.69,3.19 -8.01,3.62 -4.22,0.42 -4.95,-2.16 -8.99,-1.89 v -0.01 c -4.09,0.51 -3.57,3.15 -7.83,3.59 -4.33,0.43 -4.98,-2.32 -9.31,-1.88 -4.32,0.43 -3.66,3.17 -7.98,3.6 -4.22,0.42 -4.98,-2.14 -9.02,-1.87 v -0.02 c -4.1,0.5 -3.55,3.15 -7.81,3.58 -4.32,0.43 -5,-2.3 -9.34,-1.88 -4.32,0.44 -3.63,3.18 -7.94,3.61 -4.22,0.42 -5.01,-2.14 -9.05,-1.88 h -0.01 c -4.09,0.5 -3.51,3.14 -7.76,3.56 -4.34,0.43 -5.05,-2.29 -9.38,-1.86 -4.32,0.43 -3.6,3.16 -7.91,3.6 -4.22,0.41 -5.04,-2.14 -9.09,-1.87 v -0.01 c -4.09,0.49 -3.48,3.13 -7.74,3.55 -4.33,0.44 -5.07,-2.29 -9.4,-1.85 -4.33,0.43 -3.57,3.15 -7.89,3.59 -4.22,0.42 -5.06,-2.12 -9.11,-1.87 v 0 c -4.09,0.5 -3.45,3.12 -7.71,3.55 -4.33,0.43 -5.11,-2.28 -9.44,-1.85 -4.32,0.43 -3.53,3.14 -7.85,3.58 -4.22,0.42 -5.1,-2.12 -9.14,-1.85 v -0.01 c -4.1,0.5 -3.43,3.12 -7.69,3.54 -4.33,0.43 -5.13,-2.27 -9.47,-1.84 -4.32,0.43 -3.5,3.14 -7.82,3.57 -4.21,0.42 -5.12,-2.11 -9.17,-1.84 l -2.71,-8.89 c 4.01,-0.53 3.36,-3.1 7.62,-3.53 4.35,-0.43 5.16,2.27 9.5,1.82 4.34,-0.43 3.53,-3.13 7.87,-3.57 4.26,-0.43 5.13,2.14 9.25,1.83 4.02,-0.53 3.4,-3.1 7.66,-3.54 4.34,-0.43 5.13,2.28 9.47,1.84 4.34,-0.44 3.56,-3.15 7.9,-3.59 4.26,-0.43 5.1,2.15 9.21,1.84 l 1.27,4.47 -1.27,-4.48 c 4.03,-0.51 3.44,-3.1 7.69,-3.53 4.35,-0.45 5.1,2.28 9.45,1.84 4.33,-0.44 3.59,-3.16 7.92,-3.59 4.26,-0.43 5.08,2.16 9.19,1.84 v 0 c 4.02,-0.52 3.46,-3.12 7.71,-3.55 4.36,-0.44 5.08,2.29 9.42,1.85 4.33,-0.44 3.62,-3.16 7.96,-3.61 4.26,-0.42 5.04,2.17 9.15,1.87 l 1.16,4.49 -1.16,-4.5 c 4.03,-0.52 3.49,-3.13 7.75,-3.55 4.35,-0.45 5.04,2.29 9.39,1.85 4.33,-0.43 3.64,-3.17 7.99,-3.61 4.26,-0.43 5.01,2.18 9.12,1.87 v 0 c 4.03,-0.53 3.52,-3.14 7.78,-3.57 4.35,-0.44 5.01,2.3 9.35,1.87 4.34,-0.45 3.68,-3.18 8.02,-3.63 4.26,-0.43 4.99,2.19 9.09,1.88 l 1.06,4.53 -1.06,-4.53 c 4.04,-0.53 3.56,-3.15 7.81,-3.58 4.35,-0.43 4.98,2.31 9.33,1.88 4.33,-0.44 3.71,-3.19 8.05,-3.63 4.26,-0.42 4.95,2.19 9.06,1.89 v -0.01 c 4.03,-0.52 3.59,-3.15 7.84,-3.59 4.35,-0.43 4.95,2.33 9.29,1.89 4.34,-0.44 3.75,-3.19 8.08,-3.63 4.27,-0.43 4.93,2.2 9.04,1.9 l 0.95,4.54 -0.95,-4.55 c 4.03,-0.53 3.61,-3.17 7.87,-3.59 4.35,-0.44 4.92,2.32 9.26,1.89 4.33,-0.44 3.78,-3.21 8.11,-3.64 4.26,-0.43 4.9,2.2 9.01,1.9 v -0.01 c 4.03,-0.52 3.64,-3.16 7.89,-3.59 4.36,-0.45 4.89,2.33 9.24,1.89 4.33,-0.44 3.8,-3.2 8.14,-3.64 4.26,-0.43 4.87,2.21 8.97,1.91 l 1.7,9.12"
         style="fill:#231f20;fill-opacity:1;fill-rule:nonzero;stroke:none"
         id="path90" />
      <path
         inkscape:connector-curvature="0"
         d="m 1506.32,3808.27 c -4.87,-0.52 -9.61,-1.33 -14.23,-2.34 -1.99,0.65 -4.47,1.06 -7.6,1.06 -17.7,0 -33.83,2.84 -20.23,6.95 13.59,4.11 12.64,8.22 19.59,15.18 6.95,6.95 2.79,10.87 10.88,10.87 8.09,0 15.25,9.87 4.93,13.78 -10.32,3.92 -19.6,-0.63 -26.55,-0.63 -6.96,0 -18.64,-10.44 -23.39,-5.69 -4.74,4.74 -7.59,6.95 -15.17,6.95 -7.59,0 -12.01,-7.58 -13.91,-9.48 0,0 0.63,-8.53 8.54,-8.53 7.9,0 2.21,-4.12 7.9,-9.8 5.69,-5.69 11.38,-3.15 11.38,-11.38 0,-8.22 -3.48,-4.42 -3.48,-11.69 0,-7.27 -1.47,-12.01 -14.33,-24.87 -4.63,-4.63 -9.06,-9.06 -12.86,-12.85 -26.22,-23.49 -40.75,-47.82 -41.16,-48.12 l 15.96,-9.74 -0.01,0.01 c 0.01,0 0.61,1.01 1.99,3.05 9.51,14.57 53.85,73.26 113.59,78.68 l -1.84,18.59"
         style="fill:#231f20;fill-opacity:1;fill-rule:nonzero;stroke:none"
         id="path92" />
      <path
         inkscape:connector-curvature="0"
         d="m 1560.84,3650.05 549.66,579.34 1.65,-1.58 -549.66,-579.34 -1.65,1.58 v 0"
         style="fill:#231f20;fill-opacity:1;fill-rule:nonzero;stroke:none"
         id="path94" />
      <path
         inkscape:connector-curvature="0"
         d="m 2232.72,4170.43 c 1.83,1.2 2.82,3.44 2.2,5.66 l -11.26,40.37 c -0.77,2.74 -3.64,4.36 -6.38,3.6 l -7.74,-2.16 -6.54,23.45 c -0.48,1.71 -1.82,2.9 -3.39,3.42 0.27,0.89 0.35,1.86 0,2.86 l -6.31,17.93 c -0.94,2.69 -4,4.43 -6.8,3.87 l -0.44,-0.09 c -3.01,18.83 -4.42,36.63 -4.42,53.25 0,36.77 6.46,68.11 15.36,93.97 8.73,12.47 15.38,26.78 19.27,43.12 16.74,29.89 33.16,44.99 33.11,45.09 l -4.67,5.03 c -0.14,-0.14 -11.68,-11.01 -25.31,-31.79 0.52,5.14 0.85,10.41 0.85,15.91 0,9.33 -0.76,19.15 -2.38,29.52 l -6.76,-1.06 c 1.56,-10.03 2.29,-19.5 2.29,-28.46 -0.01,-11.4 -1.34,-21.87 -3.58,-31.66 -6.68,-12.03 -13.37,-26.32 -19.09,-42.8 -19.66,-27.56 -50.05,-45.82 -83.05,-58.07 -56.47,-20.8 -119.62,-23.17 -144.65,-23.17 -2.77,0 -4.91,0.03 -6.68,0.06 l -0.17,4.97 c -0.05,1.43 -1.26,2.55 -2.68,2.5 l -16.69,-0.56 c -1.43,-0.05 -2.55,-1.25 -2.5,-2.67 l 0.25,-7.35 -472.11,-14.61 -0.23,8.33 c -0.05,1.42 -1.24,2.55 -2.67,2.51 l -16.7,-0.47 c -1.42,-0.04 -2.56,-1.24 -2.51,-2.66 l 0.13,-4.8 c -19.74,-1.15 -22.31,-6.36 -36.34,-14.31 -2.77,-1.53 -5.17,-2.11 -7.37,-2.11 -10.9,-0.63 -21.81,17.47 -30,29.99 -9.32,12.84 -29.69,13.47 -39.38,13.66 -0.54,0 -1,-0.01 -1.48,-0.02 v 0.06 c -0.8,0 -1.47,-0.11 -2.26,-0.12 -0.57,-0.02 -1,-0.05 -1.26,-0.06 -40.7,-0.91 -62.32,-18.92 -70.33,-40.29 -6.92,-18.19 -25.09,-52.58 -28.61,-59.2 -2.47,1.25 -5.78,0.56 -7.46,-1.66 l -10,-13.13 c -1.32,-1.73 -1.26,-3.86 -0.06,-5.4 -1.43,-0.33 -2.71,-1.2 -3.44,-2.58 l -12.37,-23.64 -4.19,2.19 c -2.52,1.33 -5.67,0.34 -6.98,-2.19 l -23.74,-45.33 c -0.59,-1.13 -0.65,-2.36 -0.4,-3.51 -2.27,0.59 -4.73,-0.35 -5.86,-2.52 l -23.74,-45.33 c -1.32,-2.52 -0.33,-5.67 2.19,-6.99 l 9.29,-4.87 c 2.53,-1.32 5.68,-0.33 6.99,2.19 l 23.74,45.34 c 0.23,0.46 0.32,0.95 0.41,1.43 l 6.06,-3.18 c 2.51,-1.32 5.66,-0.34 6.98,2.19 l 12.32,23.54 8.36,-4.38 c 2.52,-1.32 5.67,-0.33 6.98,2.19 l 10.68,20.39 c 1.32,2.52 0.33,5.66 -2.19,6.98 l -8.35,4.39 11.45,21.89 c 0.59,1.13 0.66,2.38 0.39,3.55 2.08,-0.42 4.14,0.58 4.97,2.75 l 5.96,15.39 c 0.93,2.41 -0.03,5.29 -2.05,6.85 3.26,6.13 21.76,41.05 29.06,60.22 7.24,18.68 25.19,34.93 64.1,35.96 v -0.11 0.02 c 0,0 1.82,0.15 4.84,0.15 9.12,0.18 28.17,-1.9 33.73,-10.7 8.28,-11.51 18.09,-32.34 35.65,-32.97 3.47,0 7.11,0.98 10.7,3 15.98,8.88 14.83,12.32 33.93,13.41 0.49,-0.5 1.14,-0.83 1.89,-0.81 l 16.7,0.47 c 1.18,0.03 1.99,0.93 2.27,2.01 l 472.39,14.62 0.01,-0.35 c 0.05,-1.41 1.25,-2.54 2.68,-2.5 l 16.69,0.57 c 0.71,0.03 1.36,0.35 1.8,0.83 1.87,-0.03 4.2,-0.07 7.21,-0.07 25.46,0.02 89.2,2.31 147.01,23.59 28.2,10.32 55.12,25.46 75.32,47.13 -6.34,-22.97 -10.57,-49.47 -10.57,-79.5 0,-17.11 1.46,-35.39 4.56,-54.72 -2.49,-0.8 -4.37,-3.32 -4.21,-5.96 l 1.09,-18.96 c 0.11,-1.76 1.13,-3.06 2.52,-3.73 -1.3,-1.28 -1.95,-3.17 -1.43,-5.04 l 4.25,-15.22 c -0.53,0.02 -1.06,0.04 -1.59,-0.11 l -18.3,-5.1 c -2.75,-0.77 -4.37,-3.64 -3.6,-6.38 l 5.94,-21.29 c 0.78,-2.74 3.64,-4.36 6.38,-3.6 l 18.3,5.11 c 0.53,0.15 0.98,0.44 1.42,0.73 l 5.85,-20.96 c 0.76,-2.73 3.64,-4.36 6.37,-3.59 l 10.09,2.81 c 0.05,-0.6 0.15,-1.19 0.41,-1.76 l 17.37,-38.13 c 1.18,-2.59 4.27,-3.75 6.86,-2.57 l 9.16,4.17 c 2.59,1.18 3.75,4.27 2.57,6.86 l -16.08,35.28"
         style="fill:#231f20;fill-opacity:1;fill-rule:nonzero;stroke:none"
         id="path96" />
      <path
         inkscape:connector-curvature="0"
         d="m 969.055,4124.9 1.449,-0.02 -0.035,-2.88 3.394,-0.04 0.032,2.88 1.386,-0.03 0.403,30.64 -6.215,0.08 -0.414,-30.63"
         style="fill:#231f20;fill-opacity:1;fill-rule:nonzero;stroke:none"
         id="path98" />
      <path
         inkscape:connector-curvature="0"
         d="m 2645.14,3532.78 -0.85,-1.18 -2.34,1.67 -1.97,-2.77 2.34,-1.67 -0.8,-1.12 24.93,-17.81 3.61,5.06 -24.92,17.82"
         style="fill:#231f20;fill-opacity:1;fill-rule:nonzero;stroke:none"
         id="path100" />
    </g>
  </g>
</svg>
