<?xml version="1.0" encoding="UTF-8" standalone="no"?>
<!-- Created with Inkscape (http://www.inkscape.org/) -->

<svg
   xmlns:dc="http://purl.org/dc/elements/1.1/"
   xmlns:cc="http://creativecommons.org/ns#"
   xmlns:rdf="http://www.w3.org/1999/02/22-rdf-syntax-ns#"
   xmlns:svg="http://www.w3.org/2000/svg"
   xmlns="http://www.w3.org/2000/svg"
   xmlns:sodipodi="http://sodipodi.sourceforge.net/DTD/sodipodi-0.dtd"
   xmlns:inkscape="http://www.inkscape.org/namespaces/inkscape"
   width="321.27258"
   height="188.15334"
   id="svg3444"
   version="1.1"
   inkscape:version="0.48.4 r9939"
   sodipodi:docname="New document 10">
  <defs
     id="defs3446" />
  <sodipodi:namedview
     id="base"
     pagecolor="#ffffff"
     bordercolor="#666666"
     borderopacity="1.0"
     inkscape:pageopacity="0.0"
     inkscape:pageshadow="2"
     inkscape:zoom="0.35"
     inkscape:cx="155.6363"
     inkscape:cy="105.50523"
     inkscape:document-units="px"
     inkscape:current-layer="layer1"
     showgrid="false"
     fit-margin-top="0"
     fit-margin-left="0"
     fit-margin-right="0"
     fit-margin-bottom="0"
     inkscape:window-width="453"
     inkscape:window-height="379"
     inkscape:window-x="46"
     inkscape:window-y="21"
     inkscape:window-maximized="0" />
  <metadata
     id="metadata3449">
    <rdf:RDF>
      <cc:Work
         rdf:about="">
        <dc:format>image/svg+xml</dc:format>
        <dc:type
           rdf:resource="http://purl.org/dc/dcmitype/StillImage" />
        <dc:title></dc:title>
      </cc:Work>
    </rdf:RDF>
  </metadata>
  <g
     inkscape:label="Layer 1"
     inkscape:groupmode="layer"
     id="layer1"
     transform="translate(-219.3637,-449.71409)">
    <g
       transform="matrix(0.13333333,0,0,-0.13333333,-179.62369,811.03941)"
       id="g3381">
      <path
         inkscape:connector-curvature="0"
         d="m 3481.06,2230.7 c -257.35,-0.02 -465.95,-208.61 -465.96,-465.95 0.01,-257.35 208.61,-465.94 465.96,-465.96 257.35,0.02 465.94,208.61 465.95,465.96 -0.01,257.34 -208.6,465.93 -465.95,465.95 z m 427.92,-431.12 -305.47,-12.96 294.81,79.75 c 5.25,-21.66 8.84,-43.99 10.66,-66.79 z m -23.84,110.54 -17.73,-5.94 c -1.45,0.73 -3.24,0.93 -5.01,0.34 l -6.98,-2.35 c -3.3,-1.1 -5.15,-4.42 -4.15,-7.4 1.02,-2.97 4.47,-4.5 7.75,-3.4 l 7,2.34 c 1.76,0.59 3.08,1.8 3.82,3.27 l 17.8,5.96 c 3.64,-10.67 6.95,-21.48 9.74,-32.51 l -312.83,-84.61 -63.31,-2.68 51.36,36.14 299.25,123.51 c 4.87,-10.66 9.28,-21.58 13.29,-32.67 z m -426.66,-162.28 2.09,0.09 0.09,-1.09 -2.74,-1.14 z m -0.75,31.35 -1.08,0.1 -0.63,2.9 2,-0.92 z m 0.86,6.4 -3.71,1.71 -2.09,9.51 6.44,-6.41 z m -5.36,-10.21 0.45,-2.02 -1.06,-0.29 -1.6,2.5 z m -2.39,-14.7 1.66,-1.29 -0.64,-0.91 -2.83,0.9 z m -2.25,6.98 2.15,0.58 1.12,-1.76 -0.89,-0.64 z m -0.39,12.34 -5.22,8.22 8.27,-3.83 1.05,-4.73 z m 0.2,-8.07 -3.97,-1.07 -7.7,5.94 9.08,-0.78 z m -1.01,-8.6 -3.36,-2.36 -9.3,2.94 8.81,2.38 z m -2.66,-6.96 4.65,-1.47 -2.36,-3.36 -9.73,-0.41 z m 4.53,-8.92 4.86,0.21 -1.05,-3.95 -9.01,-3.72 z m 3.01,4.31 1.27,1.81 1.99,-0.61 -0.28,-1.07 z m 4.3,-11.13 4.48,1.85 0.38,-4.08 -7.19,-6.56 z m 3.35,54.97 -8.79,8.74 -11.04,50.16 21.55,-45.96 z m -9.8,-6.08 -11.27,5.23 -27.54,43.34 35.99,-35.82 z m -7.13,-9.07 -12.38,1.05 -40.73,31.33 46.1,-21.35 z m -3.6,-10.97 -12.01,-3.24 -48.96,15.52 50.61,-4.32 z m 0.36,-11.53 -10.15,-7.15 -51.37,-2.17 49.07,13.26 z m -8.78,-11.27 13.05,0.55 -7.09,-10.18 -47.52,-19.61 z m 8.68,-13.04 12.08,4.99 -3.18,-12.01 -37.94,-34.67 z m 12.61,-9.26 9.63,8.8 1.12,-12.36 -23.77,-45.52 z m 10.3,59.37 0.39,2.95 1.57,-1.56 -0.97,-1.86 z m 12.64,5.75 -1.74,3.71 4.5,8.63 0.81,-9.07 z m 4.04,-1.96 0.2,-2.21 -1.91,-0.8 -0.48,1.02 z m -8.02,10.43 -5.27,11.25 6.76,50.92 4.56,-50.61 z m 0.73,-11.43 -1.53,-1.4 -0.77,0.78 1.37,2.63 z m -3.16,6.77 -2.26,-4.31 -2.89,2.89 1.28,9.65 z m -4.81,-24.72 1.82,2.6 2.59,1.83 3.05,0.83 3.2,-0.29 2.83,-1.3 2.26,-2.26 1.34,-2.88 0.29,-3.12 -0.81,-3.08 -1.83,-2.62 -2.55,-1.8 -3.1,-0.84 -3.16,0.27 -2.85,1.32 -2.25,2.24 -1.35,2.87 -0.28,3.17 z m 10.9,-25 -1.36,-2.63 -0.94,1.98 1.53,1.42 z m -7.86,1.35 0.47,-0.99 -2.2,-2.01 -0.19,2.22 z m 2.33,-4.94 1.74,-3.71 -4.51,-8.61 -0.82,9.04 z m 3.96,-8.46 5.28,-11.24 -6.77,-50.91 -4.55,50.59 z m 2.43,4.65 2.25,4.3 2.9,-2.88 -1.28,-9.66 z m 4.27,8.17 0.97,1.85 0.99,-0.47 -0.39,-2.94 z m 1.51,64.31 23.78,45.55 -13.03,-49.11 -9.63,-8.8 z m 12.16,-39.84 -1.65,1.27 0.63,0.92 2.84,-0.92 z m 2.25,-6.99 -2.15,-0.58 -1.11,1.77 0.89,0.62 z m -3.67,15.89 -1.28,-1.82 -1.96,0.63 0.27,1.06 z m -1.85,4.09 1.05,3.96 8.99,3.72 -5.2,-7.47 z m -2.45,7.03 -4.48,-1.86 -0.37,4.08 7.17,6.57 z m 0.56,-41.55 -2,0.94 0.28,2.07 1.07,-0.1 z m -1.91,36.49 -0.56,-2.15 -2.09,-0.09 -0.09,1.11 z m -0.67,-39.88 3.71,-1.71 2.09,-9.5 -6.44,6.4 z m 5.36,10.2 -0.45,2.03 1.06,0.29 1.61,-2.5 z m 5.02,-4.62 5.22,-8.22 -8.25,3.83 -1.04,4.74 z m 2.42,3.99 -2.6,4.1 3.95,1.07 7.71,-5.95 z m -1.6,12.69 3.35,2.35 9.27,-2.93 -8.78,-2.37 z m 2.65,6.96 -4.62,1.46 2.32,3.36 9.74,0.41 z m 0.7,9.13 7.11,10.18 47.5,19.61 -41.55,-29.24 z m 4.37,13.56 -12.06,-4.97 3.18,12 37.91,34.65 z m -20.25,-61.91 8.79,-8.75 11.04,-50.15 -21.55,45.95 z m 9.8,6.08 11.27,-5.22 27.54,-43.36 -35.99,35.82 z m 7.13,9.07 12.39,-1.07 40.74,-31.33 -46.12,21.37 z m 3.6,10.96 11.99,3.23 48.98,-15.5 -50.62,4.3 z m -0.37,11.52 10.15,7.15 51.32,2.17 -49.01,-13.26 z m 365.36,175.06 -282.03,-116.42 248.79,175.09 c 12.56,-18.57 23.65,-38.2 33.24,-58.67 z m -35.67,62.06 -263.85,-185.69 -58.6,-24.2 35.88,51.52 237.68,217.25 c 17.99,-18.11 34.33,-37.83 48.89,-58.88 z m -51.87,61.81 -223.84,-204.59 172.59,247.75 c 18.18,-13.07 35.33,-27.48 51.25,-43.16 z m -54.64,45.57 -183.2,-262.97 -46.77,-42.75 16.11,60.72 147.88,283.2 c 23.2,-10.79 45.25,-23.6 65.98,-38.2 z m -69.79,39.92 -139.21,-266.58 76.76,289.23 c 21.56,-5.95 42.4,-13.55 62.45,-22.65 z m -66.46,23.79 -81.53,-307.19 -29.34,-56.17 -5.62,62.52 41.7,313.69 c 25.64,-2.13 50.65,-6.44 74.79,-12.85 z m -110.64,14.45 c 10.67,0 21.21,-0.53 31.69,-1.29 l -39.23,-295.11 -26.53,294.93 c 11.25,0.88 22.59,1.47 34.07,1.47 z m -38.23,-1.79 28.19,-313.39 -8.35,-62.81 -26.67,56.84 -67.48,306.15 c 23.99,6.5 48.84,10.96 74.31,13.21 z m -78.35,-14.34 63.45,-287.86 -124.58,265.47 c 19.63,8.95 40.05,16.45 61.13,22.39 z m -64.94,-24.11 132.48,-282.28 13.63,-61.88 -44.51,44.29 -166.58,262.22 c 20.43,14.35 42.15,26.99 64.98,37.65 z m -68.38,-40.07 156.55,-246.43 -206.04,205.04 c 15.43,15 31.97,28.83 49.49,41.39 z m -53.77,-45.47 c 0.42,0.41 0.85,0.8 1.26,1.21 l 219.22,-218.17 33.98,-53.47 -56.99,26.4 -244.49,188.09 c 14.11,19.94 29.79,38.69 47.02,55.94 z m -49.44,-59.34 229.71,-176.72 -262.21,121.51 c 9.46,19.26 20.36,37.69 32.5,55.21 z m -34.36,-58.96 279.1,-129.32 50.23,-38.65 -62.6,5.33 -292.89,92.75 c 6.75,24.21 15.47,47.6 26.16,69.89 z m -27.29,-73.9 275.14,-87.14 -287.01,24.42 c 2.43,21.42 6.41,42.36 11.87,62.72 z m -14.69,-111.47 c 0,15.05 0.79,29.94 2.3,44.59 l 305.62,-25.98 60.4,-19.14 -60.62,-16.4 -306.54,-13 c -0.69,9.9 -1.16,19.85 -1.16,29.93 z m 1.46,-34.09 287.91,12.21 -278.2,-75.28 c -4.74,20.5 -8.01,41.55 -9.71,63.07 z m 10.65,-67.14 296.19,80.15 63.36,2.68 -51.34,-36.14 -284.43,-117.39 c -9.9,22.62 -17.87,46.24 -23.78,70.7 z m 25.51,-74.5 267.18,110.28 -236.65,-166.57 c -11.53,17.9 -21.73,36.7 -30.53,56.29 z m 32.78,-59.8 251.9,177.28 58.6,24.2 -35.89,-51.53 -228.25,-208.62 c -17.08,18.15 -32.62,37.77 -46.36,58.67 z m 55.38,-68.15 c -2.11,2.11 -4.08,4.3 -6.15,6.45 l 214.53,196.09 -166.58,-239.13 c -14.69,11.32 -28.7,23.5 -41.8,36.59 z m 45.09,-39.18 177.29,254.5 46.78,42.77 -16.09,-60.66 -144.32,-276.39 c -22.41,11.44 -43.72,24.73 -63.66,39.78 z m 67.38,-41.69 135.74,259.96 -75.5,-284.48 c -20.82,6.66 -40.94,14.91 -60.24,24.52 z m 64.23,-25.82 80.27,302.59 29.34,56.16 5.62,-62.56 -41.47,-311.88 c -25.32,3.13 -50.01,8.35 -73.76,15.69 z m 126.97,-19.09 c -16.61,0 -32.95,1.06 -49.06,2.87 l 39.02,293.52 26.62,-295.96 c -5.51,-0.21 -11.01,-0.43 -16.58,-0.43 z m 20.76,0.53 -28.3,314.66 8.36,62.82 26.66,-56.82 68.39,-310.31 c -24.32,-5.54 -49.4,-9.13 -75.11,-10.35 z m 79.18,11.28 -64.4,292.18 127.57,-271.85 c -20.32,-8.35 -41.42,-15.14 -63.17,-20.33 z m 67.06,21.86 -135.54,288.85 -13.63,61.89 44.5,-44.29 171.88,-270.57 c -21.2,-13.82 -43.64,-25.91 -67.21,-35.88 z m 70.72,38.15 -161.93,254.91 214.6,-213.6 c -16.43,-15.1 -34.04,-28.91 -52.67,-41.31 z m 65.95,53.96 c -3.34,-3.34 -6.81,-6.54 -10.24,-9.76 l -227.82,226.72 -33.98,53.49 56.99,-26.41 255.86,-196.83 c -12.47,-16.71 -26.1,-32.49 -40.81,-47.21 z m 43.22,50.6 -241.09,185.48 276.43,-128.11 c -10.29,-20.09 -22.11,-39.27 -35.34,-57.37 z m 37.24,61.08 -293.34,135.94 -50.24,38.65 62.58,-5.31 309.04,-97.87 c -7.25,-24.8 -16.66,-48.67 -28.04,-71.41 z m 29.2,75.43 -291.29,92.23 304.39,-25.9 c -2.65,-22.71 -7.07,-44.85 -13.1,-66.33 z m -309.39,97.96 -60.41,19.13 60.62,16.39 324.09,13.75 c 0.72,-10.14 1.22,-20.34 1.22,-30.66 0,-15.57 -0.89,-30.94 -2.5,-46.1 L 3585,1746.14"
         style="fill:#231f20;fill-opacity:1;fill-rule:nonzero;stroke:none"
         id="path130" />
      <path
         inkscape:connector-curvature="0"
         d="m 4936.01,1303.33 c 257.33,0.02 465.94,208.62 465.94,465.96 0,257.34 -208.61,465.94 -465.94,465.96 -257.36,-0.02 -465.94,-208.62 -465.96,-465.96 0.02,-257.34 208.6,-465.94 465.96,-465.96 z m -427.94,431.12 305.48,12.97 -294.8,-79.76 c -5.25,21.68 -8.84,43.98 -10.68,66.79 z m 23.84,-110.52 17.73,5.93 c 1.45,-0.74 3.25,-0.93 5.01,-0.35 l 7,2.35 c 3.28,1.11 5.14,4.43 4.13,7.4 -0.99,2.99 -4.47,4.51 -7.75,3.4 l -6.99,-2.33 c -1.75,-0.6 -3.08,-1.81 -3.81,-3.28 l -17.8,-5.96 c -3.65,10.67 -6.95,21.49 -9.74,32.52 l 312.83,84.61 63.3,2.69 -51.36,-36.14 -299.25,-123.54 c -4.87,10.67 -9.27,21.59 -13.3,32.7 z m 426.66,162.26 -2.07,-0.1 -0.09,1.11 2.73,1.14 z m 0.75,-31.35 1.09,-0.09 0.64,-2.91 -2.01,0.93 z m -0.84,-6.39 3.7,-1.73 2.08,-9.49 -6.43,6.4 z m 5.34,10.2 -0.44,2.03 1.06,0.29 1.61,-2.51 z m 2.39,14.71 -1.65,1.27 0.64,0.92 2.84,-0.9 z m 2.26,-6.98 -2.14,-0.58 -1.13,1.76 0.91,0.63 z m 0.38,-12.35 5.22,-8.23 -8.25,3.85 -1.05,4.73 z m -0.18,8.08 3.95,1.07 7.7,-5.93 -9.06,0.78 z m 1.02,8.59 3.34,2.37 9.29,-2.94 -8.8,-2.39 z m 2.62,6.96 -4.61,1.48 2.33,3.35 9.74,0.41 z m -4.52,8.92 -4.86,-0.2 1.05,3.95 9.02,3.72 z m -2.99,-4.31 -1.26,-1.82 -2.01,0.64 0.29,1.06 z m -4.31,11.13 -4.49,-1.86 -0.36,4.09 7.18,6.58 z m -3.35,-54.96 8.79,-8.74 11.06,-50.16 -21.57,45.96 z m 9.79,6.09 11.28,-5.23 27.55,-43.36 -36.03,35.84 z m 7.14,9.06 12.38,-1.05 40.73,-31.34 -46.09,21.36 z m 3.61,10.96 12,3.24 48.97,-15.5 -50.64,4.3 z m -0.37,11.54 10.16,7.14 51.35,2.18 -49.05,-13.26 z m 8.78,11.27 -13.05,-0.55 7.1,10.18 47.5,19.61 z m -8.68,13.03 -12.08,-4.98 3.19,11.99 37.94,34.68 z m -12.61,9.28 -9.63,-8.82 -1.12,12.36 23.77,45.52 z m -10.29,-59.39 -0.41,-2.94 -1.56,1.55 0.97,1.85 z m -12.65,-5.75 1.75,-3.7 -4.51,-8.63 -0.81,9.07 z m -4.04,1.95 -0.19,2.22 1.91,0.79 0.47,-0.99 z m 8.02,-10.41 5.27,-11.25 -6.76,-50.91 -4.55,50.58 z m -0.75,11.41 1.55,1.41 0.77,-0.78 -1.37,-2.63 z m 3.18,-6.76 2.24,4.3 2.91,-2.87 -1.28,-9.66 z m 4.8,24.72 -1.82,-2.6 -2.59,-1.82 -3.02,-0.82 -3.22,0.27 -2.83,1.31 -2.25,2.26 -1.36,2.87 -0.28,3.13 0.82,3.09 1.82,2.61 2.56,1.8 3.1,0.84 3.14,-0.27 2.87,-1.33 2.25,-2.24 1.33,-2.86 0.3,-3.17 z m -10.9,25.01 1.38,2.64 0.93,-2 -1.54,-1.4 z m 7.85,-1.36 -0.45,0.99 2.19,2.01 0.19,-2.21 z m -2.31,4.95 -1.74,3.69 4.51,8.64 0.82,-9.05 z m -3.96,8.46 -5.28,11.23 6.76,50.92 4.54,-50.59 z m -2.43,-4.65 -2.25,-4.3 -2.89,2.88 1.27,9.64 z m -4.28,-8.18 -0.95,-1.85 -1,0.47 0.4,2.94 z m -1.51,-64.32 -23.77,-45.53 13.03,49.11 9.62,8.8 z m -12.14,39.85 1.65,-1.26 -0.65,-0.9 -2.83,0.9 z m -2.26,6.99 2.14,0.58 1.12,-1.75 -0.91,-0.65 z m 3.68,-15.88 1.25,1.82 2,-0.64 -0.29,-1.05 z m 1.84,-4.1 -1.05,-3.97 -8.99,-3.71 5.2,7.48 z m 2.46,-7.01 4.48,1.83 0.36,-4.07 -7.18,-6.57 z m -0.56,41.53 1.99,-0.93 -0.27,-2.07 -1.09,0.1 z m 1.9,-36.48 0.57,2.14 2.08,0.09 0.09,-1.09 z m 0.68,39.87 -3.72,1.72 -2.09,9.51 6.44,-6.41 z m -5.38,-10.2 0.45,-2.03 -1.06,-0.28 -1.59,2.51 z m -5.01,4.61 -5.22,8.24 8.24,-3.83 1.05,-4.75 z m -2.41,-3.97 2.6,-4.1 -3.96,-1.06 -7.71,5.93 z m 1.58,-12.69 -3.34,-2.36 -9.27,2.93 8.79,2.38 z m -2.64,-6.95 4.63,-1.48 -2.34,-3.35 -9.72,-0.41 z m -0.71,-9.14 -7.1,-10.2 -47.51,-19.6 41.57,29.25 z m -4.36,-13.58 12.06,4.98 -3.2,-12 -37.9,-34.64 z m 20.25,61.94 -8.8,8.75 -11.04,50.13 21.55,-45.95 z m -9.81,-6.09 -11.26,5.21 -27.54,43.36 36,-35.82 z m -7.12,-9.07 -12.38,1.06 -40.75,31.34 46.12,-21.36 z m -3.61,-10.96 -11.98,-3.24 -48.97,15.51 50.61,-4.3 z m 0.38,-11.54 -10.16,-7.13 -51.31,-2.17 49.02,13.25 z m -365.36,-175.04 282.05,116.41 -248.79,-175.08 c -12.57,18.57 -23.66,38.19 -33.26,58.67 z m 35.66,-62.07 263.87,185.7 58.6,24.2 -35.9,-51.54 -237.66,-217.23 c -18.02,18.09 -34.34,37.82 -48.91,58.87 z m 51.88,-61.81 223.84,204.6 -172.61,-247.75 c -18.16,13.07 -35.32,27.48 -51.23,43.15 z m 54.65,-45.57 183.2,262.97 46.77,42.75 -16.11,-60.7 -147.88,-283.22 c -23.21,10.8 -45.26,23.61 -65.98,38.2 z m 69.77,-39.92 139.21,266.6 -76.76,-289.24 c -21.54,5.96 -42.4,13.55 -62.45,22.64 z m 66.48,-23.78 81.51,307.19 29.34,56.18 5.64,-62.54 -41.7,-313.67 c -25.65,2.1 -50.65,6.42 -74.79,12.84 z m 110.64,-14.45 c -10.69,0 -21.22,0.53 -31.7,1.29 l 39.24,295.1 26.53,-294.92 c -11.26,-0.88 -22.61,-1.47 -34.07,-1.47 z m 38.22,1.78 -28.18,313.39 8.34,62.82 26.68,-56.83 67.48,-306.16 c -24.01,-6.52 -48.83,-10.97 -74.32,-13.22 z m 78.34,14.35 -63.43,287.86 124.58,-265.48 c -19.65,-8.95 -40.06,-16.45 -61.15,-22.38 z m 64.96,24.1 -132.48,282.29 -13.64,61.88 44.52,-44.29 166.58,-262.22 c -20.43,-14.37 -42.15,-27 -64.98,-37.66 z m 68.38,40.07 -156.55,246.44 206.02,-205.04 c -15.43,-15.01 -31.95,-28.84 -49.47,-41.4 z m 53.75,45.49 c -0.39,-0.43 -0.84,-0.81 -1.27,-1.23 l -219.2,218.16 -33.98,53.49 57,-26.4 244.48,-188.09 c -14.12,-19.94 -29.78,-38.71 -47.03,-55.93 z m 49.46,59.33 -229.72,176.72 262.21,-121.5 c -9.47,-19.26 -20.35,-37.71 -32.49,-55.22 z m 34.36,58.95 -279.09,129.31 -50.25,38.67 62.6,-5.33 292.89,-92.75 c -6.76,-24.22 -15.46,-47.62 -26.15,-69.9 z m 27.29,73.9 -275.16,87.15 287.02,-24.42 c -2.42,-21.44 -6.41,-42.38 -11.86,-62.73 z m 14.68,111.48 c 0,-15.06 -0.8,-29.94 -2.29,-44.6 l -305.63,25.99 -60.4,19.13 60.64,16.4 306.54,12.99 c 0.67,-9.88 1.14,-19.84 1.14,-29.91 z m -1.47,34.09 -287.89,-12.21 278.2,75.28 c 4.73,-20.5 8,-41.57 9.69,-63.07 z m -10.63,67.13 -296.2,-80.14 -63.36,-2.69 51.35,36.15 284.42,117.38 c 9.9,-22.62 17.89,-46.25 23.79,-70.7 z m -25.51,74.51 -267.2,-110.27 236.66,166.56 c 11.54,-17.9 21.74,-36.7 30.54,-56.29 z m -32.79,59.79 -251.91,-177.29 -58.6,-24.18 35.91,51.52 228.25,208.64 c 17.07,-18.17 32.61,-37.78 46.35,-58.69 z m -55.39,68.15 c 2.11,-2.1 4.11,-4.31 6.16,-6.46 l -214.53,-196.07 166.57,239.14 c 14.7,-11.34 28.69,-23.52 41.8,-36.61 z m -45.07,39.19 -177.29,-254.51 -46.8,-42.76 16.1,60.67 144.31,276.38 c 22.42,-11.44 43.74,-24.73 63.68,-39.78 z m -67.38,41.68 -135.75,-259.94 75.5,284.45 c 20.83,-6.65 40.94,-14.88 60.25,-24.51 z m -64.23,25.82 -80.29,-302.58 -29.33,-56.16 -5.63,62.55 41.46,311.89 c 25.35,-3.13 50.03,-8.36 73.79,-15.7 z m -126.97,19.09 c 16.59,0 32.95,-1.04 49.04,-2.88 l -39.01,-293.5 -26.63,295.96 c 5.51,0.2 11.03,0.42 16.6,0.42 z m -20.76,-0.53 28.29,-314.66 -8.35,-62.83 -26.67,56.84 -68.39,310.31 c 24.32,5.55 49.39,9.12 75.12,10.34 z m -79.19,-11.28 64.4,-292.17 -127.56,271.84 c 20.31,8.35 41.42,15.15 63.16,20.33 z m -67.06,-21.87 135.53,-288.83 13.65,-61.89 -44.51,44.29 -171.88,270.56 c 21.21,13.83 43.65,25.93 67.21,35.87 z m -70.73,-38.13 161.96,-254.92 -214.62,213.6 c 16.44,15.09 34.04,28.92 52.66,41.32 z m -65.95,-53.97 c 3.36,3.35 6.8,6.55 10.27,9.77 l 227.8,-226.72 34,-53.49 -57,26.41 -255.87,196.83 c 12.46,16.7 26.09,32.48 40.8,47.2 z m -43.21,-50.6 241.1,-185.48 -276.45,128.1 c 10.31,20.1 22.12,39.28 35.35,57.38 z m -37.25,-61.08 293.35,-135.94 50.24,-38.66 -62.59,5.33 -309.03,97.87 c 7.24,24.81 16.65,48.67 28.03,71.4 z m -29.17,-75.42 291.27,-92.23 -304.39,25.9 c 2.65,22.7 7.08,44.85 13.12,66.33 z m 309.36,-97.97 60.42,-19.12 -60.61,-16.39 -324.11,-13.77 c -0.71,10.16 -1.2,20.35 -1.2,30.68 0,15.57 0.87,30.94 2.5,46.09 l 323,-27.49"
         style="fill:#231f20;fill-opacity:1;fill-rule:nonzero;stroke:none"
         id="path132" />
      <path
         inkscape:connector-curvature="0"
         d="m 4064.23,1796.07 c -69.84,0 -126.48,-56.62 -126.48,-126.5 0,-69.82 56.64,-126.46 126.48,-126.46 69.85,0 126.49,56.64 126.49,126.46 0,69.88 -56.64,126.5 -126.49,126.5 z m 0,-187.29 c -33.59,0 -60.8,27.24 -60.8,60.81 0,33.59 27.21,60.82 60.8,60.82 33.58,0 60.82,-27.23 60.82,-60.82 0,-33.57 -27.24,-60.81 -60.82,-60.81 z m 0,115.97 c -30.45,0 -55.15,-24.69 -55.15,-55.16 0,-30.45 24.7,-55.16 55.15,-55.16 30.46,0 55.15,24.71 55.15,55.16 0,30.47 -24.69,55.16 -55.15,55.16"
         style="fill:#231f20;fill-opacity:1;fill-rule:nonzero;stroke:none"
         id="path134" />
      <path
         inkscape:connector-curvature="0"
         d="m 3898.55,2347.6 -6.03,21.48 c -0.43,1.56 -2.07,2.5 -3.63,2.05 l -38.98,-10.9 c -0.23,-0.07 -0.41,-0.21 -0.61,-0.31 -7.18,-0.74 -12.82,-6.74 -12.82,-14.12 0,-7.85 6.38,-14.24 14.25,-14.24 2.21,0 4.25,0.54 6.12,1.43 0.22,0 0.45,-0.02 0.67,0.04 l 38.98,10.92 c 1.57,0.44 2.5,2.09 2.05,3.65"
         style="fill:#231f20;fill-opacity:1;fill-rule:nonzero;stroke:none"
         id="path136" />
      <path
         inkscape:connector-curvature="0"
         d="m 3985.16,2605.48 c -18.34,23.97 -63.8,29.97 -103.3,21.51 -39.48,-8.47 -86.01,-4.24 -118.45,0.35 -32.43,4.57 -35.62,4.23 -69.8,4.23 -34.2,0 -50.42,-21.85 -50.42,-21.85 l -8.81,-19.76 c -2.16,-6.65 -1.41,-14.44 -1.41,-14.44 0.75,-11.34 10.39,-13.58 17.97,-21.16 1.14,-1.14 2.92,-2.45 5.04,-3.83 5.22,-7.74 12.63,-17.13 19.27,-19.48 10.17,-3.58 13.66,-4.8 21.53,2.02 1.67,-0.36 3.12,-0.56 4.23,-0.56 1.98,0 4.92,-0.24 8.42,-0.58 7.09,-8.28 20.58,-21.06 37.79,-21.53 2.02,0 4.06,0.21 6.11,0.64 9.62,2 19.82,3.82 28.49,5.29 1.02,-11.03 10.18,-19.69 21.46,-19.69 5.04,0 9.63,1.78 13.3,4.67 l 39.63,-139.51 30.1,8.55 -46.77,164.63 49.17,45.8 c 0.73,-0.15 1.32,-0.37 1.62,-0.68 4.4,-4.42 19.39,-5.99 31.03,-1.76 11.63,4.22 51.1,0 61.33,-1.41 10.23,-1.41 20.81,4.57 2.47,28.55 z m -146.03,-56.63 -14.29,11.01 -2.43,-6.6 -16.66,-5.88 -2.71,-7.42 c -8.69,-0.12 -16.13,-5.32 -19.49,-12.79 -9.4,-1.53 -21.21,-3.6 -32.31,-5.92 -1.36,-0.27 -2.72,-0.41 -4.02,-0.42 -7.32,-0.09 -15.07,4.23 -21.35,9.48 11.36,-1.02 23.86,-1.74 32.6,-0.27 16.92,2.81 43.01,28.55 58.89,35.6 10.46,4.65 36.89,11.35 54.96,14.13 l -33.19,-30.92"
         style="fill:#231f20;fill-opacity:1;fill-rule:nonzero;stroke:none"
         id="path138" />
      <path
         inkscape:connector-curvature="0"
         d="m 4160.51,1751.58 c 0,0 -6.03,57.89 -286.24,64.12 -280.23,6.21 -383.57,-5.58 -383.57,-5.58 l 8.79,-30.73 c 0,0 341.56,-4.16 468.19,-74.74 l 192.83,46.93"
         style="fill:#231f20;fill-opacity:1;fill-rule:nonzero;stroke:none"
         id="path140" />
      <path
         inkscape:connector-curvature="0"
         d="m 3465.19,1766.98 31.23,-25.54 496.17,-69.99 12.5,42.3 -539.9,53.23"
         style="fill:#231f20;fill-opacity:1;fill-rule:nonzero;stroke:none"
         id="path142" />
      <path
         inkscape:connector-curvature="0"
         d="m 3558.64,1764.75 c 0,-2.33 -6.01,-4.36 -6.23,-6.61 -0.2,-2.32 5.34,-5.41 4.93,-7.65 -0.44,-2.28 -6.73,-3.17 -7.34,-5.37 -0.64,-2.21 4.25,-6.27 3.42,-8.42 -0.83,-2.14 -7.18,-1.86 -8.21,-3.89 -1.03,-2.08 3.02,-6.97 1.81,-8.92 -1.21,-1.96 -7.39,-0.51 -8.78,-2.33 -1.38,-1.83 1.69,-7.38 0.15,-9.1 -1.57,-1.68 -7.37,0.88 -9.07,-0.66 -1.7,-1.56 0.32,-7.6 -1.51,-8.97 -1.83,-1.38 -7.08,2.19 -9.03,0.99 -1.96,-1.22 -1.07,-7.49 -3.14,-8.54 -2.03,-1.01 -6.54,3.47 -8.7,2.64 -2.12,-0.83 -2.42,-7.18 -4.64,-7.8 -2.19,-0.64 -5.78,4.61 -8.05,4.17 -2.26,-0.42 -3.73,-6.59 -6.04,-6.81 -2.26,-0.21 -4.83,5.61 -7.16,5.61 -2.32,0 -4.88,-5.82 -7.16,-5.61 -2.3,0.22 -3.77,6.39 -6,6.81 -2.29,0.44 -5.88,-4.81 -8.08,-4.17 -2.22,0.62 -2.51,6.97 -4.64,7.8 -2.16,0.83 -6.66,-3.65 -8.71,-2.64 -2.06,1.03 -1.19,7.32 -3.13,8.54 -1.96,1.2 -7.2,-2.37 -9.04,-0.99 -1.84,1.39 0.18,7.42 -1.52,8.98 -1.68,1.53 -7.5,-1.03 -9.06,0.69 -1.55,1.68 1.54,7.23 0.15,9.07 -1.39,1.83 -7.56,0.38 -8.78,2.34 -1.2,1.93 2.83,6.82 1.8,8.9 -1.01,2.03 -7.36,1.75 -8.19,3.9 -0.83,2.14 4.06,6.2 3.43,8.41 -0.62,2.2 -6.92,3.08 -7.35,5.35 -0.41,2.24 5.13,5.35 4.93,7.66 -0.21,2.26 -6.23,4.29 -6.23,6.62 0,2.32 6.02,4.35 6.23,6.62 0.2,2.3 -5.34,5.41 -4.93,7.63 0.43,2.29 6.73,3.17 7.35,5.36 0.63,2.22 -4.26,6.28 -3.43,8.42 0.83,2.14 7.18,1.87 8.19,3.92 1.04,2.07 -3,6.95 -1.8,8.9 1.22,1.96 7.41,0.49 8.79,2.33 1.38,1.84 -1.7,7.38 -0.14,9.09 1.54,1.71 7.36,-0.87 9.05,0.69 1.69,1.54 -0.31,7.56 1.52,8.95 1.83,1.41 7.08,-2.19 9.03,-0.98 1.95,1.21 1.07,7.52 3.13,8.54 2.05,1.02 6.55,-3.48 8.71,-2.64 2.13,0.83 2.42,7.19 4.64,7.81 2.2,0.63 5.79,-4.6 8.06,-4.18 2.25,0.42 3.71,6.59 6.02,6.82 2.28,0.2 4.84,-5.62 7.16,-5.62 2.33,0 4.9,5.82 7.16,5.62 2.31,-0.23 3.78,-6.4 6.02,-6.82 2.29,-0.42 5.87,4.81 8.07,4.18 2.22,-0.62 2.52,-6.98 4.65,-7.81 2.15,-0.84 6.66,3.65 8.69,2.64 2.07,-1.02 1.21,-7.33 3.15,-8.54 1.96,-1.21 7.21,2.35 9.03,0.98 1.84,-1.39 -0.18,-7.41 1.52,-8.96 1.68,-1.55 7.51,1 9.06,-0.68 1.55,-1.71 -1.54,-7.25 -0.15,-9.1 1.39,-1.83 7.57,-0.38 8.78,-2.32 1.21,-1.97 -2.83,-6.83 -1.8,-8.9 1.01,-2.05 7.36,-1.78 8.2,-3.91 0.83,-2.13 -4.07,-6.21 -3.43,-8.43 0.61,-2.19 6.9,-3.07 7.34,-5.34 0.41,-2.24 -5.13,-5.35 -4.93,-7.65 0.22,-2.27 6.23,-4.3 6.23,-6.62"
         style="fill:#231f20;fill-opacity:1;fill-rule:nonzero;stroke:none"
         id="path144" />
      <path
         inkscape:connector-curvature="0"
         d="m 3772.78,1545.1 c -3.68,-0.33 -3.47,-2.68 -7.14,-2.99 -3.67,-0.32 -3.86,2.02 -7.51,1.74 -3.6,-0.3 -3.52,-2.54 -6.97,-2.92 v 0 c -3.43,-0.17 -3.72,2.06 -7.31,1.77 -3.67,-0.3 -3.49,-2.65 -7.17,-2.95 -3.67,-0.3 -3.85,2.07 -7.51,1.79 -3.6,-0.27 -3.53,-2.52 -6.97,-2.87 v 0 c -3.44,-0.15 -3.72,2.07 -7.31,1.81 -3.68,-0.27 -3.5,-2.63 -7.18,-2.9 -3.67,-0.28 -3.83,2.09 -7.5,1.83 -3.61,-0.24 -3.54,-2.5 -7,-2.82 v 0 c -3.44,-0.14 -3.7,2.1 -7.29,1.85 -3.67,-0.26 -3.52,-2.61 -7.2,-2.85 -3.66,-0.26 -3.83,2.1 -7.48,1.87 -3.61,-0.23 -3.55,-2.48 -7.02,-2.79 v 0 c -3.43,-0.1 -3.68,2.13 -7.28,1.89 -3.69,-0.23 -3.53,-2.58 -7.22,-2.81 -3.67,-0.23 -3.81,2.13 -7.49,1.89 -3.6,-0.19 -3.55,-2.45 -7.02,-2.73 v 0 c -3.43,-0.1 -3.67,2.13 -7.27,1.93 -3.67,-0.21 -3.55,-2.57 -7.22,-2.77 -3.68,-0.21 -3.81,2.15 -7.48,1.95 -3.61,-0.21 -3.57,-2.48 -7.03,-2.74 v 0.01 c -3.44,-0.08 -3.67,2.15 -7.27,1.97 -3.69,-0.17 -3.57,-2.54 -7.24,-2.73 -3.68,-0.19 -3.79,2.17 -7.47,1.97 -3.59,-0.18 -3.59,-2.42 -7.04,-2.7 l 0.17,-3.88 -0.17,3.88 c -3.45,-0.07 -3.67,2.17 -7.27,2 -3.68,-0.16 -3.56,-2.51 -7.25,-2.69 -3.67,-0.16 -3.78,2.2 -7.46,2.02 -3.6,-0.15 -3.6,-2.41 -7.06,-2.65 v 0 c -3.44,-0.06 -3.65,2.17 -7.25,2.02 -3.68,-0.17 -3.59,-2.52 -7.26,-2.68 -3.68,-0.14 -3.78,2.22 -7.45,2.06 -3.61,-0.12 -3.61,-2.38 -7.07,-2.61 v 0 c -3.44,-0.04 -3.64,2.2 -7.24,2.05 -3.69,-0.14 -3.61,-2.51 -7.28,-2.66 -3.68,-0.14 -3.79,2.22 -7.34,2.09 -3.5,-0.12 -3.59,-2.37 -6.99,-2.59 l -0.06,-3.89 0.06,3.9 c -3.38,-0.03 -3.42,2.21 -6.93,2.09 -3.57,-0.15 -3.72,-2.5 -7.34,-2.63 -3.61,-0.12 -3.38,2.22 -6.95,2.08 -3.5,-0.13 -3.88,-2.38 -7.32,-2.59 l -0.58,-3.85 0.58,3.79 c -1.5,1.05 -1.82,3.32 -4.44,4.78 -2.97,1.65 -4.26,-0.43 -7.17,1.61 -2.78,2.1 -1.37,3.9 -3.49,6.08 -2.1,2.14 -3.67,0.95 -5.48,3.45 v 0 c -0.92,2.77 0.96,3.45 0.78,5.82 -0.08,2.4 -2.37,2.75 -1.62,5.83 1.33,3.03 3.04,2.04 4.94,4.62 1.68,2.57 -0.15,4.1 2.16,6.6 h 0.01 c 2.46,2.32 3.75,1.01 6.49,3.18 2.74,2.27 1.23,4.1 4.05,6.47 2.97,2.25 4.43,0.31 7.43,2.52 2.98,2.14 1.74,4.07 4.64,6.14 v -0.01 c 2.99,1.9 4.33,0.12 7.36,2.19 3.18,2.05 1.89,4.02 5.07,6.09 3.18,2.07 4.47,0.06 7.68,2.09 3.15,1.99 2.02,3.94 5.03,5.96 v 0 c 3.07,1.85 4.36,-0.04 7.56,2.09 3.24,2.17 1.95,4.04 5.14,6.31 3.17,2.35 4.61,0.21 7.79,2.88 3.13,2.6 1.77,4.22 4.41,7.12 l -5.62,5.38 c -2.33,-2.35 -4.01,-0.64 -6.65,-2.83 -2.66,-2.25 -1.47,-4.06 -4.43,-6.25 -3.03,-2.16 -4.42,-0.14 -7.51,-2.22 -3.03,-2.01 -1.99,-3.93 -4.88,-5.92 l 2.09,-3.28 -2.09,3.28 c -3.09,-1.88 -4.37,0 -7.56,-2.01 -3.23,-2.07 -1.98,-4.03 -5.2,-6.14 -3.22,-2.07 -4.51,-0.09 -7.73,-2.18 -3.13,-2.14 -1.99,-4.05 -4.88,-6.15 l 2.22,-3.21 -2.2,3.2 c -3.09,-1.97 -4.44,-0.19 -7.56,-2.44 -3.15,-2.32 -1.76,-4.14 -4.87,-6.5 -3.02,-2.54 -4.54,-0.72 -7.65,-3.34 -3.1,-2.49 -1.43,-4.53 -3.95,-7.25 v 0 c -2.71,-2.71 -4.49,-1.46 -6.92,-5.15 -2.54,-3.67 -0.15,-5.03 -1.78,-9.01 -1,-4.22 -3.59,-4.07 -3.38,-9.16 0.56,-5.09 3.1,-4.47 4.73,-8.3 l 3.46,1.79 -3.46,-1.79 c 2.17,-3.51 0.26,-5.21 3.38,-8.49 3.22,-3.23 4.78,-1.35 8.06,-3.81 3.36,-2.35 2.18,-4.28 5.86,-6.34 4.01,-1.91 3.94,0.28 9.02,-1.28 v -0.05 c 3.55,0.03 3.34,-2.22 7.07,-2.1 3.82,0.12 4.05,2.46 7.79,2.58 3.74,0.13 3.6,-2.23 7.39,-2.11 3.7,0.13 3.88,2.34 7.36,2.58 v 0.02 c 3.56,0.03 3.65,-2.24 7.39,-2.11 3.81,0.14 3.69,2.5 7.38,2.64 3.68,0.15 3.77,-2.21 7.45,-2.05 3.6,0.13 3.62,2.36 7.03,2.61 v 0 c 3.52,0.06 3.68,-2.19 7.32,-2.05 3.68,0.15 3.58,2.5 7.27,2.66 3.69,0.13 3.78,-2.23 7.46,-2.06 3.6,0.16 3.61,2.39 7.02,2.66 l -0.17,3.89 0.17,-3.89 c 3.5,0.09 3.69,-2.18 7.33,-2.01 3.67,0.18 3.57,2.53 7.26,2.7 3.68,0.15 3.79,-2.19 7.47,-2.03 3.59,0.17 3.6,2.38 7,2.68 v 0 c 3.51,0.09 3.71,-2.16 7.33,-1.98 3.7,0.19 3.58,2.54 7.26,2.73 3.67,0.2 3.81,-2.16 7.48,-1.98 3.58,0.19 3.58,2.41 6.99,2.71 l -0.2,3.88 0.2,-3.88 c 3.51,0.09 3.71,-2.17 7.34,-1.95 3.68,0.21 3.56,2.55 7.24,2.77 3.68,0.21 3.81,-2.15 7.49,-1.94 3.6,0.2 3.58,2.42 6.99,2.74 l -0.24,3.88 0.24,-3.88 c 3.5,0.13 3.72,-2.13 7.35,-1.94 3.69,0.24 3.54,2.6 7.24,2.82 3.67,0.23 3.8,-2.11 7.48,-1.9 3.59,0.24 3.57,2.45 6.97,2.79 v 0 c 3.5,0.14 3.73,-2.12 7.36,-1.89 3.69,0.23 3.53,2.59 7.23,2.84 3.66,0.25 3.83,-2.1 7.5,-1.85 3.58,0.24 3.54,2.47 6.94,2.82 l -0.27,3.88 0.27,-3.88 c 3.51,0.15 3.75,-2.09 7.38,-1.85 3.68,0.27 3.52,2.6 7.19,2.88 3.68,0.28 3.85,-2.09 7.53,-1.81 3.58,0.27 3.54,2.5 6.92,2.87 l -0.28,3.88 0.28,-3.88 c 3.52,0.19 3.77,-2.07 7.39,-1.81 3.69,0.28 3.51,2.62 7.18,2.92 3.68,0.29 3.87,-2.05 7.54,-1.76 3.58,0.3 3.53,2.51 6.91,2.91 l -0.31,3.87 0.31,-3.87 c 3.51,0.21 3.77,-2.05 7.41,-1.75 3.68,0.29 3.48,2.65 7.16,2.96 3.66,0.33 3.87,-2.03 7.53,-1.71 3.59,0.31 3.51,2.53 6.9,2.95 l -0.68,7.75 c -3.44,-0.2 -3.74,2.03 -7.33,1.72 z m -331.76,155.8 c 3.22,-1.95 4.47,-0.12 7.59,-1.84 v 0 c 3.07,-1.93 1.99,-3.92 5.23,-5.84 3.29,-1.95 4.47,0.08 7.74,-1.87 3.26,-1.95 2.05,-3.97 5.24,-5.94 3.12,-1.95 4.44,-0.08 7.44,-1.87 l 4.18,6.56 c -2.97,2.04 -1.91,3.94 -5.11,5.95 -3.3,2.04 -4.52,0 -7.81,1.98 -3.29,1.95 -2.09,4 -5.36,5.93 -3.21,1.91 -4.45,0.02 -7.58,1.78 l -1.99,-3.34 1.99,3.34 c -2.98,1.92 -1.92,3.9 -5.09,5.81 -3.18,1.97 -4.42,-0.01 -7.61,2 -3.17,2.02 -1.77,4.07 -4.8,6.11 -2.97,2.02 -4.24,0.38 -7.07,2.41 v 0 c -2.65,2.19 -1.02,4.06 -3.51,6.29 -2.09,2.42 -4.04,0.9 -5.93,3.65 -1.53,2.85 0.46,3.81 0.04,6.12 -0.66,2.65 -2.77,3.55 -3.43,6.78 l -7.7,-1.16 c 0.59,-3.89 -2.09,-3.24 -1.11,-7.95 1.14,-5.19 3.61,-4.04 5.67,-7.93 2.39,-3.49 0.65,-4.94 3.56,-8.22 3.03,-2.79 4.53,-1.44 7.47,-3.6 l 0.77,0.92 -0.77,-0.92 c 2.93,-2.33 1.6,-4.37 4.82,-6.58 3.28,-2.24 4.57,-0.39 7.83,-2.45 3.26,-2.05 2.01,-4.09 5.3,-6.12 z m 88.68,-59.12 c -1.77,4.18 -3.57,3.71 -5.67,6.93 l -3.39,-1.91 3.39,1.91 c -2.01,3.2 0.01,4.93 -2.58,8.01 -2.64,3.16 -4.34,1.78 -7.02,4.67 -2.74,2.81 -1.05,4.47 -3.88,7.34 -2.91,2.65 -4.5,1 -7.34,3.37 l -2.52,-2.96 2.53,2.97 c -2.65,2.52 -1.41,4.22 -4.46,6.62 -3.12,2.42 -4.5,0.59 -7.69,2.81 -3.16,2.21 -1.8,4.19 -5.02,6.39 -3.21,2.09 -4.53,0.25 -7.62,2.16 l -4.16,-6.55 c 2.96,-2.04 1.78,-3.98 4.87,-5.98 3.08,-2.1 4.4,-0.2 7.48,-2.36 3.09,-2.13 1.6,-4.11 4.52,-6.33 2.81,-2.23 4.4,-0.48 7.02,-2.68 h 0.02 c 2.59,-2.41 1.17,-4.12 3.81,-6.51 2.51,-2.59 4.2,-0.94 6.79,-3.59 2.49,-2.69 0.54,-4.31 2.79,-6.99 2.24,-2.62 3.73,-1.54 5.69,-4.24 v 0.02 c 1.74,-2.91 -0.8,-3.96 0.49,-6.61 0.13,-2.51 3.29,-2.36 2.68,-5.33 -0.18,-3.02 -3.09,-2.08 -3.95,-4.46 -1.73,-2.25 0.28,-3.85 -2.03,-6.21 l 5.63,-5.39 c 2.79,2.59 4.49,1.56 7.17,5.31 1.99,4.6 0.39,5.25 0.88,9.86 0.69,4.58 2.26,4.77 1.57,9.73 z m -114.52,103.13 c -0.45,3.53 1.75,3.98 1.27,7.55 -0.4,3.61 -2.79,3.38 -3.05,7.05 -0.16,3.67 2.14,3.74 2.23,7.23 0.05,3.44 -2.08,3.67 -1.86,7.07 l -3.85,0.5 3.86,-0.5 c 0.66,3.28 2.75,3.01 3.58,6.21 0.86,3.24 -1.34,3.97 -0.02,7.28 1.4,3.25 3.59,2.13 5.19,5.02 1.9,2.62 -0.15,4.22 2.04,6.74 l -2.97,2.5 2.97,-2.5 c 2.24,2.47 3.89,1.02 6.36,3.21 2.45,2.32 1.13,4.04 4.02,6.19 2.87,2.15 4.29,-0.1 7.28,1.71 2.91,1.74 2.13,3.62 5.22,5.15 h 0.01 c 3.15,1.34 4.06,-0.69 7.4,0.42 3.43,1.11 2.62,3.58 6.23,4.49 3.61,0.93 4.19,-1.36 7.7,-0.44 3.51,0.76 3.16,2.91 6.61,3.66 l -0.68,3.82 0.69,-3.83 c 3.46,0.49 3.88,-1.54 7.48,-1.14 3.68,0.44 3.4,2.78 7.12,3.25 3.72,0.47 3.95,-2.01 7.65,-1.74 3.65,0.25 3.6,2.51 7.14,2.83 v 0 c 3.52,0.12 3.72,-2.23 7.38,-2.14 3.75,0.07 3.71,2.43 7.5,2.51 3.77,0.07 3.75,-2.42 7.51,-2.48 3.67,-0.1 3.83,2.16 7.39,2.17 l 0.14,3.89 -0.14,-3.9 c 3.53,-0.19 3.55,-2.39 7.23,-2.65 3.76,-0.23 3.9,2.11 7.68,1.88 3.79,-0.24 3.61,-2.6 7.37,-2.83 3.68,-0.36 3.97,1.88 7.53,1.62 v 0 c 3.52,-0.45 3.41,-2.7 7.09,-3.05 3.77,-0.39 4.03,2.04 7.8,1.55 3.77,-0.48 3.49,-2.83 7.24,-3.31 3.67,-0.47 4.05,1.76 7.62,1.39 v 0 c 3.5,-0.58 3.31,-2.74 6.97,-3.32 3.75,-0.59 4.1,1.74 7.87,1.15 3.73,-0.58 3.38,-2.91 7.11,-3.49 3.68,-0.59 4.14,1.66 7.69,1.15 l 0.65,3.83 -0.65,-3.85 c 3.48,-0.72 3.2,-2.95 6.86,-3.62 3.74,-0.68 4.15,1.65 7.91,0.96 3.72,-0.68 3.3,-2.99 7.02,-3.67 3.66,-0.66 4.18,1.48 7.71,0.87 l 0.74,3.81 -0.74,-3.81 c 3.46,-0.81 3.14,-3.04 6.78,-3.78 3.72,-0.76 4.2,1.56 7.93,0.78 3.73,-0.76 3.23,-3.07 6.94,-3.83 3.85,-0.78 4.26,1.45 7.84,0.82 l 0.77,3.81 -0.77,-3.81 c 3.47,-0.81 3.15,-3.02 6.81,-3.76 3.75,-0.74 4.21,1.58 7.96,0.81 3.73,-0.74 3.26,-3.06 7,-3.8 3.67,-0.75 4.22,1.44 7.75,0.84 v 0 c 3.48,-0.82 3.15,-3.03 6.81,-3.77 3.74,-0.75 4.21,1.56 7.96,0.81 3.73,-0.74 3.27,-3.07 7,-3.82 3.67,-0.74 4.2,1.45 7.75,0.84 v 0 c 3.47,-0.82 3.14,-3.04 6.82,-3.77 3.73,-0.76 4.19,1.56 7.94,0.81 3.73,-0.75 3.27,-3.08 7,-3.82 3.66,-0.74 4.21,1.45 7.75,0.82 l 0.77,3.81 -0.77,-3.81 c 3.48,-0.81 3.15,-3.03 6.81,-3.77 3.75,-0.76 4.21,1.56 7.96,0.81 3.72,-0.76 3.26,-3.07 6.98,-3.84 3.68,-0.74 4.23,1.47 7.76,0.84 v 0 c 3.48,-0.82 3.15,-3.02 6.81,-3.78 3.74,-0.75 4.21,1.56 7.95,0.81 3.73,-0.77 3.27,-3.08 7,-3.84 3.67,-0.75 4.21,1.44 7.74,0.82 v 0 c 3.49,-0.8 3.15,-3.03 6.82,-3.77 3.73,-0.76 4.21,1.56 7.95,0.8 3.73,-0.76 3.26,-3.09 7,-3.85 3.66,-0.73 4.21,1.47 7.74,0.82 l 1.55,7.62 c -3.54,0.8 -3.17,3.05 -6.86,3.8 -3.74,0.75 -4.22,-1.56 -7.95,-0.79 -3.74,0.76 -3.26,3.06 -7.01,3.82 -3.64,0.75 -4.2,-1.4 -7.68,-0.83 v -0.01 c -3.54,0.81 -3.18,3.05 -6.86,3.79 -3.75,0.77 -4.22,-1.54 -7.96,-0.78 -3.74,0.75 -3.27,3.07 -7,3.82 -3.65,0.73 -4.22,-1.42 -7.69,-0.83 v -0.01 c -3.55,0.8 -3.18,3.04 -6.87,3.78 -3.74,0.76 -4.21,-1.54 -7.96,-0.78 -3.74,0.74 -3.27,3.07 -7,3.81 -3.65,0.74 -4.2,-1.42 -7.69,-0.84 v 0 c -3.55,0.8 -3.17,3.03 -6.88,3.79 -3.73,0.75 -4.2,-1.57 -7.94,-0.82 -3.73,0.76 -3.27,3.08 -7.02,3.82 -3.64,0.75 -4.2,-1.41 -7.67,-0.84 v 0 c -3.55,0.8 -3.19,3.03 -6.87,3.77 -3.75,0.77 -4.21,-1.54 -7.97,-0.8 -3.74,0.77 -3.26,3.07 -6.99,3.81 -3.66,0.74 -4.21,-1.41 -7.7,-0.84 v 0 c -3.55,0.8 -3.18,3.04 -6.87,3.77 -3.75,0.76 -4.2,-1.56 -7.95,-0.8 -3.73,0.74 -3.28,3.06 -7.02,3.81 -3.64,0.73 -4.2,-1.43 -7.68,-0.86 v 0 c -3.52,0.79 -3.28,3.05 -6.79,3.76 -3.76,0.77 -4.25,-1.53 -8,-0.77 -3.74,0.77 -3.26,3.08 -7.01,3.85 -3.67,0.74 -4.23,-1.41 -7.71,-0.82 v 0 c -3.57,0.8 -3.2,3.08 -6.93,3.76 -3.79,0.67 -4.22,-1.64 -7.98,-0.95 -3.75,0.67 -3.35,2.99 -7.11,3.68 -3.69,0.67 -4.2,-1.49 -7.7,-0.99 v 0 c -3.57,0.69 -3.29,2.91 -7.03,3.5 -3.8,0.61 -4.17,-1.74 -7.96,-1.14 -3.78,0.59 -3.43,2.92 -7.22,3.51 -3.7,0.6 -4.15,-1.67 -7.67,-1.32 v 0 c -3.62,0.55 -3.4,2.82 -7.17,3.29 -3.82,0.48 -4.1,-1.84 -7.91,-1.36 -3.79,0.5 -3.55,2.75 -7.38,3.15 -3.73,0.37 -4.08,-1.83 -7.61,-1.61 v 0 c -3.64,0.43 -3.53,2.71 -7.31,3.06 -3.85,0.25 -4.03,-2.09 -7.87,-1.86 -3.83,0.24 -3.7,2.6 -7.54,2.84 -3.77,0.27 -3.98,-2 -7.54,-2.02 v 0 c -3.66,0.17 -3.7,2.42 -7.5,2.53 -3.89,0.05 -3.91,-2.16 -7.77,-2.25 -3.85,-0.08 -3.88,2.28 -7.77,2.22 -3.78,-0.11 -3.82,-2.22 -7.39,-2.56 l 0.19,-3.88 -0.19,3.87 c -3.68,-0.16 -3.9,2.1 -7.74,1.85 -3.91,-0.3 -3.7,-2.51 -7.55,-3.03 -3.85,-0.45 -4.14,1.89 -8.03,1.41 -3.81,-0.42 -3.57,-2.81 -7.09,-3.54 v 0 c -3.66,-0.62 -4.21,1.66 -8.04,0.84 -3.87,-1 -3.29,-3.29 -7.07,-4.27 -3.78,-0.98 -4.46,1.05 -8.28,-0.2 -3.74,-1.25 -3.03,-3.38 -6.32,-5.02 v 0 c -3.46,-1.53 -4.62,0.7 -8.16,-1.39 -3.56,-2.12 -2.45,-3.88 -5.69,-6.29 -3.24,-2.38 -4.81,-0.38 -7.91,-3.28 -3.11,-2.77 -1.57,-4.46 -3.94,-7.41 h 0.02 c -2.67,-2.84 -4.31,-1.8 -6.75,-5.27 -2.11,-3.76 -0.1,-4.82 -1.71,-8.56 -1.51,-3.79 -3.79,-3.03 -4.89,-7.15 -1.02,-4.03 1.28,-4.59 0.77,-8.29 v 0 c -0.44,-3.78 -2.81,-3.73 -2.9,-7.82 -0.08,-4.13 2.35,-4.05 2.53,-8.02 0.27,-3.92 -2.04,-4.16 -1.59,-8.12 0.52,-3.82 2.73,-3.61 3.39,-7.09 z m 587.76,-171.09 c -3.6,-0.64 -3.18,-2.98 -6.81,-3.62 -3.61,-0.65 -4.01,1.69 -7.62,1.06 -3.56,-0.62 -3.26,-2.86 -6.66,-3.51 v 0 c -3.41,-0.45 -3.89,1.74 -7.42,1.16 -3.64,-0.59 -3.27,-2.91 -6.91,-3.49 -3.61,-0.56 -3.98,1.77 -7.61,1.2 -3.56,-0.53 -3.31,-2.77 -6.73,-3.38 v 0 c -3.41,-0.4 -3.84,1.8 -7.4,1.27 -3.64,-0.52 -3.31,-2.85 -6.96,-3.38 -3.63,-0.5 -3.96,1.84 -7.6,1.32 -3.56,-0.5 -3.36,-2.73 -6.77,-3.29 v 0 c -3.43,-0.35 -3.82,1.86 -7.39,1.38 -3.66,-0.5 -3.34,-2.83 -7,-3.29 -3.65,-0.47 -3.95,1.87 -7.59,1.41 -3.58,-0.45 -3.38,-2.7 -6.82,-3.23 v 0.01 c -3.42,-0.3 -3.8,1.9 -7.39,1.47 -3.64,-0.45 -3.37,-2.78 -7.02,-3.22 -3.65,-0.43 -3.93,1.91 -7.57,1.5 -3.58,-0.42 -3.42,-2.65 -6.85,-3.14 v 0 c -3.43,-0.29 -3.78,1.93 -7.37,1.52 -3.66,-0.42 -3.4,-2.75 -7.07,-3.14 -3.65,-0.39 -3.9,1.96 -7.56,1.57 -3.59,-0.38 -3.43,-2.64 -6.88,-3.09 v 0 c -3.42,-0.27 -3.76,1.96 -7.35,1.61 -3.66,-0.36 -3.43,-2.73 -7.11,-3.09 -3.64,-0.36 -3.87,2 -7.53,1.62 -3.59,-0.36 -3.47,-2.62 -6.91,-3.03 v 0.02 c -3.43,-0.23 -3.75,1.99 -7.35,1.66 -3.66,-0.34 -3.44,-2.69 -7.11,-3.03 -3.66,-0.35 -3.89,2.01 -7.54,1.66 -3.58,-0.31 -3.49,-2.56 -6.92,-2.95 l 0.67,-7.74 c 3.51,0.22 3.79,-2.03 7.41,-1.71 3.69,0.34 3.47,2.69 7.15,3.02 3.67,0.35 3.88,-2.01 7.56,-1.66 3.59,0.34 3.48,2.56 6.88,2.99 l -0.39,3.87 0.39,-3.86 c 3.49,0.25 3.8,-2 7.42,-1.63 3.67,0.37 3.44,2.7 7.13,3.07 3.65,0.37 3.88,-1.98 7.55,-1.62 3.59,0.37 3.47,2.57 6.85,3.06 l -0.39,3.87 0.39,-3.86 c 3.51,0.28 3.83,-1.96 7.45,-1.57 3.67,0.39 3.42,2.73 7.09,3.12 3.66,0.4 3.92,-1.95 7.59,-1.54 3.57,0.41 3.44,2.62 6.82,3.13 v 0 c 3.5,0.31 3.84,-1.93 7.45,-1.51 3.68,0.4 3.41,2.76 7.08,3.2 3.65,0.44 3.92,-1.9 7.59,-1.47 3.58,0.43 3.42,2.65 6.8,3.17 l -0.48,3.87 0.48,-3.85 c 3.49,0.34 3.85,-1.88 7.47,-1.43 3.67,0.46 3.36,2.8 7.03,3.27 3.66,0.47 3.96,-1.87 7.62,-1.39 3.57,0.49 3.4,2.7 6.76,3.28 v 0 c 3.49,0.4 3.87,-1.85 7.5,-1.35 3.65,0.52 3.33,2.84 6.98,3.37 3.66,0.51 3.99,-1.82 7.65,-1.29 3.56,0.52 3.36,2.73 6.72,3.36 l -0.59,3.84 0.59,-3.84 c 3.48,0.45 3.89,-1.79 7.5,-1.24 3.66,0.57 3.3,2.9 6.96,3.47 3.64,0.58 4.01,-1.76 7.66,-1.18 3.56,0.6 3.31,2.8 6.67,3.48 l -0.65,3.84 0.65,-3.83 c 3.47,0.48 3.94,-1.73 7.53,-1.11 3.65,0.65 3.25,2.95 6.9,3.6 3.62,0.64 4.05,-1.66 7.69,-1.02 3.54,0.66 3.26,2.88 6.6,3.64 l -1.46,7.63 c -3.4,-0.53 -3.93,1.63 -7.45,0.99 z m 64.77,126.17 -7.7,1.16 c -0.63,-3.51 -2.85,-3.29 -3.42,-6.97 -0.58,-3.79 1.76,-4.14 1.18,-7.91 -0.57,-3.77 -2.91,-3.42 -3.47,-7.18 -0.57,-3.7 1.64,-4.13 1.19,-7.7 l 3.83,-0.58 -3.83,0.58 c -0.65,-3.5 -2.87,-3.28 -3.44,-6.98 -0.57,-3.77 1.75,-4.13 1.18,-7.91 -0.57,-3.77 -2.93,-3.4 -3.5,-7.16 -0.57,-3.71 1.65,-4.14 1.2,-7.7 l 3.84,-0.6 -3.84,0.6 c -0.65,-3.53 -2.88,-3.29 -3.46,-6.98 -0.58,-3.77 1.76,-4.13 1.17,-7.91 -0.57,-3.76 -2.91,-3.4 -3.5,-7.18 -0.56,-3.69 1.66,-4.12 1.19,-7.69 l 7.69,-1.19 c 0.62,3.57 2.88,3.31 3.45,7.02 0.59,3.79 -1.74,4.15 -1.16,7.93 0.58,3.75 2.91,3.4 3.49,7.16 0.57,3.68 -1.62,4.13 -1.19,7.65 v 0 c 0.63,3.58 2.87,3.32 3.45,7.03 0.58,3.78 -1.75,4.14 -1.17,7.92 0.57,3.76 2.91,3.41 3.49,7.18 0.56,3.67 -1.61,4.12 -1.2,7.63 v 0 c 0.62,3.58 2.87,3.33 3.45,7.04 0.57,3.79 -1.77,4.14 -1.18,7.91 0.56,3.78 2.9,3.41 3.47,7.18 0.56,3.68 -1.62,4.14 -1.21,7.65 z m -36.46,-120.52 c -3.56,-0.77 -3.07,-3.09 -6.67,-3.83 -3.58,-0.75 -4.06,1.57 -7.65,0.85 -3.5,-0.69 -3.17,-2.94 -6.54,-3.66 l 1.46,-7.63 c 3.46,0.56 3.98,-1.63 7.56,-0.92 3.65,0.72 3.18,3.04 6.81,3.79 3.62,0.74 4.11,-1.55 7.74,-0.77 3.55,0.81 3.18,2.97 6.51,3.89 l -1.79,7.56 c -3.34,-0.68 -3.96,1.5 -7.43,0.72 z m 38.68,135.49 c 0.55,3.79 2.89,3.42 3.43,7.23 -1.29,4.78 2.43,1.52 -5.38,11.11 l -1.2,-3.7 1.2,3.7 c -3.71,1.15 -3.22,3.33 -6.96,4.26 -3.77,0.92 -4.3,-1.41 -8.03,-0.53 -3.73,0.86 -3.2,3.15 -6.95,3.99 -3.65,0.82 -4.24,-1.34 -7.72,-0.71 v 0 c -3.53,0.86 -3.13,3.1 -6.82,3.91 -3.73,0.8 -4.23,-1.51 -7.98,-0.7 -3.72,0.8 -3.23,3.1 -6.96,3.9 -3.64,0.78 -4.22,-1.37 -7.7,-0.74 v -0.02 c -3.54,0.84 -3.16,3.07 -6.84,3.85 -3.73,0.79 -4.22,-1.52 -7.97,-0.72 -3.72,0.78 -3.25,3.08 -6.97,3.86 -3.65,0.76 -4.21,-1.38 -7.7,-0.78 l -0.79,-3.81 0.79,3.81 c -3.54,0.82 -3.15,3.05 -6.85,3.82 -3.73,0.78 -4.22,-1.52 -7.95,-0.75 -3.74,0.78 -3.26,3.08 -6.99,3.86 -3.63,0.77 -4.21,-1.4 -7.69,-0.8 l -0.8,-3.8 0.79,3.8 c -3.53,0.81 -3.16,3.05 -6.85,3.81 -3.73,0.76 -4.22,-1.53 -7.96,-0.78 -3.72,0.79 -3.26,3.09 -6.99,3.87 -3.64,0.74 -4.2,-1.41 -7.69,-0.82 l -0.78,-3.8 0.78,3.8 c -3.54,0.82 -3.17,3.05 -6.85,3.81 -3.75,0.77 -4.23,-1.55 -7.98,-0.78 -3.71,0.78 -3.25,3.07 -6.96,3.84 -3.67,0.75 -4.22,-1.4 -7.71,-0.82 l -0.78,-3.81 0.77,3.81 c -3.53,0.8 -3.16,3.04 -6.85,3.79 -3.75,0.77 -4.22,-1.54 -7.95,-0.78 -3.75,0.78 -3.27,3.07 -7.01,3.84 -3.65,0.75 -4.2,-1.42 -7.69,-0.82 l -1.55,-7.63 c 3.47,-0.82 3.14,-3.03 6.8,-3.78 3.75,-0.76 4.22,1.56 7.96,0.79 3.73,-0.76 3.25,-3.07 6.98,-3.83 3.69,-0.76 4.23,1.43 7.77,0.81 v 0 c 3.46,-0.82 3.12,-3.04 6.78,-3.79 3.75,-0.77 4.21,1.55 7.97,0.78 3.73,-0.76 3.26,-3.08 6.97,-3.85 3.69,-0.74 4.22,1.45 7.76,0.81 v 0 c 3.48,-0.83 3.13,-3.04 6.81,-3.8 3.72,-0.76 4.2,1.54 7.95,0.78 3.73,-0.78 3.25,-3.08 6.98,-3.85 3.66,-0.76 4.22,1.43 7.74,0.79 v 0 c 3.48,-0.82 3.14,-3.05 6.8,-3.81 3.74,-0.77 4.21,1.54 7.96,0.76 3.72,-0.78 3.24,-3.09 6.97,-3.86 3.65,-0.77 4.22,1.43 7.75,0.77 v 0 c 3.46,-0.82 3.13,-3.04 6.77,-3.8 3.75,-0.8 4.24,1.53 7.97,0.74 3.72,-0.78 3.24,-3.11 6.96,-3.89 3.65,-0.77 4.22,1.43 7.76,0.76 l 0.81,3.81 -0.81,-3.82 c 3.45,-0.84 3.1,-3.05 6.75,-3.84 3.75,-0.78 4.23,1.53 7.96,0.72 3.72,-0.79 3.23,-3.12 6.95,-3.92 3.64,-0.78 4.22,1.4 7.74,0.72 v 0 c 3.45,-0.87 3.08,-3.07 6.72,-3.89 3.71,-0.84 4.24,1.47 7.95,0.62 3.68,-0.87 3.17,-3.14 6.81,-4.02 1.62,-0.4 2.62,-0.15 3.56,0.15 -0.21,-0.65 -0.42,-1.27 -0.67,-1.7 -0.53,-3.75 1.78,-4.1 1.24,-7.87 -0.56,-3.75 -2.9,-3.41 -3.46,-7.18 -0.56,-3.7 1.67,-4.13 1.22,-7.69 l 7.68,-1.16 c 0.63,3.58 2.87,3.33 3.43,7.06 0.56,3.79 -1.77,4.12 -1.2,7.91 z m -4.34,10.94 c 0,0 0,0 -0.02,0 h 0.03 z m -11.57,-115.22 -7.69,1.2 c -0.64,-3.51 -2.88,-3.29 -3.44,-6.98 -0.59,-3.77 1.74,-4.13 1.16,-7.91 -0.59,-3.76 -2.92,-3.4 -3.49,-7.17 -0.59,-3.69 1.64,-4.14 1.18,-7.7 l 7.66,-1.19 c 0.65,3.58 2.9,3.31 3.48,7.04 0.58,3.77 -1.75,4.14 -1.16,7.91 0.58,3.77 2.9,3.4 3.49,7.17 0.56,3.68 -1.6,4.14 -1.19,7.63"
         style="fill:#231f20;fill-opacity:1;fill-rule:nonzero;stroke:none"
         id="path146" />
      <path
         inkscape:connector-curvature="0"
         d="m 3495.27,1802.08 c 0.02,0.03 191.7,245.58 308.48,389.31 v 0 c 39.09,48.06 69.22,84.22 82.77,97.81 v 0 l 22.11,-22.11 c -8.17,-8.13 -27.87,-31.14 -53.23,-61.95 v 0 c -25.48,-30.93 -57.09,-70.1 -90.6,-112.03 v 0 c -67.07,-83.87 -141.81,-178.81 -190.87,-241.33 v 0 c -32.71,-41.69 -53.96,-68.89 -54.01,-68.95 v -0.02 l -24.65,19.27 v 0"
         style="fill:#231f20;fill-opacity:1;fill-rule:nonzero;stroke:none"
         id="path148" />
      <path
         inkscape:connector-curvature="0"
         d="m 3854,2235.28 -80.23,48.51 c 0,-0.01 0,0 -0.18,0.12 v 0 c -0.23,0.11 -0.62,0.33 -1.18,0.6 v 0 c -1.13,0.55 -2.97,1.35 -5.57,2.15 v 0 c -5.27,1.62 -13.66,3.32 -25.83,3.32 v 0 c -32.36,0 -450.4,13.87 -450.2,13.87 v 0 c -0.03,0 -0.29,0 -0.79,0 v 0 c -5.18,0.03 -33.82,0.76 -59.37,20.17 v 0 c -2.28,1.76 -2.73,5.03 -0.98,7.32 v 0 c 1.74,2.29 5.02,2.74 7.31,0.97 v 0 c 22.45,-17.21 48.98,-18.07 53.04,-18.05 v 0 c 0.4,0 0.57,0 0.85,0 v 0 c 0.22,0 104.57,-3.46 213.13,-6.92 v 0 c 108.52,-3.47 221.27,-6.93 237.01,-6.93 v 0 c 26.3,0.02 37.84,-7.43 38.39,-7.85 v 0 l 79.99,-48.35 v -0.01 c 2.47,-1.49 3.25,-4.69 1.76,-7.16 v 0 c -0.98,-1.61 -2.69,-2.51 -4.46,-2.51 v 0 c -0.92,0 -1.85,0.24 -2.69,0.75 v 0"
         style="fill:#231f20;fill-opacity:1;fill-rule:nonzero;stroke:none"
         id="path150" />
      <path
         inkscape:connector-curvature="0"
         d="m 3627.47,2293.07 c -2.85,0.39 -4.84,3 -4.46,5.88 v 0 c 0.39,2.85 3.01,4.84 5.87,4.45 v 0 c 0,0.01 1.07,-0.13 3.01,-0.29 v 0 c 1.88,-0.15 4.61,-0.28 7.97,-0.28 v 0 c 14.46,-0.08 39.46,2.91 55.39,19.01 v 0 c 12.42,12.4 16.69,16.7 18.08,18.08 v 0 c 0.08,0.08 0.15,0.14 0.21,0.2 v 0 c -0.02,0 -0.02,-0.01 -0.03,-0.02 v 0 c 0.01,0 0.01,0.01 0.03,0.02 v 0 l 0.01,0.02 v 0 c 0.01,0.02 0.02,0.03 0.04,0.03 v 0 l -0.02,0.01 0.04,0.02 c 0.05,0.05 0.1,0.09 0.15,0.15 v 0 c 0.07,0.08 0.16,0.15 0.24,0.22 v 0 c 0.02,0.02 0.03,0.04 0.08,0.07 v 0 c 0.4,0.34 0.85,0.61 1.33,0.81 v 0 c 0.12,0.07 0.27,0.13 0.5,0.19 v 0 c 0.5,0.16 1,0.24 1.52,0.24 v 0 c 1.4,0 2.71,-0.55 3.7,-1.54 v 0 c 0.53,-0.54 0.95,-1.18 1.19,-1.88 v 0 c 0.07,-0.16 0.14,-0.35 0.2,-0.63 v 0 c 0.03,-0.13 0.05,-0.27 0.08,-0.41 v 0 c 0.13,-0.92 0.02,-1.85 -0.33,-2.73 v 0 c -0.14,-0.46 -0.26,-0.61 -0.36,-0.71 v 0 c -0.01,-0.03 -0.02,-0.05 -0.05,-0.07 v 0 c -0.22,-0.37 -0.48,-0.69 -0.77,-0.99 v -0.01 l -0.03,-0.02 v 0 c -0.01,-0.02 -0.05,-0.04 -0.08,-0.08 v 0 c 0.03,0.04 0.04,0.04 0.04,0.04 v 0.01 c -0.01,-0.01 -0.04,-0.05 -0.05,-0.07 v 0 c -0.09,-0.08 -0.21,-0.19 -0.36,-0.35 v 0 c -0.07,-0.08 -0.15,-0.15 -0.22,-0.23 v 0 c -0.4,-0.37 -0.77,-0.76 -0.77,-0.77 v 0 c -0.11,-0.1 -0.21,-0.2 -0.31,-0.29 v 0 c -0.45,-0.45 -1.01,-1.01 -1.68,-1.68 v 0 c -2.71,-2.71 -7.34,-7.34 -15.01,-15.02 v 0 c -19.48,-19.31 -47.12,-21.99 -62.76,-22.07 v 0 c -7.4,0.02 -12.2,0.67 -12.39,0.69 z m 93.59,39.82 -0.01,-0.02 c -0.01,-0.01 -0.03,-0.01 -0.03,-0.01 v 0 c 0.03,0.01 0.03,0.02 0.04,0.03 z m -7.49,7.29 0.02,-0.01 c -0.02,0 -0.03,-0.01 -0.04,-0.03 v 0 c 0,0 0,-0.02 -0.01,-0.02 v 0 c 0.01,0.02 0.01,0.02 0.03,0.06 v 0"
         style="fill:#231f20;fill-opacity:1;fill-rule:nonzero;stroke:none"
         id="path152" />
      <path
         inkscape:connector-curvature="0"
         d="m 3468.7,1758.83 c -2.44,0.04 -4.54,1.78 -5.02,4.16 v 0 l -110.69,542.81 c -0.57,2.81 1.24,5.58 4.07,6.15 v 0 c 2.82,0.59 5.57,-1.25 6.15,-4.06 v 0 l 105.99,-519.75 122.5,512.27 c 0.66,2.8 3.47,4.52 6.26,3.86 v 0 c 2.8,-0.68 4.52,-3.49 3.86,-6.28 v 0 l -127.96,-535.17 c -0.56,-2.32 -2.65,-3.99 -5.04,-3.99 v 0 c -0.04,0 -0.08,0 -0.12,0 v 0"
         style="fill:#231f20;fill-opacity:1;fill-rule:nonzero;stroke:none"
         id="path154" />
      <path
         inkscape:connector-curvature="0"
         d="m 4545.18,2327.15 c 39,0 68.29,2.23 87.8,4.45 v 0 c 19.52,2.23 29.16,4.42 29.18,4.44 v 0 l 0.22,0.03 0.18,0.02 c 0.04,0 10.03,0.68 25.38,3.52 v 0 c 15.35,2.83 35.95,7.84 56.9,16.46 v 0 c 41.94,17.35 84.77,48.77 90.88,106.23 v 0 c 0.8,7.42 1.14,14.37 1.14,20.94 v 0 c -0.08,96.2 -79.34,108.15 -102.64,114.22 v 0 l 1.27,5.05 c 22.51,-5.54 106.7,-19.18 106.59,-119.27 v 0 c 0,-6.76 -0.37,-13.9 -1.17,-21.48 v 0 c -13.09,-117.37 -169.86,-130.13 -177.7,-130.84 v 0 c -2.21,-0.49 -41.73,-9.01 -118.03,-9.01 v 5.24"
         style="fill:#231f20;fill-opacity:1;fill-rule:nonzero;stroke:none"
         id="path156" />
      <path
         inkscape:connector-curvature="0"
         d="m 4593.13,2208.65 c 35.74,38.58 78.32,81.82 78.58,82.03 v 0 c 120.28,95.3 127.36,284.86 127.27,325.67 v 0 c 0,5.1 -0.11,7.84 -0.11,7.84 v 0 l -0.18,4.64 4.06,-2.27 c 0.73,-0.31 21.7,-12.85 21.61,-60.27 v 0 c 0,-18.5 -3.12,-42.29 -11.75,-72.83 v 0 c -26.97,-94.91 -77.62,-152.97 -77.38,-209.92 v 0 c 0,-8.33 1.04,-16.63 3.38,-25.08 v 0 l -5.04,-1.39 c -2.46,8.91 -3.57,17.7 -3.57,26.47 v 0 c 0.23,60.05 51.17,117.48 77.6,211.34 v 0 c 8.53,30.18 11.55,53.52 11.54,71.41 v 0 c -0.02,31.7 -9.43,46.31 -14.95,52.26 v 0 c 0,-0.69 0,-1.42 0,-2.2 v 0 c -0.1,-41.31 -6.52,-232.09 -129,-329.54 v 0 c -0.08,-0.09 -42.58,-43.2 -78.24,-81.71 v 0 l -3.82,3.55 v 0"
         style="fill:#231f20;fill-opacity:1;fill-rule:nonzero;stroke:none"
         id="path158" />
      <path
         inkscape:connector-curvature="0"
         d="m 4141.22,1723.03 447.57,479.71 3.67,-3.4 -447.57,-479.72 -3.67,3.41 v 0"
         style="fill:#231f20;fill-opacity:1;fill-rule:nonzero;stroke:none"
         id="path160" />
      <path
         inkscape:connector-curvature="0"
         d="m 4593.79,2198.18 c -2.1,-2.3 -5.7,-2.49 -8.01,-0.39 l -2.04,1.84 c -2.3,2.1 -2.49,5.7 -0.39,8.01 l 6.11,6.76 c 2.1,2.31 5.71,2.49 8.01,0.4 l 2.04,-1.85 c 2.31,-2.1 2.49,-5.7 0.39,-8.01 l -6.11,-6.76"
         style="fill:#231f20;fill-opacity:1;fill-rule:nonzero;stroke:none"
         id="path162" />
      <path
         inkscape:connector-curvature="0"
         d="m 4857.66,1891.93 c -46.98,77.11 -86.52,177.89 -113.91,259.01 -13.74,40.58 -24.48,76.27 -31.79,101.77 -0.69,2.41 -1.35,4.69 -1.96,6.9 l 0.59,0.18 c 3.1,0.97 4.86,4.29 3.89,7.41 l -0.64,2.08 c -0.92,2.95 -4,4.61 -6.96,3.92 l -5.22,16.98 c -0.53,2.07 -0.82,3.16 -0.82,3.18 l -0.15,-0.04 -17.23,56.15 -23.04,79.65 c 2.47,1.29 3.85,4.13 2.98,6.9 l -0.65,2.07 c -0.84,2.67 -3.41,4.21 -6.1,4.02 l -0.07,0.25 -9.51,16.43 -2.92,-1 c -1.16,2.82 -2.51,6.19 -4.03,10.35 -5.65,15.31 -4.03,16.93 3.22,24.17 5.45,5.44 43.27,39.62 61.66,56.21 h 0.01 c 1.24,1.13 2.38,2.14 3.43,3.1 6.51,5.61 20,15.94 20,4.86 0,-14.57 3.5,-6.75 5.66,-8.9 2.16,-2.17 12.15,0.8 12.15,7.83 0,7.01 2.43,9.45 2.43,9.45 0,0 5.14,5.14 0,5.14 -5.13,0 -8.09,3.22 -4.05,9.16 4.05,5.96 9.19,1.89 6.62,8.52 -2.57,6.61 -6.21,6.75 -2.57,10.39 3.47,3.47 -0.24,8.86 -10.49,11.58 0.65,6.94 -0.39,11.4 -2.73,19.2 -3.25,10.8 3.24,10.8 21.59,8.64 18.36,-2.17 26.47,-14.04 28.63,-16.2 2.15,-2.17 18.35,-8.63 24.83,3.24 6.49,11.88 -10.79,16.74 -10.79,16.74 0,8.63 -17.29,17.27 -17.29,17.27 -2.7,10.27 -32.93,25.39 -32.93,25.39 -14.04,19.96 -45.24,24.41 -45.24,24.41 -2.31,0.43 -4.67,0.69 -7.1,0.69 -7.67,0 -14.78,-2.28 -20.74,-6.17 -3.83,4.31 -9.34,7.08 -15.55,7.08 -11.52,0 -20.86,-9.33 -20.86,-20.88 0,-10.93 8.46,-19.8 19.17,-20.68 1.32,-19.84 17.8,-35.56 37.98,-35.56 4.34,0 8.48,0.75 12.38,2.1 v -18.49 c 0,-7.02 3.43,-12.62 -3.31,-19.38 -6.71,-6.7 -25.27,-24.51 -25.49,-24.73 l -52.7,-46.21 c 0,0 -2.83,-3.41 -7.48,2.76 -0.42,0.79 -0.9,1.52 -1.47,2.2 -0.07,0.11 -0.14,0.2 -0.2,0.32 l -0.04,-0.02 c -2.4,2.71 -5.87,4.46 -9.78,4.46 -7.22,0 -13.07,-5.85 -13.07,-13.08 0,-0.78 0.09,-1.54 0.22,-2.27 l -0.03,-0.01 0.05,-0.16 c 0.14,-0.67 0.34,-1.33 0.58,-1.97 l 20.19,-69.92 -3.64,-1.27 0.4,-7.57 0.36,-10.44 -0.68,-0.19 c -3.12,-0.98 -4.86,-4.31 -3.9,-7.43 l 0.65,-2.06 c 0.97,-3.11 4.29,-4.85 7.41,-3.89 l 0.95,0.3 6.14,-18.43 -719.67,-83.42 -16.21,57.05 -35.12,-9.98 183.12,-644.57 -4.31,-4.51 7.81,-7.81 4.09,-14.4 5.73,1.63 24.11,-31.37 586.02,621.84 c 3.23,-11 5.53,-19.17 6,-21.58 -2.16,-1.41 -3.28,-4.05 -2.47,-6.62 l 0.63,-2.08 c 0.98,-3.1 4.3,-4.84 7.42,-3.89 l 0.79,0.26 c 12.02,-42.44 34.75,-117.54 65.95,-197.36 23.84,-60.94 52.57,-124.63 85.64,-179.03 33.22,-54.31 70.23,-99.78 114.32,-123.46 l 18.34,34.55 c -33.23,17.35 -68.11,57.75 -99.23,109.24 z m -791.53,-144.94 -143.04,503.5 c 21.68,3.17 56.51,8.16 99.64,14 0.36,-3.01 3.04,-5.23 6.08,-4.97 l 9.08,0.79 c 3.11,0.28 5.42,3.05 5.15,6.15 l -0.07,0.75 c 66.83,8.9 150.05,19.31 234.63,28.16 99.66,10.41 121.72,17.15 249.7,27.72 l 0.04,-0.4 c 0.27,-3.12 3.03,-5.42 6.14,-5.15 l 9.09,0.79 c 3.11,0.28 5.42,3.04 5.14,6.14 l -0.01,0.26 c 23.03,1.81 49.11,3.73 79.28,5.82 l -560.85,-583.56"
         style="fill:#231f20;fill-opacity:1;fill-rule:nonzero;stroke:none"
         id="path164" />
      <path
         inkscape:connector-curvature="0"
         d="m 4028.98,2267.93 c -13.02,-4.04 -21.48,-5.5 -28.48,-5.5 -10.23,-0.09 -18.11,3.25 -33.05,6.57 -14.78,3.3 -36.45,6.57 -74.02,6.57 -50.64,-0.2 -91.72,-30.91 -120.54,-62.24 -6.28,1.98 -14.33,1.3 -16.04,-1.96 -1.08,-2.03 -0.14,-4.16 1.71,-6.47 -21.09,-16.56 -44.95,-51.76 -44.95,-51.76 0,0 0.63,-1.23 1.64,-2.96 l -5.28,-7.93 -7.22,4.49 c -2.07,1.28 -5.04,0.79 -6.58,-1.1 l -6.5,-7.91 c -1.54,-1.89 -1.12,-4.48 0.94,-5.76 l 8.88,-5.51 -1.35,-2.02 c -4.77,0.42 -8.69,-0.2 -9.68,-2.1 -1.51,-2.87 -0.37,-4.46 3.4,-7.74 -0.63,-1.83 0.04,-3.82 1.85,-4.8 l 15.18,-8.08 c 2.13,-1.15 5,-0.43 6.36,1.6 l 0.54,0.82 c 0.77,0.2 1.39,0.51 1.69,1.07 0.54,1.02 1.06,2.25 1.41,3.58 l 2.65,4 14.72,-9.12 c 2.06,-1.29 4.57,-0.53 5.59,1.7 l 4.2,9.34 c 0.99,2.22 0.12,5.09 -1.95,6.38 l -12.06,7.48 10.15,15.28 c 1.35,2.03 0.9,4.95 -0.98,6.48 l -1.78,1.46 c 10.77,14.57 29.6,37.21 39.75,49.26 3.81,4.54 4.13,9.05 0.7,10.08 -0.52,0.16 -0.97,0.31 -1.46,0.45 28.21,30.14 67.6,58.81 115.01,58.77 75.24,0 84.08,-12.97 107.07,-13.14 7.76,0.02 16.76,1.62 30.03,5.74 l -1.55,4.98"
         style="fill:#231f20;fill-opacity:1;fill-rule:nonzero;stroke:none"
         id="path166" />
      <path
         inkscape:connector-curvature="0"
         d="m 4936.01,2219.49 c 12.05,0 23.95,-0.61 35.76,-1.54 l 20.05,34.83 c -18.31,2.1 -36.93,3.22 -55.81,3.22 -268.8,0 -486.71,-217.91 -486.71,-486.71 0,-55.6 9.34,-109 26.51,-158.73 l 26.87,36.66 c -10.92,38.83 -16.89,79.75 -16.89,122.07 0,248.64 201.57,450.2 450.22,450.2"
         style="fill:#231f20;fill-opacity:1;fill-rule:nonzero;stroke:none"
         id="path168" />
      <path
         inkscape:connector-curvature="0"
         d="m 3944.7,1762.71 h 37.1 c 2.92,216.06 -137.09,416.49 -354.5,480.75 -261.97,77.42 -537.09,-72.21 -614.52,-334.16 -15.99,-54.18 -22.28,-108.92 -19.88,-162.35 l 36.75,28.01 c 0.55,40.99 6.51,82.58 18.7,123.83 71.62,242.32 326.11,380.7 568.44,309.1 201.27,-59.48 330.82,-245.14 327.91,-445.18"
         style="fill:#231f20;fill-opacity:1;fill-rule:nonzero;stroke:none"
         id="path170" />
      <path
         inkscape:connector-curvature="0"
         d="m 4720.05,2276.13 c 3.76,0.02 6.74,0.06 7.2,0.08 7.74,0.55 17.14,-2.91 18.02,-7.23 0.52,-2.56 -1.19,-4.59 -3.94,-6.51 17.7,-24.83 32.43,-70.91 32.43,-70.91 0,0 -1.08,-1.14 -2.74,-2.71 l 3.21,-10.33 9.32,2.57 c 2.69,0.73 5.76,-0.76 6.83,-3.31 l 4.56,-10.71 c 1.08,-2.56 -0.21,-5.25 -2.89,-6 l -11.44,-3.14 0.83,-2.65 c 5.32,-1.06 9.41,-3.01 9.89,-5.42 0.72,-3.59 -1.03,-4.97 -6.2,-7.34 0.1,-2.19 -1.27,-4.15 -3.57,-4.63 l -19.15,-3.96 c -2.71,-0.57 -5.59,1.14 -6.43,3.78 l -0.33,1.08 c -0.76,0.47 -1.34,1.01 -1.49,1.72 -0.27,1.27 -0.43,2.78 -0.38,4.33 l -1.63,5.23 -18.99,-5.25 c -2.66,-0.72 -5.16,0.92 -5.53,3.68 l -1.61,11.52 c -0.38,2.75 1.51,5.61 4.19,6.35 l 15.56,4.29 -6.17,19.93 c -0.82,2.64 0.61,5.7 3.15,6.77 l 2.41,1.01 c -7.09,19.36 -20.37,50.11 -27.57,66.53 -2.71,6.15 -1.62,11.19 2.46,11.23"
         style="fill:#231f20;fill-opacity:1;fill-rule:nonzero;stroke:none"
         id="path172" />
      <path
         inkscape:connector-curvature="0"
         d="m 4035.92,2264.36 500.47,58.26 0.29,-2.48 -500.49,-58.26 -0.27,2.48 v 0"
         style="fill:#231f20;fill-opacity:1;fill-rule:nonzero;stroke:none"
         id="path174" />
      <path
         inkscape:connector-curvature="0"
         d="m 4184.86,1432.87 -10.78,24.83 c -1.54,-0.81 -4.17,-1.89 -7.53,-3.15 l -1.3,2.99 c -3.7,-1.91 -14.86,-5.78 -28.03,-10.06 l -25.16,113.45 -43.54,-4.68 38.79,-118.18 c -16.62,-5.12 -30.25,-9.16 -30.25,-9.16 l 0.84,-2.75 c -7.33,-2.21 -11.94,-3.58 -11.94,-3.58 l 8.42,-27.15 c 4.21,0.92 8.26,1.86 12.23,2.81 l 0.88,-2.81 c 61.08,13.38 90.11,30.54 90.11,30.54 l -1.12,2.57 c 5.54,2.67 8.38,4.33 8.38,4.33 z m -126.5,354.57 -34.69,107.91 c 16.17,-0.15 28.99,-0.41 28.99,-0.41 l 0.01,2.87 c 7.65,-0.11 12.47,-0.2 12.47,-0.2 l 0.2,28.43 c -4.3,0.4 -8.45,0.72 -12.52,1.01 l 0.02,2.95 c -62.27,5.76 -95.13,-1.81 -95.13,-1.81 l 0.28,-2.79 c -6.08,-0.87 -9.27,-1.59 -9.27,-1.59 l 2.74,-26.91 c 1.72,0.29 4.54,0.52 8.13,0.72 l 0.33,-3.26 c 4.21,0.74 16.42,1.01 30.65,1.1 l 24.23,-112.43 z m 10.82,-37.56 -55.92,-14.39 42.49,-165.16 55.92,14.38 -42.49,165.17"
         style="fill:#231f20;fill-opacity:1;fill-rule:nonzero;stroke:none"
         id="path176" />
      <path
         inkscape:connector-curvature="0"
         d="m 3530.35,1638.2 c 0,2.25 -4.96,3.9 -5.44,6 -0.48,2.17 3.27,5.8 2.31,7.75 -0.95,1.99 -6.15,1.33 -7.5,3.03 -1.37,1.72 0.42,6.63 -1.29,7.99 -1.71,1.37 -6.11,-1.47 -8.08,-0.51 l -0.96,0.98 c -1.25,1.81 -1.92,5.27 -3.68,5.67 -0.51,0.11 -1.05,-0.07 -1.62,-0.4 l -52.63,52.64 -26.96,7.01 c 0,0 -17.08,-33.67 -20.52,-38.63 -0.82,-1.17 -1.05,-2.41 -0.92,-3.68 l -12.11,1 c -1.63,0.15 -3.22,-1.05 -3.54,-2.64 l -0.07,-0.39 c -4.59,2.66 -12.01,7.51 -19.46,14.63 -12.06,11.55 -23.92,28.73 -23.92,51.92 0,2.34 0.11,4.75 0.36,7.2 3.47,34.01 34.64,49.41 61.73,49.46 13.31,0.04 25.33,-3.83 31.97,-10.53 l 3.7,3.67 c -8.18,8.13 -21.41,12.07 -35.67,12.09 -28.75,0.08 -62.98,-16.68 -66.91,-54.13 -0.28,-2.65 -0.41,-5.24 -0.39,-7.76 0.18,-42.44 36.16,-65.61 47.5,-71.92 l -0.06,-0.2 c -0.32,-1.59 0.67,-3.31 2.23,-3.82 l 16.27,-5.36 c 0.59,-0.19 1.15,-0.13 1.67,0.05 0.01,0 0.01,-0.02 0.02,-0.02 l 11.51,-0.26 c 10.85,-7.13 33.8,-20.67 49.45,-29.82 -0.22,-0.33 -0.39,-0.67 -0.39,-1.02 0,-2.24 4.98,-3.9 5.46,-6.01 0.48,-2.15 -3.26,-5.8 -2.32,-7.76 0.96,-1.97 6.14,-1.32 7.52,-3.02 1.37,-1.71 -0.44,-6.64 1.27,-7.99 1.72,-1.37 6.09,1.46 8.08,0.51 0.23,-0.12 0.43,-0.29 0.63,-0.51 -1.52,-6.12 -5.86,-14.03 -15.84,-24.01 -4.48,-4.49 -7.79,-8.88 -10.36,-13.16 -1.81,1.21 -3.76,3.69 -5.37,3.33 -2.14,-0.5 -2.65,-5.71 -4.61,-6.65 -2,-0.96 -6.37,1.87 -8.08,0.52 -1.73,-1.37 0.08,-6.28 -1.3,-8 -1.37,-1.71 -6.55,-1.04 -7.51,-3.03 -0.95,-1.95 2.8,-5.6 2.3,-7.75 -0.47,-2.11 -5.43,-3.77 -5.43,-6.01 0,-0.23 0.09,-0.46 0.18,-0.67 l -14.4,-7.65 6.13,-16.46 19.34,1.37 c 0.11,-0.58 0.3,-1.07 0.67,-1.37 1.72,-1.36 6.09,1.47 8.08,0.51 1.97,-0.93 2.48,-6.15 4.63,-6.64 2.12,-0.48 4.83,3.98 7.07,3.98 2.24,0 4.95,-4.46 7.05,-3.98 2.17,0.49 2.68,5.71 4.63,6.64 1.99,0.96 6.38,-1.87 8.08,-0.5 1.71,1.35 -0.07,6.27 1.3,7.97 1.35,1.71 6.54,1.05 7.5,3.04 0.94,1.96 -2.79,5.6 -2.3,7.76 0.47,2.11 5.44,3.76 5.44,6 0,2.24 -4.97,3.9 -5.44,6.01 -0.49,2.17 3.24,5.8 2.3,7.75 -0.69,1.43 -3.55,1.5 -5.63,2.05 13.08,15.33 26.64,33.85 30.54,48.6 0.75,-0.08 1.42,-0.02 1.87,0.35 1.7,1.35 -0.08,6.27 1.29,7.99 1.35,1.7 6.55,1.03 7.5,3.02 0.96,1.96 -2.79,5.61 -2.31,7.76 0.48,2.11 5.44,3.77 5.44,6.01"
         style="fill:#231f20;fill-opacity:1;fill-rule:nonzero;stroke:none"
         id="path178" />
    </g>
  </g>
</svg>
